<?xml version="1.0" encoding="utf-8"?>
<!-- Generator: Adobe Illustrator 16.0.0, SVG Export Plug-In . SVG Version: 6.00 Build 0)  -->
<!DOCTYPE svg PUBLIC "-//W3C//DTD SVG 1.1//EN" "http://www.w3.org/Graphics/SVG/1.1/DTD/svg11.dtd">
<svg version="1.1"
	 id="svg2" inkscape:version="0.45.1" sodipodi:docbase="C:\Documents and Settings\Administrator" sodipodi:version="0.32" sodipodi:docname="dibujo-1.svg" inkscape:output_extension="org.inkscape.output.svg.inkscape" xmlns:rdf="http://www.w3.org/1999/02/22-rdf-syntax-ns#" xmlns:inkscape="http://www.inkscape.org/namespaces/inkscape" xmlns:dc="http://purl.org/dc/elements/1.1/" xmlns:svg="http://www.w3.org/2000/svg" xmlns:cc="http://web.resource.org/cc/" xmlns:sodipodi="http://sodipodi.sourceforge.net/DTD/sodipodi-0.dtd"
	 xmlns="http://www.w3.org/2000/svg" xmlns:xlink="http://www.w3.org/1999/xlink" x="0px" y="0px" width="455px" height="540px"
	 viewBox="0 0 455 540" enable-background="new 0 0 455 540" xml:space="preserve">
<sodipodi:namedview  id="base" inkscape:current-layer="layer1" inkscape:document-units="px" inkscape:pageopacity="0.0" inkscape:window-width="1024" inkscape:pageshadow="2" inkscape:window-x="-4" inkscape:window-y="-4" inkscape:window-height="712" inkscape:guide-bbox="true" bordercolor="#666666" pagecolor="#ffffff" borderopacity="1.0" inkscape:zoom="0.7" inkscape:cx="307.50178" inkscape:cy="179.6861" showguides="true">
	</sodipodi:namedview>
<path id="path4315" fill="#888888" fill-opacity="0" stroke="#FFFFFF" stroke-width="3" d="M299.973,20.75l-4.812,0.906
	l-4.531,4.406l-3.312,7.188l-2.5,17.312l-1.781,3.406l-1.906,2.281L277.223,58l-6.312,3.406l-6.812,4.312L258.16,71
	c0,0-2.527,3.927-2.906,4.938s-2.156,5.438-2.156,5.438s-0.996,4.648-1.375,5.406s-2.656,5.562-2.656,5.562l-5.188,5.688
	l-2.875,2.281l-6.469,5.156l-19.812-0.25l-9.219-4.156l-8.188-0.5l-6.469-7.188l-12.25-7.719l-14.5-7.062l-15.781-6.562
	l-4.812,1.625l-7.938,0.625l-12.25-0.375l-1.156-0.875l2.656-7.688l-5.312-3.938l-4.406-3.531l-4.531,0.25l0.75,3.781l5.812,10
	l-5.438,4.531l-8.969,1.906l-16.156,0.125l-9.219,3.906l-1.531-1.625l-7.688-0.156l-15.031,6.062l-8.969-7.062l-3.406-1.5
	l-1.781,1.562c0.385,2.307-4.807,0.578-6.812,1.781c-1.531,0.919-2.451,2.451-3.562,3.562c-1.367,1.367-3.954,2.896-5.344,3.938
	c-1.414,1.06-0.604,4.083-0.375,5c0.505,2.021-0.416,3.79-0.719,5c-0.338,1.354-2.35,2.306-2.844,4.281
	c-0.368,1.473-2.907,3.282-3.562,3.938c-0.858,0.858,0.719,4.623,0.719,5.688c0,1.552,0.298,4.163,0.688,5.719
	c0.332,1.328,3.2,2.303,3.594,2.5c0.361,0.181-1.006,3.363-0.719,3.938c0.35,0.7,4.477,0.889,5.344,1.062
	c1.514,0.303,4.152,0.948,5.375,1.438c0.15,0.06,1.062,4.942,1.062,5.344c0,2.356,0.878,4.201,1.438,6.438
	c0.491,1.964,1.587,3.174,2.5,5c0.805,1.61,0.971,4.32,1.406,6.062c0.577,2.307,0.97,4.034,1.812,5.719
	c0.88,1.76,1.316,2.797,1.781,4.656c0.501,2.005,1.229,4.024,2.5,5.719c1.328,1.77,2.3,4.379,3.562,6.062
	c0.972,1.296,1.154,4.464,1.781,5.719c0.844,1.688,1.87,4.052,2.875,6.062c0.891,1.782,1.024,4.871,1.406,6.781
	c0.312,1.561,0.001,3.619-0.344,5c0.472,2.359-2.875,3.551-2.875,5.719c0,1.611,4.285,1.781,5.375,1.781c2.276,0,3.44,2.095,5,2.875
	c1.993,0.997,2.97,0.813,4.281,2.125c0.908,0.908,2.377,1.658,3.219,2.5c1.571,1.571,0.001,3.153-0.375,4.656
	c-0.509,2.035,0.807,4.457,1.438,5.719c0.792,1.583,2.16,3.265,2.5,4.625c0.499,1.995,0.628,3.637,1.062,5.375
	c0.499,1.994,0,4.693,0,6.781c0,1.45-1.522,3.794-2.125,5c-0.88,1.761-0.791,4.051-1.438,5.344c-0.248,0.495-0.293,1.19-0.438,1.906
	c-0.208,1.033-0.469,2.127-0.625,2.75c-0.423,1.692,0.026,3.741-0.375,5.344c-0.401,1.603-1.735,2.379-2.125,3.938
	c-0.438,1.75,0,4.255,0,6.062c0,1.02,3.608,2.539,4.281,2.875c1.465,0.732,3.966,0.344,5.719,0.344c2.004,0,2.833-0.344,4.625-0.344
	l10,2.844l13.938,3.938l8.219,6.062l5.344,11.062l1.812,14.312l7.844-3.219l7.156,0.344l6.062,2.156l-0.375,22.5l-8.562,3.906
	l-4.625,7.875l0.688,10.344l4.969,19.906l0.031,0.094l-2.5,0.375L125.004,380l-3.938,3.219l-6.438-0.375l-5.344-0.344l-6.062,0.344
	l-7.156,0.719h-6.062l-5.719-3.906l-5.344-2.5L60.723,375l23.906,49.656l3.219-3.594l6.781,5.719l6.438,0.375l7.156,6.781
	l3.219,0.719l4.281-0.719l2.5-2.875l1.406-0.719l11.344,4.531l10.094,4.062l5.375,1.062c0,0,4.621,0.014,6.406-0.344
	s38.594-8.219,38.594-8.219l-0.031,0.094l-9.281,44.188l12.875,13.562l1.438,1.781v2.875c0,0,21.415,5.344,22.844,5.344
	s7.152-1.42,8.937-1.062c1.786,0.357,5.719-2.156,5.719-2.156l2.5-4.281l2.125-0.719c0,0,2.51,1.085,3.938,2.156
	c1.43,1.071,3.938,1.438,3.938,1.438l2.844-0.375l2.844-2.844l1.438-1.781l2.875-0.375l3.594,0.344l0.312,0.031
	c0,0,3.572-1.094,5-1.094c1.43,0,2.871-0.335,4.656-1.406c1.786-1.071,4.281-2.5,4.281-2.5l16.438,18.188l8.219,4.656l4.625,0.719
	l3.938,1.438l5,3.562l6.781,5.719c0,0,4.277,2.13,7,2.219c2.258,0.074,3.5,0.094,3.5,0.094l9.188-0.219l11.531-2.188l0.312-2.156
	l-3.844-2.938l0.25-5.031l6.344-9.938l19.562-22.812l15.125-16.281l0.156-0.938l1.531-9.719l4.469-16l9.656-24.094l1.969-3.594
	L419.941,410l4.688,0.5l5.156-1.344l3.125-4.125c0,0,1.865-4.5,2-4.812c0.134-0.312,1.469-6.969,1.469-6.969l0.594-9.219
	l-1.219-4.469l-3.062-5.156l-4.75-5.625l-4.469-3.281l-4.626-3l-2.688-1.844l-1.875,4.781l-2.312,3.312l-3.406,3.844l-2.75,2.688
	l-2.062,1.062l-7.562-0.812l-2.656-1.344c0,0-2.508-1.33-2.688-1.375c-0.178-0.045-4.469-1.281-4.469-1.281s-4.995,0-5.219,0
	c-0.223,0-4.906,0.312-4.906,0.312s-2.361,1.281-3.031,1.281c-0.669,0-3.664,0.089-3.844,0c-0.178-0.089-2.312-1.469-2.312-1.469
	l-2.344-4.688l-1.219-6.781l-0.062-0.375l-3.25-3.531l-2.25-2.125c0,0-1.214-2.505-1.125-2.906c0.09-0.401,1.031-2.594,1.031-2.594
	l2.906-2.219c0,0,2.76-1.88,2.938-1.969c0.18-0.089,4.25-3.812,4.25-3.812l2.781-3.375l2.219-0.75l2.688,0.062
	c0,0,2.938,1.08,3.25,1.125s3.742,0.281,4.188,0.281c0.447,0,5.5-0.188,5.5-0.188l11.562-6.781L408.16,330l7.656-1.375l5.532-1.562
	l0.75-0.281l0.812-0.344l3.656-2.25l-3.875-7.344l0.344-3.375l4.656,0.469l4.094,1.094l-2.094-6.688l-0.219-4.469l2.719-5.312
	l2.531-3.906v-2.438l-6.5-2.969l-3.844-3.938l-0.5-3.938l-0.219-11.562l-1.656-4.312l-3.22-3.625l-1.875-2.531l-0.156-7.969
	l-5.812-2.75l-4.875-2.719l-2.094-1.219l-2.938-2.188l3.781-10.125l-0.125-4.562l-12.094-3.219l-6.75,0.812l-5.969,0.719
	l-9.594,2.969l-7.438,4.188l-6.312,3.531l-6.438-0.125l-2.031-0.25l-0.875-0.125l-14.031-13.781l-19.938,2.031l-13.406-1.281
	l-12.5-5.938l-4.406-4.219l-5.812-5.625l-2.656-6.938l-4.281-4.531l-8.344-2.406l8.219-9.719l-0.5-3.031l-3.156-6.969l-4.438-10.469
	l-7.438-28.906L247.066,121l-7.844-8.688l15.531-3.281l12.5-6.188l11.375-5.688l5.281-0.75l4.688,1.625c0,0,3.656,4.808,3.781,5.312
	c0.127,0.505,7.062,16.281,7.062,16.281l16.438,5.812l10.094,0.5l9.094-2.906l20.188-14.406l1.906-9.344l-1.531-3.156l-4.406-4.406
	l-3.906-3.906l-6.062-2.531l-0.625-12.625l-2.656-5.438l-2.281-1.875l-3.031-2.281l-2.156-1.406V50.562l-1-5.688l-2.531-5.938
	l-4.156-5.812l-6.938-3.531l-4.062-0.75l-4.031-4.188l-3.906-2.875L299.973,20.75z"/>
<path id="path2262" fill="#888888" stroke="#FFFFFF" stroke-width="1.5" d="M132.098,373.469l3.625,2.25l6.406,0.344l5.375-3.562
	l10-7.844l4.625-0.375l5-0.344l4.656-1.094l2.844-2.125l7.5-3.219l13.219-3.562l3.219-3.938l7.5-2.156l0.719-8.188l-2.844-6.094
	c0,0-2.5-12.839-2.5-14.625c0-0.893,0.527-2.688,1.062-4.25s1.062-2.906,1.062-2.906l11.438-3.219l-1.062-3.219l-2.875-5
	L215.723,290l0.719-6.438l-4.312-6.406l0.062-0.094l-3.625-2.781l-12.844-3.938l-9.281-2.844l-5-0.719l-7.5-0.344l-3.594-2.5
	l-7.5-7.875l-0.719,5.719l-1.062,3.562l-3.219,3.219h-3.219l-1.781-2.125l-0.344-2.156l-24.656,0.375l-18.906,4.281l-40.812-18.469
	c-0.208,1.033-0.469,2.127-0.625,2.75c-0.423,1.692,0.026,3.741-0.375,5.344c-0.401,1.603-1.735,2.379-2.125,3.938
	c-0.438,1.75,0,4.255,0,6.062c0,1.02,3.608,2.539,4.281,2.875c1.465,0.732,3.966,0.344,5.719,0.344c2.004,0,2.833-0.344,4.625-0.344
	l10,2.844l13.938,3.938l8.219,6.062l5.344,11.062l1.812,14.312l7.844-3.219l7.156,0.344l6.062,2.156l-0.375,22.5l-8.562,3.906
	l-4.625,7.875l0.688,10.344L132.098,373.469z"/>
<path id="path2272" fill="#888888" stroke="#FFFFFF" stroke-width="1.5" d="M130.973,434.875l0.094-0.219l11.062-10l-0.344-8.938
	l8.562-5.375l1.438-2.844l-3.219-6.438l0.375-1.406l5.688,1.406l7.875-2.5l5.719-8.562l2.125,0.719l11.781-14.281l7.5-6.438
	l6.812-1.781l-0.625-14.844l-0.469,0.562l-13.219,3.562l-7.5,3.219l-2.844,2.125l-4.656,1.094l-5,0.344l-4.625,0.375l-10,7.844
	l-5.375,3.562l-6.406-0.344l-3.625-2.25l0.031,0.094l-2.5,0.375L125.004,380l-3.938,3.219l-6.438-0.375l-5.344-0.344l-6.062,0.344
	l-7.156,0.719h-6.062l-5.719-3.906l-5.344-2.5L60.723,375l23.906,49.656l3.219-3.594l6.781,5.719l6.438,0.375l7.156,6.781
	l3.219,0.719l4.281-0.719l2.5-2.875l1.406-0.719L130.973,434.875z"/>
<path id="path2277" fill="#888888" stroke="#FFFFFF" stroke-width="1.5" d="M191.442,431.438l1.062-15.375l5.344-12.844l8.219-9.656
	l8.562-4.625l-3.188-0.719l-5-3.938l-5-3.938l-6.438-2.5l0.719-4.281l-2.875-3.906l-0.125-0.469L189.629,370l-7.5,6.438
	l-11.781,14.281L168.223,390l-5.719,8.562l-7.875,2.5l-5.688-1.406l-0.375,1.406l3.219,6.438l-1.438,2.844l-8.562,5.375l0.344,8.938
	l-11.062,10l-0.094,0.219l10.094,4.062l5.375,1.062c0,0,4.621,0.014,6.406-0.344S191.442,431.438,191.442,431.438z"/>
<path id="path2282" fill="#888888" stroke="#FFFFFF" stroke-width="1.5" d="M236.16,440.469l-8.656-5.125h-18.938l-17.156-3.812
	l-9.281,44.188l12.875,13.562l1.438,1.781v2.875c0,0,21.415,5.344,22.844,5.344s7.152-1.42,8.937-1.062
	c1.786,0.357,5.719-2.156,5.719-2.156l2.5-4.281l2.125-0.719c0,0,2.51,1.085,3.938,2.156c1.43,1.071,3.938,1.438,3.938,1.438
	l2.844-0.375l2.844-2.844l1.438-1.781l2.875-0.375l3.594,0.344l-6.094-19.969l-5.375-1.812v-6.406l-7.5-9.656l0.375-4.281
	L236.16,440.469z"/>
<path id="path2287" fill="#888888" stroke="#FFFFFF" stroke-width="1.5" d="M230.379,409.062l-0.375-0.125l-15-20l-0.594,0.125
	l-8.344,4.5l-8.219,9.656l-5.344,12.844l-1.062,15.375l-0.031,0.094l17.156,3.812h18.938l8.656,5.125l-0.094-0.125l2.156-9.281
	l-5.719-8.219L230.379,409.062z"/>
<path id="path2299" fill="#888888" stroke="#FFFFFF" stroke-width="1.5" d="M232.41,369.781l-4.906,2l-13.562,0.719l-12.156-5
	l0.719-8.219l-6.438-1.062h-0.031l0.406,10l-3.719,0.969l0.125,0.469l2.875,3.906l-0.719,4.281l6.438,2.5l5,3.938l5,3.938
	l3.188,0.719l-0.219,0.125l0.594-0.125l15,20l0.375,0.125l-0.031-0.125l9.656-3.594l3.219-8.188l6.406-2.5l2.5-3.219l-0.344-1.781
	l-2.844-4.312l-6.812-7.125L232.41,369.781z"/>
<path id="path2304" fill="#888888" stroke="#FFFFFF" stroke-width="1.5" d="M234.816,343.594l-12.687-6.438l-12.844-3.594l-5,0.719
	l2.5,5.375l-0.719,8.188l-7.5,2.156l-2.75,3.375l0.219,4.844h0.031l6.438,1.062l-0.719,8.219l12.156,5l13.562-0.719l4.906-2
	l-3.469-3v-8.562l3.188-9.281L234.816,343.594z"/>
<path id="path2292" fill="#888888" stroke="#FFFFFF" stroke-width="1.5" d="M214.786,307.875l0.219,0.688l-11.438,3.219
	c0,0-0.527,1.344-1.062,2.906s-1.062,3.357-1.062,4.25c0,1.786,2.5,14.625,2.5,14.625l0.344,0.719l5-0.719l12.844,3.594
	l12.687,6.438l1.625-3.25l1.781-6.406l-1.781-4.656l-0.719-16.844L214.786,307.875z"/>
<path id="path2267" fill="#888888" stroke="#FFFFFF" stroke-width="1.5" d="M214.786,307.875l20.937,4.562v-0.281l8.219-38.594
	l-0.219-0.625l-0.156,0.625l-2.844-3.219l-4.656,0.719l-6.781-1.406l-5.343,2.5l-6.438,1.062l-4.281,4.625l-1.031-0.781
	l-0.062,0.094l4.312,6.406L215.723,290l-4.656,10.344l2.875,5L214.786,307.875z"/>
<path id="path2309" fill="#888888" stroke="#FFFFFF" stroke-width="1.5" d="M252.004,390.75l0.125-0.031l17.156-26.781l1.781-7.875
	l-6.438-2.844l-30-1.781l-3.562,1.781l-0.469,0.156l-1.656,4.844v8.562l13.188,11.438l6.812,7.125l2.844,4.312L252.004,390.75z"/>
<path id="path2319" fill="#888888" stroke="#FFFFFF" stroke-width="1.5" d="M236.223,324.062l0.219,5.219l1.781,4.656l-1.781,6.406
	l-4.312,8.594l-1.531,4.438l0.469-0.156l3.562-1.781l30,1.781l6.438,2.844l-0.312,1.438h0.312l0.375-7.156l-1.812-11.062l3.219-10
	l-1.344-10.969l-20.781,9.531L236.223,324.062z"/>
<path id="path2314" fill="#888888" stroke="#FFFFFF" stroke-width="1.5" d="M236.223,324.062l14.5,3.781l20.781-9.531l-0.062-0.469
	l-2.156-10.688v-15l-5-8.938L260.348,265l1.781-7.781l-14.625,2.062l-3.781,13.656l0.219,0.625l-8.219,38.594L236.223,324.062z"/>
<path id="path2324" fill="#888888" stroke="#FFFFFF" stroke-width="1.5" d="M388.41,458.75l-14.125-5.188l-17.5-12.5l-6.438-0.719
	l-15.344-11.406l0.719-8.219l1.781-3.562l-3.562-1.094l-0.375-4.625l-23.562-8.938l-4.656,12.5l-33.219,7.156l-4.281,6.781
	l-7.5,8.562l-11.781,3.562l-12.219-0.344l5.094,6.781l-0.375,4.281l7.5,9.656v6.406l5.375,1.812l6.094,19.969l0.312,0.031
	c0,0,3.572-1.094,5-1.094c1.43,0,2.871-0.335,4.656-1.406c1.786-1.071,4.281-2.5,4.281-2.5l16.438,18.188l8.219,4.656l4.625,0.719
	l3.938,1.438l5,3.562l6.781,5.719c0,0,4.277,2.13,7,2.219c2.258,0.074,3.5,0.094,3.5,0.094l9.188-0.219l11.531-2.188l0.312-2.156
	l-3.844-2.938l0.25-5.031l6.344-9.938l19.562-22.812l15.125-16.281L388.41,458.75z"/>
<path id="path2329" fill="#888888" stroke="#FFFFFF" stroke-width="1.5" d="M310.285,402.594l-0.281-0.438l-14.656-5.375
	l-10.344-5.344l-6.062-9.656l-4.312-4.281l-3.906-1.781l-8.188-1.219l-10.406,16.219l-0.125,0.031l0.125,0.688l-2.5,3.219
	l-6.406,2.5l-3.219,8.188l-9.656,3.594l2.156,13.906l5.719,8.219l-2.156,9.281l0.281,0.375l12.219,0.344l11.781-3.562l7.5-8.562
	l4.281-6.781L305.348,415l4.656-12.5L310.285,402.594z"/>
<path id="path2334" fill="#888888" stroke="#FFFFFF" stroke-width="1.5" d="M303.223,399.656l13.562-32.5l-6.062-2.5h-19.656
	l-9.281-1.094l-2.5-1.406l-0.719-3.219l-7.438-2.719l-0.062,1.281h-0.312l-1.469,6.438l-6.75,10.562l8.188,1.219l3.906,1.781
	l4.312,4.281l6.062,9.656l10.344,5.344L303.223,399.656z"/>
<path id="path2339" fill="#888888" stroke="#FFFFFF" stroke-width="1.5" d="M316.129,366.906l-17.562-35.844l0.719-1.781
	l1.781-1.438l-0.719-2.125l-7.125-6.438l-13.219-22.844l-8.219-7.875l-1.781-18.219l1.438-5.344l5-3.938
	c0,0-11.134-3.116-13.875-4.062l-0.062,0.156l-0.375,0.062L260.348,265l3.938,18.219l5,8.938v15l2.156,10.688l1.406,11.438
	l-3.219,10l1.812,11.062l-0.312,5.875l7.438,2.719l0.719,3.219l2.5,1.406l9.281,1.094h19.656L316.129,366.906z"/>
<path id="path2344" fill="#888888" stroke="#FFFFFF" stroke-width="1.5" d="M348.066,236.438l-0.219,2.5l1.438,2.844l2.156,3.562
	v2.156l-3.594,4.281l-12.844,5.375l-3.562,4.625l-1.812,6.062l-10.344,5.719l-2.5,3.219l1.438,3.938l-0.719,3.938l-3.219-1.094
	l1.438,3.219l8.562,14.656l11.062,6.406l4.281,1.812l0.375,5.688l39.281,3.594l28.562,3.906l14.251,3.938l0.812-0.344l3.656-2.25
	l-3.875-7.344l0.344-3.375l4.656,0.469l4.094,1.094l-2.094-6.688l-0.219-4.469l2.719-5.312l2.531-3.906v-2.438l-6.5-2.969
	l-3.844-3.938l-0.5-3.938l-0.219-11.562l-1.656-4.312l-3.22-3.625l-1.875-2.531l-0.156-7.969l-5.812-2.75l-4.875-2.719l-2.094-1.219
	l-2.938-2.188l3.781-10.125l-0.125-4.562l-12.094-3.219l-6.75,0.812l-5.969,0.719l-9.594,2.969l-7.438,4.188l-6.312,3.531
	l-6.438-0.125L348.066,236.438z"/>
<path id="path2354" fill="#888888" stroke="#FFFFFF" stroke-width="1.5" d="M363.504,360.188L351.441,380l-22.875-11.438
	l-0.344-6.062l-11.625,4.594l0.188,0.062l-13.562,32.5l6.781,2.5l0.281,0.438l23.281,8.844l0.375,4.625l3.562,1.094l-1.781,3.562
	l-0.719,8.219l15.344,11.406l6.438,0.719l17.5,12.5l14.125,5.188l1.531-9.719l4.469-16l9.656-24.094l1.969-3.594L419.941,410
	l4.688,0.5l5.156-1.344l3.125-4.125c0,0,1.865-4.5,2-4.812c0.134-0.312,1.469-6.969,1.469-6.969l0.594-9.219l-1.219-4.469
	l-3.062-5.156l-4.75-5.625l-4.469-3.281l-4.626-3l-2.688-1.844l-1.875,4.781l-2.312,3.312l-3.406,3.844l-2.75,2.688l-2.062,1.062
	l-7.562-0.812l-2.656-1.344c0,0-2.508-1.33-2.688-1.375c-0.178-0.045-4.469-1.281-4.469-1.281s-4.995,0-5.219,0
	c-0.223,0-4.906,0.312-4.906,0.312s-2.361,1.281-3.031,1.281c-0.669,0-3.664,0.089-3.844,0c-0.178-0.089-2.312-1.469-2.312-1.469
	l-2.344-4.688L363.504,360.188z"/>
<path id="path2349" fill="#888888" stroke="#FFFFFF" stroke-width="1.5" d="M289.535,312.875l3.688,6.406l7.125,6.438l0.719,2.125
	l-1.781,1.438l-0.719,1.781l17.562,35.844l0.469,0.188l11.625-4.594l0.344,6.062L351.441,380l12.062-19.812l-0.062-0.375
	l-3.25-3.531l-2.25-2.125c0,0-1.214-2.505-1.125-2.906c0.09-0.401,1.031-2.594,1.031-2.594l2.906-2.219c0,0,2.76-1.88,2.938-1.969
	c0.18-0.089,4.25-3.812,4.25-3.812l2.781-3.375l2.219-0.75l2.688,0.062c0,0,2.938,1.08,3.25,1.125s3.742,0.281,4.188,0.281
	c0.447,0,5.5-0.188,5.5-0.188l11.562-6.781L408.16,330l7.656-1.375l5.532-1.562l0.75-0.281l-14.251-3.938l-28.562-3.906
	l-39.281-3.594L289.535,312.875z"/>
<path id="path2239" fill="#888888" stroke="#FFFFFF" stroke-width="1.5" d="M289.535,312.875l50.469,2.469l-0.375-5.688
	l-4.281-1.812l-11.062-6.406l-8.562-14.656l-1.438-3.219l3.219,1.094l0.719-3.938l-1.438-3.938l2.5-3.219l10.344-5.719l1.812-6.062
	l3.562-4.625l12.844-5.375l3.594-4.281v-2.156l-2.156-3.562l-1.438-2.844l0.219-2.5l-0.875-0.125l-14.031-13.781l-19.938,2.031
	l-13.406-1.281l-12.5-5.938l-4.406-4.219l0.656,8.312L280.723,230l-3.594,5.719l-8.188,5l-2.875,5l-3.5,11.281
	c2.741,0.947,13.875,4.062,13.875,4.062l-5,3.938l-1.438,5.344l1.781,18.219l8.219,7.875L289.535,312.875z"/>
<path id="path2234" fill="#888888" stroke="#FFFFFF" stroke-width="1.5" d="M68.129,250.469l40.812,18.469l18.906-4.281
	l24.656-0.375l0.344,2.156l1.781,2.125h3.219l3.219-3.219l1.062-3.562l0.719-5.719l7.5,7.875l3.594,2.5l7.5,0.344l5,0.719
	l9.281,2.844l12.844,3.938l4.656,3.562l4.281-4.625l6.438-1.062l5.343-2.5l6.781,1.406l4.656-0.719l2.844,3.219l3.938-14.281
	l15-2.125l3.562-11.438l2.875-5l8.188-5l3.594-5.719l2.844-8.562l-0.656-8.312l-5.812-5.625l-2.656-6.938l-4.281-4.531l-8.344-2.406
	l8.219-9.719l-0.5-3.031l-3.156-6.969l-4.438-10.469l-7.438-28.906L247.066,121l-7.844-8.688l15.531-3.281l12.5-6.188l11.375-5.688
	l5.281-0.75l4.688,1.625c0,0,3.656,4.808,3.781,5.312c0.127,0.505,7.062,16.281,7.062,16.281l16.438,5.812l10.094,0.5l9.094-2.906
	l20.188-14.406l1.906-9.344l-1.531-3.156l-4.406-4.406l-3.906-3.906l-6.062-2.531l-0.625-12.625l-2.656-5.438l-2.281-1.875
	l-3.031-2.281l-2.156-1.406V50.562l-1-5.688l-2.531-5.938l-4.156-5.812l-6.938-3.531l-4.062-0.75l-4.031-4.188l-3.906-2.875
	l-3.906-1.031l-4.812,0.906l-4.531,4.406l-3.312,7.188l-2.5,17.312l-1.781,3.406l-1.906,2.281L277.223,58l-6.312,3.406l-6.812,4.312
	L258.16,71c0,0-2.527,3.927-2.906,4.938s-2.156,5.438-2.156,5.438s-0.996,4.648-1.375,5.406s-2.656,5.562-2.656,5.562l-5.188,5.688
	l-2.875,2.281l-6.469,5.156l-19.812-0.25l-9.219-4.156l-8.188-0.5l-6.469-7.188l-12.25-7.719l-14.5-7.062l-15.781-6.562
	l-4.812,1.625l-7.938,0.625l-12.25-0.375l-1.156-0.875l2.656-7.688l-5.312-3.938l-4.406-3.531l-4.531,0.25l0.75,3.781l5.812,10
	l-5.438,4.531l-8.969,1.906l-16.156,0.125l-9.219,3.906l-1.531-1.625l-7.688-0.156l-15.031,6.062l-8.969-7.062l-3.406-1.5
	l-1.781,1.562c0.385,2.307-4.807,0.578-6.812,1.781c-1.531,0.919-2.451,2.451-3.562,3.562c-1.367,1.367-3.954,2.896-5.344,3.938
	c-1.414,1.06-0.604,4.083-0.375,5c0.505,2.021-0.416,3.79-0.719,5c-0.338,1.354-2.35,2.306-2.844,4.281
	c-0.368,1.473-2.907,3.282-3.562,3.938c-0.858,0.858,0.719,4.623,0.719,5.688c0,1.552,0.298,4.163,0.688,5.719
	c0.332,1.328,3.2,2.303,3.594,2.5c0.361,0.181-1.006,3.363-0.719,3.938c0.35,0.7,4.477,0.889,5.344,1.062
	c1.514,0.303,4.152,0.948,5.375,1.438c0.15,0.06,1.062,4.942,1.062,5.344c0,2.356,0.878,4.201,1.438,6.438
	c0.491,1.964,1.587,3.174,2.5,5c0.805,1.61,0.971,4.32,1.406,6.062c0.577,2.307,0.97,4.034,1.812,5.719
	c0.88,1.76,1.316,2.797,1.781,4.656c0.501,2.005,1.229,4.024,2.5,5.719c1.328,1.77,2.3,4.379,3.562,6.062
	c0.972,1.296,1.154,4.464,1.781,5.719c0.844,1.688,1.87,4.052,2.875,6.062c0.891,1.782,1.024,4.871,1.406,6.781
	c0.312,1.561,0.001,3.619-0.344,5c0.472,2.359-2.875,3.551-2.875,5.719c0,1.611,4.285,1.781,5.375,1.781c2.276,0,3.44,2.095,5,2.875
	c1.993,0.997,2.97,0.813,4.281,2.125c0.908,0.908,2.377,1.658,3.219,2.5c1.571,1.571,0.001,3.153-0.375,4.656
	c-0.509,2.035,0.807,4.457,1.438,5.719c0.792,1.583,2.16,3.265,2.5,4.625c0.499,1.995,0.628,3.637,1.062,5.375
	c0.499,1.994,0,4.693,0,6.781c0,1.45-1.522,3.794-2.125,5c-0.88,1.761-0.791,4.051-1.438,5.344
	C68.319,249.057,68.274,249.752,68.129,250.469z"/>
</svg>
