<?xml version="1.0" standalone="no"?>
<!DOCTYPE svg PUBLIC "-//W3C//DTD SVG 1.1//EN" "http://www.w3.org/Graphics/SVG/1.1/DTD/svg11.dtd" >
<svg xmlns="http://www.w3.org/2000/svg" xmlns:xlink="http://www.w3.org/1999/xlink" version="1.1">
<metadata></metadata>
<defs>
<font id="all_things_pinkmedium" horiz-adv-x="1011" >
<font-face units-per-em="2048" ascent="1638" descent="-410" />
<missing-glyph horiz-adv-x="614" />
<glyph horiz-adv-x="0" />
<glyph unicode="&#xd;" horiz-adv-x="681" />
<glyph unicode=" "  horiz-adv-x="614" />
<glyph unicode="&#x09;" horiz-adv-x="614" />
<glyph unicode="&#xa0;" horiz-adv-x="614" />
<glyph unicode="!" horiz-adv-x="327" d="M63 887q0 90 7.5 306t7.5 259q0 25 18.5 42t44 17t43 -18t17.5 -45q-2 -47 -8.5 -260t-6.5 -300t11.5 -241.5t35.5 -277.5q6 -25 -8 -46.5t-38.5 -26.5t-46 9t-25.5 39q-29 127 -40.5 290t-11.5 253zM133 88q0 25 18.5 43.5t43 18.5t43 -18.5t18.5 -43.5t-18.5 -43 t-43 -18t-43 18t-18.5 43z" />
<glyph unicode="&#x22;" horiz-adv-x="499" d="M31 1413q0 25 18.5 43.5t43 18.5t43 -18.5t18.5 -43.5q0 -201 10 -315q2 -27 -14.5 -46.5t-42 -21.5t-45 14.5t-21.5 40.5q-10 121 -10 328zM281 1393q-2 25 14 44t41.5 21t45 -14t21.5 -43q2 -29 9.5 -161t15.5 -204q2 -27 -13.5 -46t-41 -22t-45 12t-23.5 40 q-8 74 -15 209t-9 164z" />
<glyph unicode="#" horiz-adv-x="1226" d="M14 371.5q-4 25.5 11.5 46t42.5 24.5q106 16 233 41l-8 267l-193 -50q-25 -6 -46 7.5t-27.5 38t7 46t38.5 27.5q111 27 217 58q-12 252 -31 528q-2 25 15.5 44t42 21.5t44 -15t21.5 -42.5q18 -260 29 -502l100 29q129 37 195 53q-4 66 -8.5 188t-6.5 156q-2 25 15.5 43.5 t43 20.5t44 -15.5t20.5 -44.5q2 -41 6 -150.5t6 -168.5l138 27q25 4 46 -11.5t25 -40t-11 -46t-40 -25.5q-72 -10 -149 -29q10 -162 28 -289l225 43q25 4 46.5 -11t25.5 -40t-11 -46.5t-40 -25.5q-117 -20 -227 -43q25 -127 61 -241q6 -25 -5 -47.5t-35.5 -29.5t-47.5 4 t-31 36q-36 121 -61 254l-162 -37l-176 -39q2 -94 2 -186q0 -25 -18.5 -43.5t-43 -18.5t-43 18.5t-18.5 43.5v159q-113 -20 -219 -39q-25 -4 -45.5 11.5t-24.5 41zM414 784q6 -139 8 -274l151 33l168 39q-18 129 -30 286l-166 -45z" />
<glyph unicode="$" horiz-adv-x="1001" d="M82 504q4 25 25.5 39t46 9t39 -26.5t8.5 -46.5q-25 -123 48 -219t202 -139q127 -41 230 -9.5t132 121.5q37 111 -25.5 206.5t-212.5 203.5l-131 90q-88 59 -129 90q-147 111 -172 205q-29 111 70 201q82 74 203 86q135 14 245.5 -63.5t141.5 -254.5q6 -25 -8.5 -45 t-40 -25t-46 9t-24.5 41q-25 125 -95.5 175t-158.5 40q-84 -8 -135 -55q-43 -39 -33 -76q14 -55 127 -139q43 -31 129 -91l129 -88l74 -57q33 -27 70.5 -62.5t64.5 -69.5t50.5 -77t33.5 -86t9 -93t-17 -101q-27 -80 -85.5 -133.5t-131 -72t-150.5 -16.5q-76 4 -151 29 q-76 25 -142 70q-68 45 -118 106.5t-70.5 146.5t-1.5 177zM438 1411q10 74 15 158q2 27 20.5 44t44 15t42.5 -20t15 -43q-4 -92 -14 -170q-4 -25 -24.5 -40.5t-45 -12t-40 23.5t-13.5 45zM465 -326q8 43 10 109q2 10 2 53q2 39 4 64t21.5 42t44 15t42 -21.5t15.5 -44.5 t-4 -63q0 -41 -2 -51q-4 -72 -10 -123q-4 -25 -24.5 -40t-46 -11t-41 24.5t-11.5 46.5z" />
<glyph unicode="%" horiz-adv-x="1290" d="M334 70q266 731 782 1388q16 18 42 21.5t45.5 -12t22 -41.5t-11.5 -46q-506 -639 -765 -1351q-8 -25 -32 -35t-47.5 -2t-33.5 31.5t-2 46.5zM356 1003.5q0 24.5 18.5 43t43 18.5t43 -18.5t18.5 -43t-18.5 -43t-43 -18.5t-43 18.5t-18.5 43zM842 208.5q0 24.5 18.5 43 t43 18.5t43 -18.5t18.5 -43t-18.5 -43t-43 -18.5t-43 18.5t-18.5 43z" />
<glyph unicode="&#x26;" horiz-adv-x="1124" d="M73.5 216.5q10.5 64.5 41.5 135.5q59 143 174 279q-39 2 -72 14q-129 45 -125 199q4 121 91 261t198 222q135 100 242 64q123 -47 139 -261q2 -25 -14.5 -44t-42 -21t-45 14.5t-21.5 42.5q-10 133 -59 152q-43 16 -127 -45q-92 -68 -164 -184.5t-74 -204.5q-2 -63 41 -80 q53 -18 143 8q16 4 26.5 7t20.5 7l17 9q6 4 21.5 13t29.5 15l45 27q14 6 19 10q4 0 6 2q6 2 10 4h14q29 0 47 -20q25 -29 9 -66q-2 -8 -11 -16l-12 -10l-4 -5q-6 -2 -26.5 -15t-26.5 -16t-23.5 -14.5t-25.5 -15.5l-21 -16l-25 -17q-6 -4 -18 -14l-22 -19q-8 -8 -19 -18 l-20 -20q-43 -45 -96.5 -122t-86.5 -155q-74 -176 19 -229q119 -70 293 80q88 78 184 206q-41 -8 -78 -14q-25 -2 -45 13.5t-23.5 40t12 45t40.5 24.5q68 8 176 37q139 37 184 45q25 6 46.5 -8.5t26.5 -39t-9.5 -46t-38.5 -25.5q-45 -10 -113 -29q-2 -6 -6 -12 q-143 -213 -277 -330q-238 -207 -434 -94q-72 41 -96.5 113t-14 136.5z" />
<glyph unicode="'" horiz-adv-x="221" d="M25 1526q0 27 17 45t43 18t44 -17t18 -42q2 -109 3 -281q0 -25 -18.5 -43t-43.5 -18t-43 18.5t-18 42.5q0 172 -2 277z" />
<glyph unicode="(" horiz-adv-x="425" d="M18 741q0 219 44 433.5t122 373.5q10 23 35 31t47.5 -2t30.5 -34.5t-2 -47.5q-72 -147 -113 -347t-41 -405q2 -219 52.5 -405t148.5 -311q14 -20 11 -46t-22.5 -41.5t-45 -12.5t-41.5 22q-113 145 -168.5 353t-57.5 439z" />
<glyph unicode=")" horiz-adv-x="428" d="M48 -27q-7 24 3 47q109 205 159 472.5t19.5 544t-155.5 456.5q-14 20 -9 46t25.5 40t46 9t39.5 -25q106 -154 152.5 -370t34 -434t-64.5 -426t-136 -370q-12 -23 -37 -30t-47.5 4.5t-29.5 35.5z" />
<glyph unicode="*" horiz-adv-x="874" d="M42 893q7 25 30 35l229 129q-123 72 -217 139q-20 14 -24.5 40t11 46.5t41 24.5t46.5 -13q88 -63 202 -131q6 96 13 180q2 25 21.5 42.5t44 15.5t42 -21.5t15.5 -44.5q-6 -82 -11 -176l164 90q23 10 47.5 3t35.5 -29.5t4 -47t-29 -36.5l-156 -82l227 -129q23 -12 29 -38 t-6.5 -47.5t-38 -27.5t-45.5 6q-66 39 -244 137l-10 -202q-2 -25 -20.5 -42.5t-44 -15.5t-43 20.5t-15.5 45.5l10 178l-221 -121q-23 -12 -47.5 -5t-35.5 29.5t-4 47.5z" />
<glyph unicode="+" horiz-adv-x="788" d="M4 798.5q-6 24.5 6.5 47t36.5 28.5q133 37 225 58q-6 119 4 254q2 27 21.5 43t45.5 14t42 -21t14 -44q-10 -121 -6 -220q135 25 264 33q25 2 44.5 -15.5t21.5 -42t-15.5 -44t-41.5 -21.5q-127 -8 -263 -32q12 -111 46 -254q6 -25 -7.5 -46.5t-38 -27.5t-46 7t-27.5 38 q-33 145 -47 256q-84 -20 -203 -53q-25 -6 -47.5 6t-28.5 36.5z" />
<glyph unicode="," horiz-adv-x="380" d="M-66.5 -194.5q5.5 24.5 27.5 38.5q193 127 234 326q4 25 25.5 39t46 9t38.5 -26.5t8 -46.5q-49 -248 -286 -403q-20 -14 -45 -9t-39.5 26.5t-9 46z" />
<glyph unicode="-" horiz-adv-x="647" d="M-4 618.5q0 24.5 18 43t43 18.5q166 0 445 53q25 6 46 -8t26.5 -38.5t-9 -46.5t-39.5 -26q-291 -57 -469 -57q-25 0 -43 18.5t-18 43z" />
<glyph unicode="." horiz-adv-x="198" d="M4 65.5q0 24.5 18.5 43t43 18.5t43 -18.5t18.5 -43t-18.5 -43t-43 -18.5t-43 18.5t-18.5 43z" />
<glyph unicode="/" horiz-adv-x="1024" d="M-17 18.5q-3 24.5 11 44.5q41 53 108 164l109 176q102 154 309 495t324 513q14 20 39.5 25.5t46 -9t26 -40t-9.5 -46.5q-119 -172 -324.5 -513t-308.5 -494q-25 -35 -104 -170q-68 -109 -117 -174q-16 -20 -40.5 -23.5t-45 12t-23.5 40z" />
<glyph unicode="0" d="M41 645q4 260 94 477q100 242 258 305q18 6 42 11.5t49.5 8.5t27.5 3q25 6 45 -8h4q193 -55 299 -305q90 -217 86 -492q-6 -279 -108 -467q-125 -227 -344 -221q-236 6 -359 229q-98 182 -94 459zM164 643q-4 -244 80 -399q88 -160 254 -164q143 -4 231 157.5t94 409.5 q4 250 -75 443q-84 195 -220 233q-6 2 -10 4q-74 -12 -80 -14q-111 -43 -188 -238q-82 -195 -86 -432z" />
<glyph unicode="1" horiz-adv-x="626" d="M416 1391q0 25 18.5 43t43 18t43 -18t18.5 -43q0 -231 8 -692t8 -691q0 -25 -18.5 -43t-43 -18t-43 18.5t-18.5 42.5q0 229 -8 690t-8 693z" />
<glyph unicode="2" horiz-adv-x="1060" d="M90 43q-20 53 31 94q4 2 18 13l4 4q100 104 187 204q197 233 313 408q190 285 184 424q-4 104 -98 127q-100 25 -211 -33q-39 -18 -82 -53t-63 -55l-76 -74q-18 -18 -43 -18.5t-43 18t-18 43.5t18 43q2 4 22 24l25 25l25 25l28 24l25 25q18 14 30.5 23t30.5 22l33 20 q14 10 31 19q152 76 297 43q82 -20 135 -82t57 -162q6 -178 -205 -496q-121 -180 -321 -417l-145 -164q16 0 36 2q47 0 120 1t83 1h428q27 0 45.5 -17.5t18.5 -43t-17.5 -44t-42.5 -18.5h-432q-10 0 -81.5 -1t-121.5 -1q-74 -2 -116 0q-27 0 -43 2q-10 2 -18.5 4t-16.5 6 q-23 10 -31 35z" />
<glyph unicode="3" horiz-adv-x="1134" d="M99.5 301q2.5 25 23 40t45.5 12t41 -23q162 -213 366 -254q193 -37 299 90q47 57 62.5 138t-10.5 181q-29 104 -121 178t-201 82h-8q-4 0 -13.5 -2t-21.5 -2q-59 -8 -94 25q-23 20 -25 49q0 33 25 53q14 12 39 19q12 4 20.5 6t11.5 3t5 1q16 8 32.5 15.5t22.5 10.5 t15.5 9t17.5 12t24 21q127 113 107 225q-18 88 -64 123q-37 29 -96 22q-63 -6 -133 -47q-72 -41 -121 -98q-18 -18 -43.5 -20.5t-44 15t-20.5 43.5t14 44q66 72 156 124t178 62q109 10 186 -47q82 -63 107 -197q18 -98 -26 -186t-118 -154l-28 -24q119 -35 211 -124 t124 -208q33 -123 13.5 -235.5t-88.5 -196.5q-72 -84 -181 -119q-106 -37 -237 -10q-252 51 -440 299q-14 20 -11.5 45z" />
<glyph unicode="4" horiz-adv-x="1202" d="M147 666q0 96 3 260q2 84 4 179t4 173t2 92q0 25 18.5 42.5t44 17.5t43 -18.5t17.5 -45.5q0 -14 -2 -91t-4.5 -172t-4.5 -179q-2 -162 -2 -258q2 -55 4 -88v-15q29 -6 80 -12q92 -12 258 -16q98 -2 166 -5q-10 158 -19 447t-16 407q-2 27 15.5 45.5t43 20.5t44 -15.5 t20.5 -41.5q6 -127 15.5 -418t19.5 -445h105h63q25 0 43 -18t18 -43t-18 -43t-43 -18h-61h-97q18 -203 50 -375q4 -25 -10.5 -45.5t-40 -25.5t-46 9.5t-26.5 40.5q-31 178 -50 396q-98 0 -180 4q-170 4 -268 16q-61 6 -98 16q-23 8 -39 17q-31 16 -41 43q-8 18 -10 65 q-2 37 -5 97z" />
<glyph unicode="5" horiz-adv-x="1060" d="M6.5 167q-2.5 26 14 45t42 21.5t46.5 -14.5q135 -117 325 -131q272 -20 381 162q49 82 54 196.5t-38 249.5q-53 154 -168.5 238t-256.5 49q-20 -6 -34 -9t-23 -6t-21 -10l-19 -8q-6 -4 -26.5 -15t-32.5 -17l-2 -5l-4 -2l-8 -6q-4 -6 -13 -12q-57 -49 -108 -14 q-25 16 -31 47q-2 12 -2 26q0 20 4 56q8 61 26.5 145t39.5 145q10 35 18 58q16 37 37 51l24 10q6 0 11 2h22q23 2 64 4q66 2 186 2q303 4 307 5q25 2 43.5 -15.5t20.5 -43t-15.5 -44t-44.5 -20.5q-4 0 -311 -4q-119 0 -182 -3q-33 -2 -51 -2q-6 -14 -13 -34 q-18 -55 -35 -138l-18 -88q37 18 51.5 26.5t42 18t68.5 19.5q104 25 195.5 4t165 -76t127 -131t81.5 -166q51 -147 45 -291.5t-71 -255.5q-70 -117 -197 -175t-297 -46q-231 16 -399 160q-18 16 -20.5 42z" />
<glyph unicode="6" horiz-adv-x="1017" d="M55 592q8 158 50 317.5t102 280.5q125 254 285 291q184 41 350 -205q14 -23 9 -47.5t-26.5 -38.5t-46.5 -9t-39 25q-119 178 -221 154q-102 -23 -201 -223q-53 -111 -92 -258q-41 -143 -47 -293q-8 -160 25 -277q45 150 94 238q70 125 135 184q166 156 338 103 q94 -31 143.5 -101.5t53.5 -165.5q10 -166 -97 -348q-109 -182 -264 -256q-190 -90 -350 41q-221 180 -201 588zM285 147q23 -27 49 -49q100 -80 221 -24q121 57 209 209q88 150 82 278q-8 121 -113 154q-59 18 -109.5 -0.5t-109.5 -73.5q-49 -47 -111 -156 q-47 -84 -112 -321q-2 -9 -6 -17z" />
<glyph unicode="7" horiz-adv-x="919" d="M51 1372.5q0 24.5 19.5 42t44.5 17.5q41 -2 387 8q139 4 198 4q43 0 68 -4q16 0 29 -4q10 -4 18 -9q23 -14 30 -38.5t-1 -61.5q-6 -23 -17 -55q-20 -53 -57 -135l-65 -133q-39 -80 -39 -82q-231 -494 -310 -904q-4 -27 -24.5 -41t-46 -9t-40 25.5t-7.5 45.5 q78 428 317 936l39 78q39 80 63 135q37 78 54 125l4 8h-17q-53 0 -192 -4q-350 -10 -395 -8q-25 0 -42.5 19.5t-17.5 44z" />
<glyph unicode="8" horiz-adv-x="913" d="M55 326q-6 168 127 385q66 106 164 221q-121 123 -151 225q-29 100 47 189q63 70 170 100q72 16 142.5 14t142 -42t116.5 -113q10 -17 10 -35q16 -43 -20 -72q-145 -115 -287 -260l25 -25q70 -66 112.5 -110.5t93 -121.5t74.5 -153q63 -213 -16 -370q-90 -178 -320 -191 q-37 -2 -61 -2q-29 0 -62.5 7.5t-68.5 25.5q-227 113 -238 328zM178 332q8 -143 168 -223q33 -16 60.5 -19.5t74.5 0.5q156 8 215 123q57 113 6 279q-27 88 -86 163.5t-159 169.5l-23 21q-86 -102 -147 -201q-115 -184 -109 -313zM313 1194q21 -74 115 -170q129 135 262 242 q-45 51 -113.5 66.5t-132.5 -5.5q-72 -20 -110 -63q-31 -37 -21 -70z" />
<glyph unicode="9" horiz-adv-x="909" d="M68.5 895q29.5 141 106.5 262t177 193q100 74 223 86q172 18 238 -111q14 -31 23 -76q0 -2 3 -23.5t5 -31.5t2 -18q4 -6 6 -13q8 -20 10 -53q6 -47 4 -133q0 -41 -2 -90t-4 -90t-2 -45q-14 -389 -6 -736q0 -27 -17.5 -45t-43 -18t-44 17.5t-18.5 41.5q-8 352 6 744 q0 6 2 36t2 48q-76 -199 -166 -287q-113 -111 -258 -98q-72 6 -131 48t-92 118q-53 133 -23.5 274zM207 670q35 -86 121 -92q88 -8 159 61q20 20 40 48t32 49.5t29.5 61.5t25.5 58l25 70q18 49 25 63l4 15q4 12 12 34.5t12 40.5l23 64l6 20l2 6q-2 12 -5 35t-3 25 q-6 27 -13 39q-27 55 -114 45q-90 -8 -162 -62q-133 -96 -204.5 -271t-14.5 -310z" />
<glyph unicode=":" horiz-adv-x="329" d="M117 176.5q0 24.5 18.5 43t43 18.5t43 -18.5t18.5 -43t-18.5 -43t-43 -18.5t-43 18.5t-18.5 43zM135 884.5q0 24.5 18.5 43t43 18.5t43 -18.5t18.5 -43t-18.5 -43t-43 -18.5t-43 18.5t-18.5 43z" />
<glyph unicode=";" horiz-adv-x="253" d="M-97 -133.5q5 24.5 25 39.5q61 41 85 77.5t26 100.5q0 25 19.5 42t44 17t42 -19t17.5 -44q-2 -96 -42 -158.5t-122 -118.5q-23 -14 -47.5 -9t-38.5 26.5t-9 46zM66 874.5q0 24.5 18 43t43 18.5t43 -18.5t18 -43t-18 -43t-43 -18.5t-43 18.5t-18 43z" />
<glyph unicode="&#x3c;" horiz-adv-x="724" d="M-8 453q-2 25 10 45q4 6 10 12t17 14q18 14 49 41l151 113q242 180 306 237q18 18 43.5 16.5t43 -20t15 -44.5t-20.5 -42q-61 -57 -313 -245l-149 -113l-23 -18q14 -14 37 -33q55 -45 156 -103q59 -37 299 -159q23 -12 29.5 -37t-4.5 -47.5t-35.5 -29.5t-47.5 3 q-242 127 -305 164q-106 63 -170 112q-39 31 -61 60q-33 37 -37 74z" />
<glyph unicode="=" horiz-adv-x="737" d="M10 657.5q0 24.5 18.5 43t43.5 18.5q35 0 74.5 1t88 2t72.5 1q145 2 244 -4q27 -2 43 -21.5t14 -45t-21.5 -42t-43.5 -14.5q-92 6 -232 4l-239 -4q-25 0 -43.5 18.5t-18.5 43zM43 900q2 26 20 43t43 15q74 -4 244 5q188 8 254 8q25 0 43.5 -18.5t18.5 -43t-18.5 -43 t-43.5 -18.5q-63 0 -248 -8q-172 -8 -254 -4q-27 2 -44 20t-15 44z" />
<glyph unicode="&#x3e;" horiz-adv-x="729" d="M-1 122q3 26 21 42q55 43 326 227l154 105l24 18q-14 16 -37 35q-53 47 -149 108q-51 35 -113 72l-114 68q-51 31 -66 37q-20 14 -26.5 38.5t7 46t38 27.5t47.5 -6q12 -8 65 -39l115 -70l115 -69q104 -70 163 -121q88 -78 93 -139q0 -12 -3.5 -22.5t-7.5 -16.5l-4 -4 q-4 -6 -10 -12.5t-16 -14.5l-50 -37l-155 -106q-268 -184 -318 -223q-20 -14 -45.5 -11.5t-41 22t-12.5 45.5zM539 524l6 6l6 2l-6 7q-4 2 -6 -7v-8z" />
<glyph unicode="?" horiz-adv-x="856" d="M-19 1005.5q-5 24.5 9 47.5q41 59 132 148t189 153q127 82 228 92q139 16 215 -94q31 -47 37 -109.5t-11 -107.5q-20 -61 -59 -127t-62.5 -97.5t-90 -107.5t-72.5 -84q-88 -102 -131 -195.5t-35 -212.5q2 -27 -15.5 -45t-43 -20t-44 15.5t-20.5 41.5q-8 150 44 264.5 t150 231.5l76 88q63 72 83 98.5t53.5 80.5t48.5 105q10 27 6 60t-17 51q-33 51 -98 43q-72 -8 -174 -74q-88 -59 -171 -139t-116 -129q-14 -20 -38.5 -25.5t-46 9t-26.5 39zM207 59.5q0 24.5 18.5 43t43 18.5t43 -18.5t18.5 -43t-18.5 -43t-43 -18.5t-43 18.5t-18.5 43z" />
<glyph unicode="@" horiz-adv-x="1570" d="M115.5 548q-31.5 183 23.5 396q39 143 122 251t189.5 166t226.5 80.5t240.5 5.5t226 -70.5t185.5 -138.5t119 -210t20 -270q-10 -82 -61 -161t-119 -124q-84 -55 -164 -39q-90 16 -145 119q-17 28 -29 63q-31 -53 -65 -94q-47 -57 -115 -84.5t-135 -21.5q-76 8 -131 58 t-72 136q-25 119 37 246q59 125 160 201q115 88 223 67q129 -20 190 -180q12 -33 -8 -59q16 -35 10 -90q-4 -43 -4 -50q18 -82 45 -135q29 -49 62 -55t74 20q47 31 82.5 87.5t42.5 111.5q16 115 -13.5 214t-93 168t-151 112t-187.5 57q-137 18 -265 -17.5t-232.5 -138 t-145.5 -258.5q-47 -190 -21.5 -341.5t115.5 -264t236 -174.5q147 -59 334 -51q152 6 284.5 69.5t210.5 178.5q14 20 40 25t46.5 -9t25.5 -39.5t-9 -46.5q-98 -141 -258 -218t-336 -83q-213 -8 -387 63q-172 70 -282 207.5t-141.5 320.5zM551 635q18 -88 96 -96q37 -4 77 12 t67 49q72 88 104 191q2 2 6 53q2 29 8 43q5 14 15 24q-37 84 -95 93q-55 10 -127 -46q-76 -57 -120.5 -151t-30.5 -172z" />
<glyph unicode="A" horiz-adv-x="1280" d="M80 33q33 158 92 348q-27 -6 -47.5 8t-25.5 40t9.5 46.5t38.5 24.5l68 14l164 473l104 322l21 65q8 29 14 45q4 12 6 19.5t6 11.5q4 10 13 16q14 10 30 15q29 4 52 -17q12 -10 18 -28q4 -6 8 -19q6 -16 15 -49l39 -141l22 -97l21 -81q8 -29 10 -33q94 -305 143 -438 q66 0 129 -7q25 -2 41 -21.5t14 -45t-21.5 -42t-45.5 -13.5q-33 4 -68 4q104 -246 252 -437q14 -18 11 -43.5t-22.5 -41t-45 -12.5t-41.5 24q-166 213 -287 514q-221 -2 -508 -51q-72 -221 -110 -398q-4 -25 -25.5 -39t-46.5 -9t-39 26.5t-8 46.5zM352 537q229 37 418 41 q-43 121 -131 401q0 4 -8 34.5t-23 84.5l-22 98l-4 12l-88 -262z" />
<glyph unicode="B" horiz-adv-x="1048" d="M45 1382q-2 25 15.5 44.5t42 21.5t44 -15.5t21.5 -41.5q6 -104 12 -195q152 203 334 238q27 5 53 4q50 0 95 -17q66 -27 104 -86q37 -55 43 -127q1 -9 1 -18q0 -61 -24 -119q-49 -124 -231 -233q168 -20 292 -163t132 -313q1 -13 1 -25q0 -164 -99 -261 q-92 -92 -252 -105q-24 -2 -48 -2q-84 -1 -175 21q-117 28 -213 82l-9 -121q-2 -27 -21.5 -43.5t-45 -14t-42 21.5t-14.5 44q19 236 19 528q0 395 -35 895zM193 983q4 -96 6 -184l108 51q100 47 156 78q172 94 209 188q16 39 16 73q0 42 -24 79q-32 46 -94 46q-17 0 -35 -3 q-100 -18 -190.5 -112.5t-151.5 -215.5zM199 213q82 -59 198 -94q94 -27 180 -27q21 0 41 2q115 8 177 68q62 62 62 173q0 11 -1 23q-6 127 -103.5 237t-217.5 122q-44 5 -85 5q-85 0 -157 -20q-12 -4 -53 -22l-25 -10l-4 -2q-4 -2 -8 -2q1 -80 1 -157q0 -154 -5 -296z" />
<glyph unicode="C" horiz-adv-x="1103" d="M2 541q-2 32 -2 65q0 216 70 432q43 131 124.5 237.5t182.5 149.5q53 22 103 22q63 0 122 -34q109 -61 176 -235q8 -25 -2 -47.5t-33.5 -31.5t-46 1t-32.5 33q-51 133 -123 174q-28 17 -60 17q-27 0 -57 -13q-70 -29 -135 -115q-66 -84 -101 -195q-64 -201 -65 -396 q0 -29 2 -58q14 -264 149 -400q45 -43 129 -65q41 -10 80 -11q131 0 246 115q131 131 195 342q8 25 30.5 36t47 4t36 -29.5t4.5 -46.5q-74 -240 -227 -394q-151 -150 -327 -150q-55 0 -113 15q-117 31 -187 98q-170 166 -186 480z" />
<glyph unicode="D" horiz-adv-x="1112" d="M68 1356q-2 25 14 44t43 21q16 2 33 -6h10h39q29 0 40 -1t39.5 -1t44 -2t41 -5t44.5 -7l43 -10q23 -4 41 -13q197 -72 332 -234.5t184 -369.5q27 -122 27 -226q0 -92 -21 -169q-47 -164 -182 -266q-192 -145 -497 -145q-77 0 -161 9q-16 -28 -49 -28h-6q-27 2 -43 21.5 t-14 43.5q23 325 23 654q0 343 -25 690zM195 1292q21 -318 21 -633q0 -283 -17 -563q78 -9 149 -8q262 0 416 119q157 122 157 345q0 88 -24 191q-43 178 -158.5 317.5t-279.5 201.5q-78 29 -264 30z" />
<glyph unicode="E" horiz-adv-x="1064" d="M31 1356q-2 25 14 44t43 21h8q40 0 54 -39q39 2 253 27q181 21 303 21h21q25 0 42 -18.5t17 -44.5t-18 -43t-45 -17h-21q-112 0 -284 -19q-215 -25 -258 -28q10 -170 10 -410q279 49 463 53q27 0 45 -17.5t18 -43t-17 -44t-42 -18.5q-180 -4 -467 -55q-2 -309 -2 -317 q0 -12 -3 -75t-3 -102q-1 -30 -1 -54.5t1 -43.5q2 -20 2 -31q2 -2 6 -2q25 -6 74 -6h20q86 0 223 15q111 12 275 36l164 25q27 2 46 -13.5t22 -41t-12 -45t-40 -23.5q-2 0 -167 -24.5t-273 -36.5q-154 -15 -248 -15h-12q-61 0 -101 11q-63 14 -84 55q-14 27 -18 90 q-1 20 -1 46.5t1 59.5q0 41 3 101.5t3 73.5q0 72 1 230.5t1 249.5t-4 224t-12 244z" />
<glyph unicode="F" horiz-adv-x="765" d="M29 1356q-2 25 13 45t40 24q23 2 42 -10t26 -33q39 2 253 27q181 21 303 21h21q25 0 42 -18.5t17 -44.5t-18 -43t-45 -17h-21q-112 0 -284 -19q-213 -25 -254 -28q20 -188 29 -412q283 51 469 55q27 0 45 -17.5t18 -43t-17.5 -44t-41.5 -18.5q-180 -4 -469 -55 q4 -154 4 -717q0 -25 -18.5 -43t-43 -18t-43 18.5t-18.5 42.5v189v204q0 53 -1 183.5t-4 204t-8.5 182t-14.5 202t-21 183.5z" />
<glyph unicode="G" horiz-adv-x="1024" d="M12 848q41 274 170 457q96 137 201 165q28 7 55 7q75 0 146 -54q74 -57 127 -161q49 -106 69 -218q4 -25 -10 -45t-38.5 -25t-45.5 10t-27 40q-14 92 -56 176t-93 125q-36 30 -73 30q-11 0 -23 -3q-66 -18 -135 -117q-109 -158 -149 -405q-18 -112 -18 -211 q0 -122 27 -226q43 -174 133 -252q92 -81 223 -81q17 0 35 1q154 10 234 117q102 133 113 369q-328 -6 -420 -17q-25 -2 -44.5 13.5t-22.5 41t12.5 45t41.5 23.5q70 8 149 11.5t186.5 4.5t150.5 3h4q38 0 53 -35q12 -16 12 -37q0 -315 -137 -496q-78 -100 -200 -142 q-80 -27 -161 -27q-44 0 -89 8q-123 25 -217 104q-121 106 -172 318q-31 116 -31 252q0 109 20 231z" />
<glyph unicode="H" horiz-adv-x="980" d="M-43 585.5q8 24.5 31 35.5l106 47q0 109 -7 365.5t-7 396.5q0 25 18.5 43t43 18t43 -18.5t18.5 -42.5q0 -129 7 -376t7 -345q221 68 455 75q-1 50 -1 101q0 277 19 553q2 27 21.5 43t45 14t42 -21t14.5 -44q-19 -264 -19 -530q0 -58 1 -116q33 0 65 -2q25 -2 42.5 -21.5 t15 -44t-21.5 -42t-44 -15.5q-27 2 -53 3q18 -479 108 -672q10 -25 2 -48.5t-31.5 -33.5t-47 -2t-33.5 31q-100 219 -121 725q-238 -8 -457 -80q-2 -352 -39 -611q-4 -27 -24.5 -41t-46 -11t-40 23.5t-12.5 45.5q35 238 37 547l-53 -25q-23 -10 -47.5 -2t-34.5 30.5t-2 47z " />
<glyph unicode="I" horiz-adv-x="858" d="M-56 -13.5q-3 25.5 12 45t42 23.5q31 4 121 15l143 16q0 125 4 380q3 204 3 372v82q-1 198 -9 378q-117 -8 -237 -10q-27 0 -45.5 17.5t-18.5 43t17 44t42 18.5q332 8 633 47q27 2 46.5 -13t22.5 -41t-12.5 -45.5t-39.5 -23.5q-139 -16 -285 -28q8 -180 9 -377v-81 q0 -168 -3 -375q-4 -259 -4 -376q80 5 152 5q108 0 200 -11q25 -4 40.5 -23.5t12 -45t-22.5 -41t-46 -13.5q-65 7 -133 11q-24 1 -50 2q-48 0 -103 -4q-85 -6 -129 -10.5t-155.5 -17.5t-140.5 -18q-25 -2 -44 13.5t-22 41z" />
<glyph unicode="J" horiz-adv-x="1040" d="M-25 672q-2 25 14.5 44t42 21t45 -14t21.5 -43q2 -16 5 -71.5t5.5 -87.5t8.5 -81t14 -91t21 -79q31 -102 84 -149q50 -46 125 -46q12 0 24 1q61 4 96 65q90 147 103 576q2 74 2 145q0 251 -27 473q-168 0 -311 -26q-25 -4 -45.5 11t-25.5 39.5t10 45.5t40 27 q151 26 342 26q159 0 346 -18q25 -2 41.5 -21.5t14.5 -45t-21.5 -42t-46.5 -14.5q-123 12 -219 16q25 -222 25 -468q0 -75 -2 -152q-14 -463 -119 -637q-31 -51 -82 -85t-113 -38q-15 -1 -29 -1q-126 0 -212 79q-78 70 -119 202q-12 43 -22.5 90.5t-15.5 100.5t-8 88 t-6.5 90t-5.5 70z" />
<glyph unicode="K" horiz-adv-x="1034" d="M47 37q19 155 27 349q7 172 7 275v27q-1 108 -8 371.5t-10 320.5q0 27 17.5 45.5t43.5 18.5t44 -17.5t18 -42.5q2 -84 7.5 -252.5t7.5 -252.5l143 161l117 131l110 121q41 45 52 58q16 20 40.5 22t45 -14.5t22.5 -41t-14 -44.5q-10 -12 -51 -60l-111 -122l-119 -132 l-166 -188q-27 -31 -41 -49l72 -62l244 -213l254 -223q125 -111 149 -135q16 -18 16.5 -44t-18 -43t-44 -17t-44.5 18q-20 23 -141 129l-254 223l-244 213l-16 15q-2 -315 -33 -562q-4 -25 -24.5 -40t-45 -12t-40 23.5t-13.5 45.5z" />
<glyph unicode="L" horiz-adv-x="999" d="M49 1397q0 27 17.5 45t43 18t44 -17t18.5 -42q12 -555 12 -918v-37q0 -31 -1 -79t-1 -88q-1 -41 -1 -73t1 -54v-25l4 -2q27 -8 72 -12q76 -10 217 -13q35 -1 73 0q77 0 169 2q145 2 149 2q25 0 43.5 -18t18.5 -43t-18.5 -43t-43.5 -18q-4 0 -149 -2q-111 -3 -201 -3h-43 q-145 2 -231 13q-55 6 -90 18q-51 14 -76 41q-4 6 -8.5 14.5t-4.5 12.5l-2 4v8q-2 8 -2 16v46q-1 24 -1 56t1 73q0 41 1 89t1 78v37q0 362 -12 914z" />
<glyph unicode="M" horiz-adv-x="1492" d="M102 1339q-5 13 -5 24q0 24 20 44q16 16 39 18q25 2 43 -12t24 -39q8 -18 45 -92l78 -160l82 -155q82 -150 143 -228q33 -41 60 -59l6 -6q14 16 31 47q35 59 84 170l82 186l53 125l49 107l35 67q10 16 17 25.5t16 15.5q20 16 39.5 16.5t39.5 -16.5q20 -16 33 -53 q6 -20 12 -53q10 -49 17 -133q4 -57 8 -129q4 -76 6 -88q70 -666 271 -1053q10 -23 2.5 -47.5t-30 -35.5t-47 -4t-36.5 29q-209 408 -283 1098q0 12 -5 90t-9 129q0 17 -2 29l-23 -47l-53 -125q-45 -109 -80 -182q-53 -117 -90 -183q-25 -41 -43 -65q-33 -41 -69 -47 q-7 -1 -13 -1q-45 0 -92 36q-39 29 -82 82q-68 86 -153 243l-76 142q6 -119 9 -262.5t3 -238.5t-1 -269.5t-1 -243.5q0 -25 -18.5 -43.5t-43 -18.5t-43 18.5t-18.5 43.5q0 72 1 253v160v118q-1 96 -3 244t-9 276t-20 253z" />
<glyph unicode="N" horiz-adv-x="1138" d="M88 1356q-2 27 15.5 45t41.5 20q23 2 39.5 -10t24.5 -33l4 -8l117 -260q86 -190 131 -281.5t127 -230.5t168 -246q41 -49 159 -176l9 -10l-9 51q-39 242 -41 250q-20 201 -26 346q-1 33 -1 68q-1 121 15 265q20 188 80 345q8 25 31.5 35t47 2t34 -31.5t2.5 -46.5 q-53 -147 -72 -320q-16 -138 -16 -255q0 -29 1 -58q5 -141 27 -338q0 -2 41 -241q16 -98 23 -152q6 -33 8 -53v-21v-10q0 -16 -8 -29q-17 -31 -49 -31q-6 0 -13 1q-12 2 -24 8q-8 4 -19 12q-14 10 -36 33l-95 96q-119 127 -163 182q-94 115 -177 256q-86 143 -137 250 l-127 275q1 -66 0 -149q0 -166 -2 -406q-4 -358 -4 -475q0 -25 -18.5 -43.5t-43 -18.5t-43 18.5t-18.5 43.5q0 137 4 417q3 224 3 408v90q-1 219 -11 416z" />
<glyph unicode="O" d="M41 645q4 260 94 477q100 242 258 305q18 6 42 11.5t49.5 8.5t27.5 3q25 6 45 -8h4q193 -55 299 -305q86 -208 86 -469v-23q-6 -279 -108 -467q-122 -221 -333 -221h-11q-236 6 -359 229q-94 175 -94 437v22zM164 643v-22q0 -229 80 -377q88 -160 254 -164h7 q138 0 224 158q88 162 94 409v24q0 235 -75 419q-84 195 -220 233q-6 2 -10 4q-74 -12 -80 -14q-111 -43 -188 -238q-82 -195 -86 -432z" />
<glyph unicode="P" horiz-adv-x="1024" d="M88 1360q-2 27 15.5 45t43 20t44 -15t20.5 -42l4 -100q86 90 186 143q71 37 139 53q37 8 75 8q34 0 71 -6q78 -14 143 -67q74 -57 104 -132q24 -60 24 -117q1 -14 -1 -28q-8 -70 -45 -141q-47 -94 -131 -174t-172 -121q-162 -76 -387 -82q-6 -506 -6 -575 q0 -25 -18.5 -43.5t-43 -18.5t-43 18.5t-18.5 43.5q0 113 5 481q3 204 3 356q0 122 -2 211q-4 13 0 27q-4 135 -10 256zM221 727q201 6 334 70q72 35 141.5 100.5t106.5 138.5q31 62 31 116q0 87 -82 153q-58 46 -130 46q-73 0 -161 -48q-74 -39 -138.5 -100.5 t-101.5 -125.5q1 -76 1 -163t-1 -187z" />
<glyph unicode="Q" horiz-adv-x="1163" d="M14 649q2 252 92.5 478.5t247.5 310.5q20 10 52 18q19 19 42 19q12 0 25 -5q11 3 20 3q29 0 48 -27q106 -39 166 -88q84 -68 143 -178.5t85 -226t35 -239.5q3 -41 3 -79q0 -76 -12 -139q-35 -223 -144 -369l-8 -12q111 -82 242 -127q23 -8 34 -31t2.5 -46.5t-31 -34.5 t-46.5 -3q-158 54 -289 154q-101 -75 -227 -75q-26 0 -52 3q-115 14 -200.5 79.5t-134 166t-71 213t-22.5 235.5zM137 649v-11q0 -233 82 -386q84 -156 240 -174q19 -3 38 -3q70 0 128 36q-104 100 -197 241q-14 20 -9 45t26.5 39.5t46 9t38.5 -27.5q88 -131 185 -223l4 4 q88 121 119 317q11 71 11 144q0 133 -36 274q-55 223 -184 330q-18 14 -41 26.5t-33 17.5t-47 18t-45 15q-37 -6 -51 -14q-117 -61 -195 -255.5t-80 -422.5z" />
<glyph unicode="R" horiz-adv-x="1181" d="M88 1360q-2 27 15.5 45t43 20t44 -15t20.5 -42q2 -29 2 -59q127 92 244 118q45 10 94 10q28 0 57 -3q84 -10 152 -45q76 -41 119 -112q33 -55 33 -123q0 -21 -3 -42q-27 -188 -284 -358q-90 -59 -197 -107l209 -178l250 -219l205 -182q18 -18 20 -43t-15.5 -44.5 t-42 -21.5t-44.5 14l-217 195l-271 240l-225 188q-41 -14 -76 -23q-6 -446 -6 -544q0 -25 -18.5 -43.5t-43 -18.5t-43 18.5t-18.5 43.5q0 137 4 417q3 224 3 408v90q-1 219 -11 416zM219 1157q3 -129 2 -289v-168q174 51 336 156q211 139 229 272q2 12 2 24q0 81 -86 128 q-72 36 -147 36q-34 0 -70 -7q-113 -27 -266 -152z" />
<glyph unicode="S" horiz-adv-x="964" d="M51 502q0 25 18.5 43t43 18t43 -18.5t18.5 -42.5q0 -270 143 -373q49 -37 121 -45q20 -2 40 -3q49 0 97 15q70 20 117 66q49 45 66 106q14 56 14 106q0 86 -40 156q-62 112 -204 215q-45 35 -128 90.5t-113 79.5q-141 102 -158 195q-5 26 -5 51q0 100 87 180 q92 88 231 103q27 4 54 3q64 1 124 -19q86 -28 152 -113q68 -82 88 -209q4 -25 -11 -45.5t-41 -24.5t-46.5 11.5t-24.5 42.5q-18 133 -98 189q-66 46 -148 46q-18 0 -36 -2q-98 -12 -160 -70q-49 -46 -49 -97q0 -10 2 -21q10 -47 110 -121l117 -80q82 -55 127 -90 q41 -29 74 -57.5t68.5 -66.5t61 -76t47 -84t31.5 -95q9 -41 10 -88q0 -9 -1 -19q-2 -58 -16 -118q-25 -98 -96.5 -165t-168.5 -95q-62 -21 -131 -21q-28 0 -58 4q-101 12 -179 68q-193 139 -193 471z" />
<glyph unicode="T" horiz-adv-x="968" d="M-47 1333.5q0 24.5 18 43t43 18.5q84 0 167 3t184.5 10t158.5 13l185 17q129 12 165 16q27 2 46.5 -14.5t21.5 -42t-14.5 -45t-40.5 -21.5q-391 -37 -395 -37q8 -188 9 -399v-87q0 -178 -3 -391q-4 -267 -4 -401q0 -25 -18.5 -43t-43 -18t-43 18.5t-18.5 42.5 q0 134 4 398q3 211 3 388v86q-1 210 -9 398q-197 -14 -355 -14q-25 0 -43 18.5t-18 43z" />
<glyph unicode="U" horiz-adv-x="980" d="M70 1020q4 166 6 350q0 25 18.5 42.5t44 17.5t43 -18.5t17.5 -45.5q-3 -186 -7 -348q-1 -29 -1 -58q0 -136 18 -286q20 -180 70 -330q37 -113 81 -180q53 -75 108 -75q7 0 13 1q86 12 152 152q63 135 102 368q43 262 56 725q0 25 18 42.5t44 17.5t43 -18.5t17 -45.5 q-12 -467 -57 -741q-41 -254 -111 -402q-96 -199 -247 -221q-15 -2 -29 -2q-117 0 -209 129q-57 82 -100 213q-50 159 -72 353q-18 164 -19 307q0 27 1 53z" />
<glyph unicode="V" horiz-adv-x="1024" d="M18 1329q-6 25 7.5 46.5t38 27.5t46 -7t27.5 -38q113 -494 266 -1000q2 -8 6.5 -26.5t12.5 -47t14 -53.5q27 113 74 267q160 516 379 921q10 23 34.5 30t47 -4t30 -36t-5.5 -47q-207 -391 -366 -901q-68 -219 -97 -361v-4l3 -10v-25q0 -64 -50 -88q-17 -9 -33 -9 q-29 0 -55 30q-14 16 -26 43q-16 39 -37 106q-14 45 -30.5 109.5t-18.5 69.5q-154 512 -267 1007z" />
<glyph unicode="W" horiz-adv-x="1542" d="M-14 1284q-6 25 5 47.5t35.5 29.5t47 -4t30.5 -36q88 -274 222 -913l28 -138q86 276 215 574l56 119q25 49 41 75q12 20 22 31q12 12 25 18q15 7 29 7q19 0 36 -13l19 -16q0 -4 2 -6t2 -6l4 -9l8 -24l27 -80l80 -246q123 -379 131 -399q4 -10 45 -127l4 -10l35 184 l30 162l29 151q10 55 14 74q16 74 42 164t42 143l58 170l47 148q8 25 30.5 36t47 3.5t36 -30t5.5 -46.5q-14 -39 -52 -148l-53 -163l-41 -142q-27 -88 -43 -164q-4 -16 -14 -71l-29 -150l-29 -160q-29 -152 -47 -237q-10 -53 -18 -84q-12 -43 -21 -57q-16 -29 -47 -33 q-33 -6 -57 18q-12 12 -23 35q-2 8 -8 25q-4 12 -4 14q-23 49 -51 127l-43 123q-12 31 -133 405l-76 236q-20 -41 -43 -96q-135 -309 -221 -596q-2 -2 -6 -19l-13 -41q-6 -27 -12 -45l-18 -65l-6 -23l-3.5 -7t-1.5 -7q-2 -2 -4 -6q-4 -10 -18 -21q-18 -12 -35 -12 q-20 0 -39 16q-12 8 -18 23q-4 8 -7 19.5t-10 37.5l-20 119l-45 215q-131 625 -221 901z" />
<glyph unicode="X" horiz-adv-x="1077" d="M21.5 -22.5q-7.5 24.5 3.5 47.5q256 487 391 720q-178 324 -277 594q-8 23 2.5 46.5t34 31.5t47 -2t31.5 -35q86 -238 233 -510l146 238l57 94l78 125q35 51 72 94q16 20 41.5 22.5t45 -14t21.5 -42t-14 -44.5q-33 -41 -64 -86l-73 -116l-62 -99l-180 -297l449 -759 q12 -23 6 -47.5t-29 -37t-47.5 -6t-36.5 28.5l-211 361l-201 338l-350 -656q-12 -23 -36.5 -30t-47 4.5t-30 36z" />
<glyph unicode="Y" horiz-adv-x="931" d="M31 1415q-6 25 7 46.5t37.5 27.5t46.5 -7t28 -38l10 -47l16 -74l14 -78q35 -164 68 -274q43 -154 90 -240q45 -82 78 -84h2q30 0 82 76q55 80 117 238q80 205 145 466q6 25 27.5 38.5t46 7t38 -28t7.5 -45.5q-70 -276 -150 -484q-66 -168 -129 -262q-57 -84 -116 -112 q0 -92 -7.5 -266.5t-9.5 -254.5q0 -27 -18.5 -44t-44 -17t-43 18.5t-17.5 42.5q2 82 8.5 253t8.5 262q-74 29 -133 137q-53 96 -101 264q-33 117 -67 285q-8 31 -16.5 75.5t-14.5 71.5z" />
<glyph unicode="Z" horiz-adv-x="1177" d="M74 41q-6 15 -6 30q0 33 30 66q14 12 19 15q0 2 2 2l213 356l147 227q-90 -4 -205 -16q-25 -2 -45 14.5t-22 41t14.5 45t40.5 22.5q174 16 303 22l213 310l70 102l14 18l-10 2q-80 2 -221 2q-98 0 -238 -2h-139q-25 0 -43 18.5t-18 43t18 43t43 18.5h139q139 2 238 2 q143 0 225 -2q51 -2 80 -6q16 -2 29 -4q8 -2 14 -4q20 -8 31 -23q14 -18 12 -41q0 -8 -2 -16t-6 -16q-6 -12 -17 -31q-16 -25 -47 -72l-69 -102l-166 -240q141 -2 256 -20q25 -4 40 -25.5t11 -46t-25.5 -40t-46.5 -11.5q-114 21 -258 21q-29 0 -59 -1q-106 -156 -195 -299 l-186 -307q23 2 51.5 6t45 6.5t20.5 2.5q214 23 397 23q166 0 307 -19q25 -4 40 -24.5t12 -45.5t-23.5 -40t-44.5 -13q-135 19 -294 19q-176 0 -382 -23q-2 0 -21.5 -2t-50 -6.5t-55.5 -6.5q-51 -6 -80 -10q-18 -2 -29 -2h-12h-10q-8 2 -14 4q-25 10 -35 35z" />
<glyph unicode="[" horiz-adv-x="733" d="M29 1257q-2 70 0 119q2 57 10 80q20 55 94 84q45 18 119 29q49 6 121 10q78 6 84 6q25 2 45 -14.5t22 -41t-14 -45t-41 -22.5q-10 0 -90 -6q-68 -2 -111 -8q-57 -8 -90 -21q-18 -8 -24 -14q-2 -14 -2 -41q-2 -41 0 -110q2 -117 12 -318l14 -221l12 -215q6 -84 7 -117 q0 -2 1 -37t2 -78t1 -79q2 -74 6 -119q0 -25 2 -39v-4q10 -12 39 -23q43 -12 112 -18q53 -4 132 -2q18 0 57 1t53 1q25 0 43.5 -18.5t18.5 -43t-18.5 -43t-43.5 -18.5q-14 0 -52 -1t-56 -1q-84 -2 -144 2q-86 6 -141 27q-84 29 -113 88q-6 12 -10 41q-2 16 -2 45 q-4 45 -6 121q0 39 -1 80.5t-2 76.5t-1 37q0 35 -6 117l-13 213l-14 219q-10 207 -12 321z" />
<glyph unicode="\" horiz-adv-x="987" d="M43 1429.5q8 24.5 30.5 35t47 2t35.5 -30.5q80 -168 184 -367l180 -334l205 -366l190 -338q12 -23 5 -47.5t-28.5 -37t-46 -5t-36.5 27.5l-191 342l-208 369l-181 336q-104 199 -184 366q-10 23 -2 47.5z" />
<glyph unicode="]" horiz-adv-x="733" d="M14 1522.5q0 25.5 17.5 44t42.5 18.5q14 0 51 2t57 2q84 2 144 -2q88 -4 143 -24q84 -27 115 -86q4 -10 6 -25q2 -8 2 -18q2 -14 4 -43q2 -45 6 -121q4 -113 6 -197q0 -37 6 -119l17 -213l14 -215q14 -190 17 -317q2 -90 2 -119q-2 -57 -13 -84q-18 -55 -92 -86 q-45 -18 -119 -29q-47 -8 -118 -12q-82 -6 -86 -6q-25 -2 -45.5 14.5t-22.5 41t14 45t41 22.5q6 0 90 6q66 4 111 10q57 8 88 21q18 8 25 14q2 12 4 47q0 41 -2 111q-2 115 -17 313q-4 82 -14 215l-16 217q-6 82 -7 119q-2 84 -6 195q-4 76 -6 118q-2 27 -2 39v4 q-12 12 -41 23q-41 12 -111 18q-55 2 -133 0q-20 0 -58 -2t-50 -2q-27 0 -45.5 17.5t-18.5 43z" />
<glyph unicode="^" horiz-adv-x="665" d="M-33 1073q-6 24 6 47l103 178q43 74 69 113q16 27 31 41q8 10 17 16q16 16 36 21q35 6 74 -19q23 -14 49 -38q41 -41 99 -113l55 -78l53 -74l29 -41q14 -20 11 -45.5t-23.5 -40t-46 -11.5t-40.5 24q-6 8 -28 41l-51 73l-58 76q-51 66 -86 98l-12 13l-8 -13 q-25 -37 -66 -104l-100 -178q-12 -23 -37 -29t-47.5 6.5t-28.5 36.5z" />
<glyph unicode="_" horiz-adv-x="907" d="M3 -255q-3 26 12 45.5t40 23.5q426 51 723 51q25 0 43.5 -18.5t18.5 -43t-18.5 -43t-43.5 -18.5q-289 0 -706 -51q-27 -2 -46.5 13t-22.5 41z" />
<glyph unicode="`" horiz-adv-x="391" d="M15.5 1556.5q4.5 24.5 26 39t46.5 9t39 -25.5q129 -197 190 -332q10 -23 2 -46t-31.5 -33.5t-47 -2t-33.5 32.5q-57 123 -182 311q-14 23 -9.5 47.5z" />
<glyph unicode="a" horiz-adv-x="849" d="M-35 280q4 76 32 148t75 127q113 135 260 145q10 1 19 0q162 0 288 -163l8 -13q-20 170 -72 269q-62 115 -166 115q-11 0 -22 -1q-109 -12 -192 -131q-16 -20 -41 -25.5t-45.5 10t-25.5 40.5t9 45q117 166 283 184q18 2 36 2q177 0 273 -182q66 -125 88 -330 q10 -96 10 -325v-127q0 -27 -2 -41q0 -10 -2 -19q-4 -14 -12 -24q-16 -25 -47 -25q-27 -2 -47 21q-14 16 -23 49q-4 18 -10 51l-14 90q-55 -59 -111 -102q-123 -94 -240 -94q-80 0 -157 44q-80 45 -118 116q-34 64 -34 132v14zM90 279q0 -104 88 -154q46 -26 95 -26 q79 0 167 67q76 58 156 158q-25 98 -55 139q-88 115 -191 115h-10q-96 -6 -174 -100q-76 -92 -76 -194v-5z" />
<glyph unicode="b" horiz-adv-x="866" d="M25 12.5q0 24.5 14 42.5v4v2v2v3v20v14v15v10q0 63 6 106l2 5v8q2 31 4 227q1 68 1 135q0 360 -27 709q-2 27 14 46t41.5 21t45 -14t21.5 -41q27 -328 27 -711q27 55 53 105q86 156 179 227q79 60 157 59l101 -24q117 -61 133 -225q2 -20 1 -41q0 -86 -26 -191 q-68 -266 -242 -415q-176 -152 -442 -158q-27 0 -45 17.5t-18 42zM162 82q190 25 314 146.5t177 326.5q22 89 22 162q0 16 -1 31q-8 96 -68 124q-21 11 -44 11q-39 0 -81 -33q-70 -53 -145 -188q-63 -113 -107 -236q-45 -127 -61 -205q0 -10 -3 -40.5t-3 -47.5v-10v-21v-20z " />
<glyph unicode="c" horiz-adv-x="798" d="M40 322q-12 65 -12 133q0 126 42 260q33 98 99.5 182t143.5 117q42 17 81 17q55 0 104 -34q82 -55 118 -202q6 -25 -6 -46.5t-37.5 -27.5t-47 6t-27.5 39q-27 100 -70 131q-15 10 -34 10q-16 0 -34 -8q-49 -20 -98 -81.5t-74 -139.5q-36 -113 -36 -214v-18 q4 -110 35.5 -191t80.5 -126q47 -41 99 -41q28 0 59 12q115 45 221 238q12 20 37 27.5t46.5 -5t28.5 -37t-5 -47.5q-127 -228 -283 -290q-55 -22 -106 -22q-94 0 -177 73q-114 99 -148 285z" />
<glyph unicode="d" horiz-adv-x="827" d="M18 711q14 94 62.5 165.5t132.5 100.5q41 14 80 14q75 0 143 -51q72 -55 123 -156q39 -78 70 -155q-2 77 -2 156q0 275 22 563q2 27 21.5 43t45 14t42 -21.5t14.5 -44.5q-22 -284 -22 -559q0 -165 8 -327l12 -263q0 -2 1 -14t3 -33.5t4 -38.5q2 -37 4 -55v-20v-15 q-2 -12 -8 -22q-12 -20 -35 -29q-29 -8 -55 10q-16 12 -25 33q-80 -32 -156 -32q-107 0 -204 63q-150 96 -231 303q-57 145 -57 280q0 46 7 91zM141 692q-6 -38 -6 -78q0 -110 47 -231q68 -168 185 -242q67 -42 140 -43q60 0 124 29q-4 23 -9.5 54.5t-7.5 37.5 q-49 281 -165 508q-39 76 -89 115q-34 26 -70 26q-18 0 -36 -6q-92 -33 -113 -170z" />
<glyph unicode="e" horiz-adv-x="796" d="M32 475q22 121 83 240q61 127 151 215q90 86 199 88h7q71 0 115 -39q46 -41 62 -102q11 -40 11 -81q0 -62 -25 -126q-57 -158 -185 -266.5t-290 -137.5q33 -90 90 -133t125 -43q72 0 143 45q68 47 113 135q12 25 35.5 32t47 -4t31 -34.5t-3.5 -46.5q-59 -119 -159 -185 q-97 -65 -203 -65h-6q-115 2 -207 78t-133 213q-12 49 -12 103t11 114zM145 389q125 23 226.5 111t148.5 211q17 44 17 84q0 25 -7 49q-12 51 -65 51q-57 0 -123 -63.5t-117 -172.5q-70 -141 -80 -270z" />
<glyph unicode="f" horiz-adv-x="819" d="M-9 820.5q-3 25.5 12 45t42 23.5q109 12 227 16q-4 66 -4 125q0 132 19 225q25 141 108 205q55 41 120 41q32 0 67 -10q90 -27 159.5 -112t87.5 -195q4 -27 -11 -47.5t-40.5 -24.5t-46 11t-24.5 40q-12 80 -58.5 137.5t-99.5 71.5q-17 5 -33 5q-26 0 -47 -15 q-45 -35 -63 -131q-14 -82 -14 -205q0 -55 3 -119q102 0 238 -4q27 0 43 -19.5t16 -45t-19.5 -42t-43.5 -16.5q-129 4 -226 4q0 -31 3 -55q4 -70 9 -220.5t10 -265t15 -220.5q2 -27 -14 -46.5t-42 -21.5t-45.5 14.5t-21.5 40.5q-10 109 -15 223.5t-10 267t-9 224.5 q-2 25 -4 57q-115 -4 -222 -16q-25 -2 -44 13.5t-22 41z" />
<glyph unicode="g" horiz-adv-x="782" d="M43 422q31 150 121 301q94 158 207 238q92 65 175 65q47 0 91 -20q27 -10 51 -37l12 -13h2q23 -8 33 -30q2 -4 4 -13q2 -4 3 -9t1 -13v-37q2 -20 2 -106q2 -209 3 -234q1 -33 1 -64q0 -182 -20 -329q-37 -289 -151 -387q-55 -47 -117 -68q-56 -18 -106 -18h-10 q-54 2 -116 6q-27 2 -42 22.5t-13 46t22.5 41t45.5 13.5q47 -7 87 -7q29 0 55 4q60 9 112 54q80 68 112 309q17 123 17 279q-43 -111 -90 -185q-106 -162 -252 -184q-15 -2 -29 -2q-45 0 -88 19q-57 26 -92 79q-44 66 -44 164q0 53 13 115zM164 397q-11 -52 -11 -93 q0 -59 23 -95q27 -41 71 -41q9 0 19 2q90 12 164 129q53 80 109 233q49 141 65 236q6 35 10 88l2 12h-2l-12 15q-10 10 -14 12q-18 8 -38 8q-47 0 -108 -43q-92 -66 -172 -201q-80 -133 -106 -262z" />
<glyph unicode="h" horiz-adv-x="854" d="M14 1407q0 25 16.5 43t42 19t44 -15t20.5 -43q4 -119 18.5 -396t20.5 -427q35 70 74 129q70 113 139 176q86 79 167 78h15q119 -10 170 -166q37 -104 41 -285q1 -31 1 -63q0 -194 -31 -437q-4 -25 -23.5 -40t-45.5 -12t-41 22.5t-13 46.5q31 242 31 427q0 27 -1 52 q-4 160 -32 250q-27 78 -68 82h-5q-32 0 -81 -47q-57 -51 -121 -150q-53 -86 -95 -177t-54 -140q-12 -57 -21 -244v-4q0 -4 2 -12t4 -19q2 -27 -2 -43q-8 -33 -39 -45q-27 -12 -55 2q-18 10 -29 27l-4 12q-2 6 -2 12q-2 4 -2 13v33v92q2 178 2 196q-2 209 -20 609z" />
<glyph unicode="i" horiz-adv-x="280" d="M27 674q2 114 14 227q4 25 23.5 40t45 12t41 -22t13.5 -46q-12 -104 -14 -212q-1 -22 -1 -45q-1 -86 7 -176q10 -114 22 -205t33 -224q4 -27 -11.5 -47.5t-41 -24.5t-46 11t-24.5 40q-20 137 -31.5 228.5t-21.5 211.5q-8 100 -8 194v38zM55 1175.5q0 24.5 18.5 43 t43 18.5t43 -18.5t18.5 -43t-18.5 -43t-43 -18.5t-43 18.5t-18.5 43z" />
<glyph unicode="j" horiz-adv-x="315" d="M-236 -336.5q0 25.5 18.5 43t45.5 17.5h19q58 0 93 11q40 13 76 56q49 59 80 207q29 137 39 330q4 97 4 190q0 224 -24 420q-2 27 13 46.5t41 22.5t45.5 -12.5t23.5 -40.5q24 -189 24 -410q0 -107 -6 -222q-8 -205 -39 -349q-37 -178 -106 -260q-59 -70 -127 -92 q-62 -20 -145 -20h-15q-25 0 -42.5 18.5t-17.5 44zM106 1265.5q0 24.5 18.5 43t43.5 18.5t43 -18.5t18 -43t-18 -43t-43 -18.5t-43.5 18.5t-18.5 43z" />
<glyph unicode="k" horiz-adv-x="907" d="M31 37q18 201 22 405q2 102 2 232t-2 290q-4 320 -4 408q0 25 18.5 43.5t43 18.5t43 -18.5t18.5 -43.5q0 -106 3 -378q2 -164 2 -283q0 -80 -1 -140l121 140q219 252 238 284q14 20 38.5 26.5t46 -7t27.5 -37.5t-6 -47q-31 -47 -252 -301l-141 -162l-45 -53l-2 -4 q10 -23 49 -56q63 -51 182 -110q100 -49 205.5 -89t153.5 -51q25 -4 38 -25.5t7.5 -47t-27 -38.5t-47.5 -7q-53 12 -166 54t-217 93q-131 66 -207 125l-4 4q-4 -117 -14 -237q-2 -25 -21.5 -41.5t-45.5 -14.5t-42 21.5t-14 46.5z" />
<glyph unicode="l" horiz-adv-x="317" d="M36 943q16 241 58 456q4 25 24.5 39t46 9t40 -25.5t8.5 -47.5q-39 -208 -55 -442q-6 -96 -6 -194q0 -142 14 -292q22 -252 92 -421q8 -23 -1 -46.5t-32.5 -32.5t-47 0t-34.5 34q-75 182 -99 452q-15 161 -14 312q-1 102 6 199z" />
<glyph unicode="m" horiz-adv-x="1273" d="M10 946q0 25 18.5 43.5t43 18.5t43 -18.5t18.5 -43.5q0 -39 10 -311q33 88 68 149q55 96 113 119q31 12 59 12q32 0 61 -16q45 -25 78 -84q41 -78 62 -229q49 109 102 194q74 119 145 178q72 61 142 61q29 0 59 -11q96 -37 135 -191q29 -106 35 -287q2 -34 2 -89 q0 -82 -4 -208q-2 -83 -2 -134.5t2 -71.5q2 -25 -14.5 -44.5t-42 -21.5t-45 14.5t-21.5 42.5q-2 24 -2 79t2 141q3 142 3 223q0 40 -1 65q-4 166 -29.5 259.5t-62.5 107.5q-6 2 -13 2q-26 0 -65 -31q-55 -47 -118 -149q-51 -84 -95 -180q-43 -94 -59 -150q-23 -74 -33 -172 v-37v-26v-15l-4 -12q-4 -12 -14 -21q-19 -19 -42 -19q-12 0 -24 5q-20 8 -31 27q-4 6 -6 12q0 4 -2 8v6v2v2v19q-2 37 0 51q0 6 2 10q-2 199 -18 336q-18 135 -51 197q-14 25 -27 33q-6 2 -18 -3q-18 -6 -52 -63q-33 -61 -69 -160q-70 -190 -80 -299q-3 -21 -3 -53 q0 -43 5 -107q2 -49 2 -65q0 -20 -4 -33q-12 -33 -43 -41q-10 -3 -19 -3q-25 0 -45 20q-16 14 -16 26q0 2 -2 6v4v3v2v8q0 10 -2 28l-4 97l-10 297q-16 475 -17 491z" />
<glyph unicode="n" horiz-adv-x="874" d="M10 952q-2 25 12.5 45.5t40 23.5t46 -11.5t24.5 -40.5q20 -154 25 -424q53 111 127 219q68 96 149 154q61 43 119 49q9 1 18 1q68 0 117 -55q47 -51 74 -182q20 -96 31 -250q12 -172 12 -444q0 -25 -18.5 -43.5t-43 -18.5t-43 18.5t-18.5 43.5q0 279 -10 436 q-10 143 -29 234q-20 98 -45 124q-14 14 -33 13q-25 -2 -59 -27q-66 -45 -119 -123q-207 -299 -225 -598q0 -57 -2 -78v-8v-2v-2q0 -6 -4 -14q-4 -14 -15 -25q-20 -18 -47 -16q-25 2 -41 20q-10 10 -14 23q0 4 -1 7t-1 7v27q0 32 2 67q1 70 1 120t-1 81q-2 63 -3 205.5 t-6 245t-20 198.5z" />
<glyph unicode="o" horiz-adv-x="765" d="M2 451q10 168 74 317q72 162 174 217q4 2 8 2q8 23 27.5 33t40.5 8q129 -25 221 -118t133 -210q43 -119 45 -245v-16q0 -194 -94 -324q-106 -147 -284 -147q-16 0 -32 1q-92 8 -157.5 53.5t-99.5 117.5q-32 71 -46 149q-10 60 -11 124q0 19 1 38zM125 444q-1 -21 -1 -41 q0 -128 44 -209q51 -94 156 -102q12 -1 23 -1q117 0 185 95q70 99 70 258v9q-2 145 -63.5 265t-165.5 167q-12 -2 -23 -2q-2 0 -10 -1t-12 -1q-14 -2 -21 -7q-66 -33 -119 -155q-55 -129 -63 -275z" />
<glyph unicode="p" horiz-adv-x="811" d="M58 12q-2 81 -2 152q0 85 2 156q3 131 9.5 337.5t8.5 315.5q0 25 18.5 42t44 17t43 -18.5t17.5 -44.5q-2 -53 -2 -117l36 47q74 86 152 111q33 11 66 11q68 0 133 -48q100 -74 136 -203q24 -84 24 -175q0 -48 -7 -97q-18 -135 -79.5 -257t-151.5 -188q-108 -78 -273 -78 q-26 0 -53 2q2 -152 10 -286q2 -27 -15 -45.5t-43 -20.5t-44 15.5t-20 42.5q-8 150 -10 329zM178 100q31 -2 59 -2q48 0 85 6q59 11 110 48q68 49 117 147t65 215q6 45 6 87q0 69 -16 128q-26 96 -94 145q-30 23 -60 23l-26 -4q-47 -14 -96 -74q-47 -53 -84 -127t-54 -129 l-4 -8q-8 -283 -8 -455z" />
<glyph unicode="q" horiz-adv-x="761" d="M23 508q27 154 102.5 287t173.5 186q54 29 105 29q67 0 128 -52q33 -26 60 -67l6 76q2 27 21.5 43t45 14t42 -21.5t14.5 -44.5q-29 -414 -39 -618q4 -16 0 -33q-7 -169 -7 -321t7 -287q2 -27 -15.5 -45.5t-43 -20.5t-44 15.5t-20.5 42.5q-7 138 -7 288q0 61 1 123 q-74 -76 -157 -104q-44 -16 -88 -16q-39 0 -77 12q-125 39 -182 179q-37 91 -37 204q0 62 11 131zM145 487q-11 -67 -11 -122q0 -81 24 -136q41 -96 108 -118q17 -5 36 -5q51 0 112 38q82 51 145 190q6 125 14 274q-4 9 -6 17q-43 182 -112 239q-24 21 -52 21q-22 0 -47 -13 q-68 -37 -129 -143t-82 -242z" />
<glyph unicode="r" horiz-adv-x="690" d="M25 889q-2 27 14 46t41.5 21t45 -14t21.5 -41q10 -106 13 -268v-78q131 309 366 461q20 14 45 9t39.5 -26.5t9 -46t-27.5 -39.5q-160 -104 -262.5 -289.5t-145.5 -410.5q-2 -20 -2 -78q0 -70 -10 -108q-2 -6 -4 -11q-2 -6 -4 -10q-10 -16 -27 -22q-15 -8 -29 -8 q-21 0 -40 18q-10 10 -17 24q-2 8 -2 17q-2 8 -2 31q2 53 2 57q-10 225 -10 244q0 29 -2 264q-2 158 -12 258z" />
<glyph unicode="s" horiz-adv-x="661" d="M-10 299q0 25 18.5 43t43 18t43 -18t18.5 -43q0 -86 47 -145.5t114 -79.5q30 -8 58 -9q32 0 59 12q51 21 68 81q9 27 9 53q0 43 -23 85q-37 68 -128 155q-10 8 -71 65l-86 82q-90 96 -101 178q-2 14 -2 27q1 73 49 127q56 62 138 82q33 7 65 7q47 0 92 -15 q80 -25 121 -101q18 -31 29 -82q0 -2 4 -26.5t8 -36.5q6 -25 -6 -47.5t-36.5 -28.5t-47.5 6t-29 37q0 2 -14 72q-6 33 -14 49q-18 31 -58 44q-23 7 -48 7q-19 0 -40 -4q-44 -10 -68 -38q-20 -24 -21 -56q0 -5 1 -11q4 -38 66 -104q27 -29 84 -82q57 -51 69 -63 q31 -29 53.5 -53.5t50 -58.5t43.5 -67q16 -34 30 -72q13 -35 13 -75v-6q-1 -43 -13 -86q-34 -115 -134 -156q-55 -23 -112 -23q-45 0 -92 15q-104 31 -177 122t-73 220z" />
<glyph unicode="t" horiz-adv-x="690" d="M-55 980q-2 26 15 44t44 20q129 6 227 13q14 172 45 327q4 25 25 39.5t46.5 9t39.5 -26t8 -46.5q-25 -139 -41 -297q127 8 238 18q27 2 46 -14t21.5 -42t-14 -45t-41.5 -22q-125 -10 -260 -18q-9 -134 -8 -255q0 -419 104 -675q8 -23 -1 -46t-32.5 -32.5t-47 0 t-33.5 33.5q-113 276 -113 716q0 119 8 251q-92 -4 -213 -10q-25 -2 -43 15t-20 43z" />
<glyph unicode="u" horiz-adv-x="854" d="M39 432q-6 81 -6 163q0 183 28 376q4 27 24.5 41t46.5 11t40 -23.5t12 -45.5q-27 -185 -28 -362q0 -77 6 -152q12 -168 51 -262q39 -92 102 -98h5q35 0 71 51q45 61 80 186q49 176 70 404q4 33 7 85t3 54q4 33 6 47.5t4 22.5q2 10 8 16q16 27 45 31q31 4 54 -21 q6 -6 10 -14q2 -4 4 -10q0 -2 2 -6v-2v-4q0 -4 2 -13q0 -18 4 -47l17 -217q23 -303 92 -598q6 -25 -7.5 -46.5t-38 -27.5t-46 7.5t-27.5 37.5q-43 180 -68 357q-10 -47 -22 -88q-41 -145 -96 -226q-74 -103 -172 -103q-11 0 -23 1q-131 16 -199 174q-47 113 -61 301z" />
<glyph unicode="v" horiz-adv-x="876" d="M-36 971q7 24 29.5 35.5t47.5 4.5t37 -30q109 -213 254 -635l59 -178l6 -16l4 10q29 66 115 297q178 475 207 530q12 23 36.5 30t47 -4t30 -36t-2.5 -47q-27 -49 -203 -516l-115 -301q-27 -66 -45 -101q-10 -23 -18 -34q-18 -27 -41 -37q-31 -12 -58 6q-8 6 -14 14 q-4 4 -8 10q-2 6 -6 15l-13 37l-37 104l-59 176q-145 414 -250 619q-10 23 -3 47z" />
<glyph unicode="w" horiz-adv-x="1345" d="M0 913q-6 25 6 46.5t38 27.5t47.5 -6t27.5 -39q27 -104 80 -337.5t86 -354.5l2 -8l41 145q45 158 75 236q20 55 41 84q16 23 33 34q23 16 47 16q10 0 21 -3q25 -6 43 -31q10 -12 20 -31q16 -31 39 -84l92 -229q66 -166 92 -225l11 -21l16 66q117 369 305 788q10 25 34 33 t47.5 -2t31.5 -33.5t-2 -46.5q-184 -414 -297 -776q-8 -20 -16 -60q-10 -43 -15 -57q-12 -35 -24 -55q-27 -38 -65 -38q-11 0 -23 3q-23 6 -43 29q-12 12 -25 32q-20 29 -45 84q-35 76 -96 234q-68 174 -90 227l-13 29l-6 -12q-29 -72 -72 -224l-28 -108q-25 -88 -37 -125 q-16 -55 -27 -82q-8 -20 -16 -31.5t-19 -19.5q-25 -18 -53 -13q-20 4 -33 19q-4 4 -8 10q-2 2 -4 6q0 4 -1 7t-3 8q-2 6 -4 18l-14 53l-31 121q-33 123 -86 356.5t-80 339.5z" />
<glyph unicode="x" horiz-adv-x="737" d="M-16.5 -4.5q-6.5 24.5 6.5 47.5l262 438q-135 244 -221 445q-8 25 1 48t32.5 32.5t47 0t33.5 -31.5q72 -172 181 -371l225 377q14 23 38.5 29t46 -7.5t28 -38t-6.5 -44.5l-264 -441l271 -459q12 -23 6 -47t-29 -36.5t-47.5 -6t-36.5 28.5l-235 399l-226 -376 q-12 -23 -36.5 -29t-47 6t-29 36.5z" />
<glyph unicode="y" horiz-adv-x="819" d="M16 930q-8 25 2.5 48t34 31.5t47 -2t31.5 -32.5q49 -129 136 -382t134 -376l35 84q162 397 228 688q4 25 25.5 38t47 8t38.5 -26t7 -48q-68 -301 -233 -705q-197 -483 -359 -631q-18 -18 -43.5 -16t-43 20.5t-15.5 44t21 41.5q96 88 221 346q-61 156 -164 450t-150 419z " />
<glyph unicode="z" horiz-adv-x="808" d="M-16 55q2 10 6 21q6 14 18 35q18 31 55 82l39 53l35 51q14 20 17 25l96 137q-25 -2 -72 -8q-25 -2 -45 13t-22 40.5t13 46t42 22.5q119 12 178 15l62 88l131 186q-10 2 -15 2q-27 0 -55.5 1t-48.5 1h-25q-86 2 -110 4h-9h-2h-2h-6q-51 0 -145 2q-27 0 -44.5 18.5 t-17.5 44.5t18.5 43t43.5 17q96 -2 145 -2h8h7h4h2h2h8q25 -2 102 -4h25q20 0 49 -1t55 -1q51 -2 80 -4q20 -2 33 -4q10 -2 18 -4q20 -8 33 -25q14 -18 12 -41q0 -8 -2 -16q-2 -6 -6 -14q-4 -10 -14 -23q-12 -23 -41 -63l-133 -189l-14 -20q43 -4 81 -13q25 -4 39.5 -25.5 t9 -46t-27 -39t-45.5 -7.5q-66 12 -141 14q-123 -172 -152 -215q-4 -4 -18.5 -23.5t-35 -50.5t-38.5 -55l-21 -29q68 0 195 4q330 12 348 13q25 0 42 -19.5t17 -44t-19 -42t-44 -17.5q-14 0 -340 -13q-133 -4 -203 -4q-22 -1 -39.5 -1t-29.5 1q-16 0 -27 2q-8 2 -14 4 q-20 4 -33 19q-20 27 -12 59z" />
<glyph unicode="{" horiz-adv-x="819" d="M-6 666q-20 49 26 82q10 8 31 16q51 23 66 31q88 49 114 141q10 39 0 125q-18 119 -10 172q14 88 64.5 156.5t118 100.5t149.5 38t158 -27q25 -10 34 -32.5t-0.5 -47t-31.5 -34t-47 -1.5q-109 43 -207.5 -7t-114.5 -167q-6 -33 8 -133q16 -115 -2 -176 q-41 -141 -172 -215q92 -53 121 -141q18 -59 18 -158q0 -96 7 -129q27 -154 118 -199q86 -43 252 -10q25 6 46.5 -8t26.5 -38.5t-9.5 -46t-38.5 -26.5q-209 -43 -332 19q-147 74 -186 289q-6 43 -6 149q0 80 -15 121q-12 45 -71 76q-12 6 -33 16l-21 8q-18 8 -28 17 q-23 16 -33 39z" />
<glyph unicode="|" horiz-adv-x="1208" d="M131 838q25 72 107 98q152 47 292 -113q41 -46 82 -112q37 115 82 194q59 104 143.5 158.5t194.5 13.5q68 -25 107 -92q78 -135 -37 -391q-70 -154 -187 -318l-20 -30l-43 -68q-27 -43 -47 -65q-14 -18 -25 -27q-31 -27 -63 -23q-14 4 -33 15q-8 4 -20 14q-16 12 -43 35 l-66 61l-55 48q-41 35 -72 63l-76 72q-43 43 -76 80q-197 223 -145 387z" />
<glyph unicode="}" horiz-adv-x="804" d="M-44 1462.5q-5 24.5 9.5 46t38.5 25.5q207 45 332 -16q147 -72 186 -285q8 -39 10 -152q2 -80 17 -120q14 -45 72 -74q12 -6 31.5 -14.5t21.5 -10.5q47 -23 61 -55q12 -31 -8 -59q-6 -8 -14 -15q-4 -4 -13 -8q-2 -2 -24 -12q-37 -18 -64 -37q-90 -63 -112 -141 q-10 -37 2 -125q18 -119 12 -170q-12 -90 -62.5 -158t-118 -101.5t-149.5 -41t-157 25.5q-25 10 -34 32.5t0 47.5t31.5 34t47.5 1q109 -43 206 9t113 167q6 35 -10 135q-16 113 0 176q35 123 162 209l10 6q-94 53 -123 142q-18 59 -20 156.5t-7 127.5q-31 154 -122 199 q-86 43 -252 8q-25 -6 -46.5 8.5t-26.5 39z" />
<glyph unicode="~" horiz-adv-x="890" d="M-29 1029.5q-6 25.5 6 45.5q72 123 136 174q57 47 116 54q74 6 140 -54q20 -16 71 -90q37 -53 49 -61q49 -31 113 2q61 33 113 100q14 23 38.5 27t46 -11.5t25.5 -40t-12 -45.5q-66 -94 -154 -139q-127 -66 -235 4q-33 20 -84 92q-43 61 -53 72q-27 23 -47 21 q-23 -2 -50 -25q-45 -39 -106 -141q-12 -23 -38 -29t-47.5 6.5t-27.5 38z" />
<glyph unicode="&#xa1;" horiz-adv-x="296" d="M53 612q0 90 7.5 306.5t7.5 259.5q0 25 18 42t44 17t43 -18t17 -45q-2 -47 -8 -260.5t-6 -300.5t11.5 -241.5t35.5 -277.5q6 -25 -8 -46t-38.5 -26.5t-46 9t-26.5 39.5q-29 127 -40 289.5t-11 252.5zM70 1364q0 25 18 43t43 18t43.5 -18t18.5 -43t-18.5 -43t-43.5 -18 t-43 18t-18 43z" />
<glyph unicode="&#xa2;" horiz-adv-x="720" d="M1.5 387q-21.5 166 49.5 346q57 139 143.5 209t182.5 37q88 -29 133 -131.5t41 -241.5q0 -25 -19.5 -42t-44 -17t-42 19t-17.5 44q4 113 -25.5 177.5t-64.5 74.5q-18 6 -41 -1t-60.5 -51t-70.5 -122q-41 -100 -45 -197.5t19.5 -163t66.5 -104.5q59 -53 139 -26 q106 33 213 190q14 20 40 25.5t46.5 -9t25.5 -40t-9 -46.5q-129 -190 -276.5 -237t-260.5 51q-102 90 -123.5 256zM248 1091.5q0 24.5 18.5 43t43 18.5t43 -18.5t18.5 -43t-18.5 -43t-43 -18.5t-43 18.5t-18.5 43zM276 -63.5q0 24.5 18.5 43t43 18.5t43 -18.5t18.5 -43 t-18.5 -43t-43 -18.5t-43 18.5t-18.5 43z" />
<glyph unicode="&#xa3;" horiz-adv-x="1062" d="M-71.5 691.5q2.5 25.5 22.5 41.5q117 98 270 80l12 43q6 29 23 98l27 113q10 43 32 104q23 59 50 105q43 74 111.5 125t144.5 61q88 12 153 -37q68 -53 90 -161q6 -25 -7 -46.5t-38.5 -26.5t-47 8t-26.5 40q-14 63 -47 88q-25 18 -61 12q-43 -4 -89 -38.5t-77 -86.5 q-23 -39 -41 -90t-28.5 -89t-25 -105.5t-24.5 -102.5l-10 -41q68 -18 97.5 -24t75.5 -5t85 17q25 8 48.5 -1t32.5 -32.5t0 -47t-32 -34.5q-57 -25 -126.5 -25.5t-105.5 7.5t-106 27q-57 -229 -94 -361l-27 -92q20 12 39 21q104 45 195 4q29 -12 63 -37q37 -29 48 -33 q137 -84 202 -53q53 27 142 180q12 23 36.5 29t47 -6.5t28.5 -37t-6 -46.5q-35 -59 -58.5 -95.5t-60.5 -75t-75 -59.5q-125 -59 -322 57q-12 8 -53 39q-27 18 -41 27q-41 18 -96 -6q-43 -18 -109 -72q-2 -2 -4 -6t-6 -11t-6 -9q-14 -23 -27 -31q-29 -25 -64 -10 q-31 10 -40 43l-3 32q2 4 5 13q2 12 8 32q6 25 24 91l41 145l95 352q-92 6 -164 -53q-18 -16 -44 -14t-42.5 21.5t-14 45z" />
<glyph unicode="&#xa4;" horiz-adv-x="1050" d="M10 281.5q2 25.5 23 42.5q119 100 170 159q-33 76 -29 168q4 107 57 199q-74 63 -141 137q-16 18 -15 44t19.5 42.5t44 15t41.5 -19.5q61 -66 129 -125q63 53 146 70q18 20 47 18q100 -6 178 -45l133 141q18 18 44 18.5t44.5 -17t18.5 -43t-17 -44.5l-125 -129 q94 -104 82 -256q-8 -90 -57 -172l162 -166q16 -18 16 -43.5t-18.5 -43t-44 -17.5t-44.5 18l-153 160q-96 -82 -227.5 -86t-217.5 74q-53 -55 -165 -152q-18 -16 -44 -14t-42.5 21.5t-14.5 45zM295 645q-2 -94 45 -156q51 -63 149 -59q102 4 171 73.5t77 166.5 q8 86 -42 152.5t-165 82.5q-12 -6 -24 -8q-92 -8 -149.5 -81t-61.5 -171z" />
<glyph unicode="&#xa5;" horiz-adv-x="1185" d="M-41 782.5q-2 24.5 14.5 45t40.5 22.5l232 24l-19 62q-33 117 -67 285q-8 31 -16.5 75.5t-14.5 71.5l-10 47q-6 25 7 46.5t37.5 27.5t46.5 -7t28 -38l10 -47l16 -74l15 -78q35 -164 67 -274q12 -45 25 -84q184 16 325 26l19 48q78 201 145 466q6 25 27.5 38.5t46 7 t38 -28t7.5 -45.5q-68 -274 -148 -477q117 4 224 4q25 0 43 -18.5t18 -43t-18.5 -43t-42.5 -18.5q-131 0 -277 -8q-39 -84 -78 -142q-53 -78 -108 -108q188 16 383 16q25 0 43 -18.5t18 -43t-18.5 -43t-42.5 -18.5q-201 0 -393 -18q-2 -39 -7.5 -181.5t-7.5 -218.5 q0 -27 -18.5 -44t-44 -17t-43 18.5t-17.5 42.5q2 78 7.5 219.5t7.5 168.5q-158 -18 -314 -50q-25 -6 -46 8.5t-26 39t9 46t39 25.5q170 35 340 55v3q-74 29 -133 137l-39 82l-262 -27q-25 -2 -45.5 14.5t-22.5 41zM418 768l18 -37q45 -82 78 -84q31 -2 84 76q21 26 39 63z " />
<glyph unicode="&#xa6;" horiz-adv-x="509" d="M301 442q-2 27 15.5 45.5t43 20.5t44 -15t20.5 -42q4 -76 5 -156t0 -200t-1 -154q0 -25 -18.5 -43.5t-43 -18.5t-43 18.5t-18.5 43.5q0 37 1 153.5t0 194.5t-5 153zM305 889q0 37 6 206t6 259q0 25 18.5 43t43 18t43 -18t18.5 -43q0 -90 -6 -260t-6 -209 q0 -25 -18.5 -42.5t-44 -17.5t-43 18.5t-17.5 45.5z" />
<glyph unicode="&#xa7;" horiz-adv-x="657" d="M41 758q2 63 51 114q37 37 98 62q-61 68 -96 125q-82 135 -28 260q43 96 137 131t190 4q100 -31 161.5 -122t53.5 -224q-2 -25 -21.5 -42t-44 -15t-42 21t-15.5 44q6 90 -31.5 146.5t-97.5 74.5q-57 18 -106 -1t-72 -66q-29 -66 21 -148q33 -55 151 -180 q125 -131 162 -205q68 -139 -8 -266q-8 -10 -19 -18q170 -170 119 -344q-35 -115 -118 -158t-177 -17q-84 27 -147.5 99.5t-79.5 167.5q-4 27 11.5 47t41 24t46 -11t24.5 -40q8 -59 49 -106t92 -62q102 -31 139 92q35 111 -110 242q-33 31 -146 117q-96 76 -133 121 q-55 66 -55 133zM164 756q0 -20 26 -54q29 -35 115 -100l90 -72q2 2 2 7q43 68 4 145q-26 58 -116 154q-72 -16 -107 -52q-14 -14 -14 -28z" />
<glyph unicode="&#xa8;" horiz-adv-x="440" d="M27 1353.5q0 24.5 18 43t43 18.5t43.5 -18.5t18.5 -43t-18.5 -43t-43.5 -18.5t-43 18.5t-18 43zM246 1347.5q0 24.5 18.5 43t43 18.5t43 -18.5t18.5 -43t-18.5 -43t-43 -18.5t-43 18.5t-18.5 43z" />
<glyph unicode="&#xa9;" d="M41 645q4 260 94 477q100 242 258 305q18 6 42 11.5t49.5 8.5t27.5 3q25 6 45 -8h4q193 -55 299 -305q90 -217 86 -492q-6 -279 -108 -467q-125 -227 -344 -221q-236 6 -359 229q-98 182 -94 459zM164 643q-4 -244 80 -399q88 -160 254 -164q143 -4 231 157.5t94 409.5 q4 250 -75 443q-84 195 -220 233q-6 2 -10 4q-74 -12 -80 -14q-111 -43 -188 -238q-82 -195 -86 -432zM264 797q18 115 71.5 199.5t129.5 103.5q90 20 158 -64q55 -72 79 -213q4 -25 -11 -46t-39.5 -25t-46 11t-25.5 40q-16 111 -54 158q-18 23 -32 18q-27 -6 -60 -58.5 t-47 -144.5q-27 -156 4 -268q12 -49 28.5 -81t32 -45t26.5 -18.5t22 -3.5q29 4 62.5 44t55.5 122q6 25 29 37t47.5 6t36.5 -28.5t6 -46.5q-29 -104 -87 -175t-136 -81q-86 -10 -148.5 56t-93.5 181q-37 139 -8 322z" />
<glyph unicode="&#xaa;" horiz-adv-x="745" d="M88 834q-31 100 51 215q59 82 187 147l45 21q35 18 47 25t34.5 21.5t39.5 28.5q4 4 8 6q-4 25 -11 37q-10 18 -83 8q-102 -14 -218 -98q-20 -16 -45.5 -12t-41 24.5t-11 46t24.5 39.5q141 102 274 123q156 23 207 -71q10 -18 17.5 -45t9.5 -42.5t5 -54.5t3 -41 q20 -223 26 -264q6 -29 21 -78l24 -82q6 -25 -6 -47t-36.5 -28t-47 6t-28.5 37q-4 12 -7.5 25.5t-8.5 29.5t-9 25l-2 10q-74 -86 -161 -122t-167 -17q-51 10 -89 42.5t-52 84.5zM205 868q10 -33 51 -43q55 -12 131 32t137 159q-4 37 -12 139q-20 -12 -131 -70 q-100 -53 -143 -110q-45 -63 -33 -107z" />
<glyph unicode="&#xab;" horiz-adv-x="966" d="M-8 518q0 14 4 27q2 4 4 6t4 6l2 2l4 4l8 12l33 35l99 111q145 166 172 205q12 23 37.5 27.5t47 -8.5t26.5 -39t-9 -46q-31 -49 -182 -221l-101 -111l-20 -24q8 -16 26 -35q33 -35 97 -76q51 -31 123 -67l100 -50q23 -12 30 -36.5t-4.5 -47t-36 -29.5t-46.5 3l-99 49 q-78 41 -131 74q-78 49 -123 96q-63 66 -65 133zM416 543q-2 18 6 37q2 4 6 10q2 2 5 6t9 10l29 29l86 84q141 139 172 172q16 18 42 20t44.5 -15t20 -43t-16.5 -44q-39 -43 -176 -178l-86 -84l-4 -2q8 -10 18 -21q37 -37 99 -84q119 -88 190 -125q25 -12 32 -35.5t-4 -47 t-35 -30.5t-46 3q-84 41 -211 139q-70 51 -111 94q-61 59 -69 105z" />
<glyph unicode="&#xac;" horiz-adv-x="905" d="M2 659.5q0 24.5 18 43t43 18.5q68 0 147 5t134 10t148 16q74 8 137 14l63 6l43 4l15 2h4h2h2h4h6l12 -4q23 -6 33 -29q18 -33 21 -88q2 -37 -5 -90q-4 -33 -12 -86t-8 -63q-4 -27 -23.5 -42.5t-45 -12t-41 23t-13.5 43.5q2 12 9 64.5t12 85.5q4 43 4 71l-6 -2l-64 -6 q-49 -4 -139 -14q-96 -10 -152.5 -15.5t-137.5 -10.5t-149 -5q-25 0 -43 18.5t-18 43z" />
<glyph unicode="&#xad;" horiz-adv-x="647" d="M-4 618.5q0 24.5 18 43t43 18.5q166 0 445 53q25 6 46 -8t26.5 -38.5t-9 -46.5t-39.5 -26q-291 -57 -469 -57q-25 0 -43 18.5t-18 43z" />
<glyph unicode="&#xae;" d="M41 645q4 260 94 477q100 242 258 305q18 6 42 11.5t49.5 8.5t27.5 3q25 6 45 -8h4q193 -55 299 -305q90 -217 86 -492q-6 -279 -108 -467q-125 -227 -344 -221q-236 6 -359 229q-98 182 -94 459zM164 643q-4 -244 80 -399q88 -160 254 -164q143 -4 231 157.5t94 409.5 q4 250 -75 443q-84 195 -220 233q-6 2 -10 4q-74 -12 -80 -14q-111 -43 -188 -238q-82 -195 -86 -432zM282 945q5 24 25 38q14 39 58 39q8 0 16 -2q100 39 180 20q53 -14 89 -51t48 -86q16 -82 -33 -158.5t-149 -119.5q72 -90 186 -174q20 -14 24.5 -40t-11 -46.5t-41 -24.5 t-45.5 12q-127 94 -209 197q0 -68 6 -125q2 -27 -14.5 -46.5t-42 -21.5t-45 14.5t-21.5 41.5q-10 117 -6 278q0 31 2 95.5t4 99.5q-8 6 -14 16q-12 20 -7 44zM420 721q92 25 129 73t28.5 82.5t-45.5 43.5q-43 10 -106 -15q0 -12 -6 -184z" />
<glyph unicode="&#xaf;" horiz-adv-x="813" d="M-8 1345.5q0 24.5 18 43t43 18.5q330 0 619 41q25 2 45 -13.5t23 -40t-12 -45t-40 -24.5q-295 -41 -635 -41q-25 0 -43 18.5t-18 43z" />
<glyph unicode="&#xb0;" horiz-adv-x="638" d="M-25 997q6 102 43 213t84 174q43 59 66 78q6 6 74 54q24 18 53 10q14 2 27 -2q98 -27 160.5 -100.5t80.5 -161.5q18 -86 6 -179q-18 -143 -106 -256q-88 -111 -225 -122q-145 -12 -215 86q-53 76 -48 206zM98 991q-4 -88 25 -131q29 -39 102 -33q84 8 145.5 85t78.5 188 q14 109 -27 192.5t-127 110.5q-41 -27 -45 -31q-12 -12 -49 -61q-35 -47 -67 -140.5t-36 -179.5z" />
<glyph unicode="&#xb1;" horiz-adv-x="851" d="M1 797.5q1 25.5 19 42t43 16.5q113 -4 242 6q-4 66 -10 191q0 25 16.5 43t42 19t44 -15.5t20.5 -42.5q4 -119 8 -183q70 8 201 29q25 4 45 -11t24 -41t-11 -46.5t-42 -24.5q-135 -20 -205 -28q8 -92 25 -172q6 -25 -8.5 -46.5t-39 -26.5t-46 9t-25.5 39q-18 86 -29 184 q-135 -10 -256 -6q-27 2 -43 20.5t-15 44zM51 322.5q-2 25.5 14 45t41 21.5q43 4 187.5 19.5t240 21.5t187.5 6q25 0 43 -18.5t18 -43t-18.5 -43t-42.5 -18.5q-92 0 -185.5 -6t-231.5 -21.5t-185 -19.5q-27 -2 -46.5 14.5t-21.5 42z" />
<glyph unicode="&#xb2;" horiz-adv-x="665" d="M10 666q0 10 4 18q2 6 4 10t4.5 6t2.5 5l2 2l6 4l14 18l49 51l84 90q121 125 187 211q109 143 104 209q0 14 -4 23.5t-6 11.5h-4q-18 8 -64 -8q-49 -18 -99 -55t-69 -64q-16 -20 -40.5 -25.5t-45 10t-25.5 40.5t9 45q33 45 97.5 92t129.5 72q88 33 150 10 q86 -33 94 -143.5t-129 -290.5q-72 -94 -195 -224l-55 -57q31 0 68 2q47 2 102 4l86 6q35 2 39 2q25 2 43 -15t20 -43t-15 -44t-44 -21q-2 0 -35 -2l-90 -6q-51 -2 -100 -4q-100 -4 -146 -6h-51h-20q-6 2 -11 2q-18 2 -32 19q-18 18 -19 45z" />
<glyph unicode="&#xb3;" horiz-adv-x="673" d="M19 684q-7 25 4.5 47.5t36 29.5t46.5 -3q45 -25 115 -28t137 18q139 45 127 155q-4 35 -32.5 75t-63.5 56q-39 18 -86 0l-20 -8q-18 -8 -35 -8q-29 0 -47 20q-16 18 -19 45q0 16 8.5 39t32.5 41q10 8 29 19l70 41q76 53 79 94q2 14 0 22q-23 8 -77 -10t-113 -52t-82 -54 q-18 -18 -44 -16.5t-43 20t-15 44.5t20 42q31 29 101.5 69.5t136.5 63.5q96 31 155 10q47 -14 68 -57q20 -39 16 -94q-8 -84 -94 -154q6 -2 12 -6q61 -29 109.5 -94.5t56.5 -135.5q10 -109 -51 -181t-160 -103q-86 -27 -182 -23t-166 39q-23 12 -30 37z" />
<glyph unicode="&#xb4;" horiz-adv-x="385" d="M18 1233q39 143 193 323q16 18 42 20.5t45 -14t21 -42t-14 -45.5q-137 -158 -168 -275q-6 -25 -28.5 -37t-47 -6t-37 28.5t-6.5 47.5z" />
<glyph unicode="&#xb5;" horiz-adv-x="813" d="M12 -113q113 547 86 1119q-2 25 15.5 43t43 20t44 -15.5t20.5 -43.5q16 -346 -20 -697q20 -68 56 -115.5t73 -62.5q33 -12 61 4q43 25 80 105q53 115 70 362q10 170 2 398q0 25 17.5 44t42 19t44 -17.5t19.5 -41.5q8 -225 -4 -408q-14 -205 -50 -328q4 -6 6 -12 q37 -78 115 -176q16 -20 13 -46t-22 -41t-45 -12t-40 21q-57 72 -90 125q-43 -68 -98 -98q-80 -47 -166 -13q-59 25 -111 84q-18 -123 -43 -241q-4 -25 -25.5 -39t-46 -9t-39 26.5t-8.5 45.5z" />
<glyph unicode="&#xb6;" horiz-adv-x="892" d="M92 977q-2 123 64 231q66 111 170 178q70 45 146.5 67t162.5 10.5t160 -58.5q20 -12 26 -35.5t-6 -44.5q4 -233 -7 -665.5t-11 -610.5q0 -25 -18.5 -43t-43 -18t-43 18.5t-18.5 42.5q0 152 4 357q-47 18 -92 38q-6 -231 -6 -393q0 -25 -18.5 -43t-43 -18t-43 18.5 t-18.5 42.5q0 176 8 457q-84 47 -148 96q-223 174 -225 373zM215 977q2 -139 176 -275q35 -29 76 -53q12 438 8 676q-43 -14 -82 -41q-82 -53 -131 -137q-49 -82 -47 -170zM588 580l94 -43q14 553 10 784q-45 20 -94 22q4 -242 -10 -763z" />
<glyph unicode="&#xb7;" horiz-adv-x="237" d="M43 813q0 25 18.5 43t43 18t43 -18t18.5 -43t-18.5 -43t-43 -18t-43 18t-18.5 43z" />
<glyph unicode="&#xb8;" horiz-adv-x="294" d="M-53 -187.5q-2 25.5 14 44.5q94 115 143 274q8 25 31 36t47.5 4t35.5 -29.5t5 -47.5q-57 -182 -168 -315q-16 -20 -41.5 -22.5t-45 14t-21.5 42z" />
<glyph unicode="&#xb9;" horiz-adv-x="485" d="M285 1040q2 326 2 361q0 27 17.5 45t43 18t44 -17t18.5 -42q0 -39 -2 -365q-2 -221 8 -358q2 -25 -14.5 -44.5t-42 -21.5t-45 14.5t-21.5 43.5q-10 141 -8 366z" />
<glyph unicode="&#xba;" horiz-adv-x="755" d="M109 1073q18 160 94 275q90 137 227 145q39 2 57 -31q8 -4 15 -6q123 -76 170 -218t22 -288q-10 -68 -36.5 -129t-68.5 -111.5t-105.5 -75t-135.5 -13.5q-141 20 -205 170q-53 121 -34 282zM231.5 1061q-14.5 -129 24.5 -221q37 -86 109 -97q76 -12 133 49.5t75 176.5 q20 119 -16.5 224t-120.5 157q-10 8 -18 18q-63 -14 -113 -88q-59 -90 -73.5 -219z" />
<glyph unicode="&#xbb;" horiz-adv-x="983" d="M26 979q5 25 26.5 39t46 9t38.5 -28q100 -154 289 -327q4 -2 7 -4t10.5 -6.5t17.5 -12.5q49 -37 47 -88q-2 -25 -19 -55q-12 -23 -32 -53q-35 -47 -92 -117q-102 -121 -172 -189q-18 -16 -44 -16t-43.5 18.5t-17.5 44t18 44.5q66 61 164 178q55 66 86 108q12 18 21 33 q-25 16 -33 25q-201 184 -309 352q-14 20 -9 45zM352.5 983q-0.5 25 18 43t43.5 18t43 -18q229 -227 358 -324q6 -4 16.5 -9t22.5 -13q47 -27 59 -68q6 -27 -4 -51q-6 -14 -16 -26q-12 -18 -39 -43q-14 -14 -115 -103q-166 -145 -194 -209q-10 -25 -34 -33t-47.5 2.5 t-31.5 34t2 45.5q39 88 225 252q98 86 109 99l6 4q-23 12 -33 20q-133 98 -370 336q-18 18 -18.5 43z" />
<glyph unicode="&#xbc;" horiz-adv-x="1572" d="M155 -5q-3 26 13 46q526 664 1012 1384q14 20 38.5 25.5t46 -9t26.5 -39t-9 -46.5q-489 -725 -1020 -1393q-14 -18 -39.5 -21t-45 12t-22.5 41zM199 635q25 367 16 756q0 27 17.5 45t43 18t44 -17t18.5 -42q8 -397 -16 -768q-2 -25 -21.5 -42.5t-44.5 -15.5t-42 21.5 t-15 44.5zM850 258q-6 23 2 51q4 12 14 29q12 25 39 65q41 59 125 172l90 117l86 115q33 45 45 63q14 20 40 25.5t46.5 -9t24.5 -38.5q6 -11 6 -23q4 -84 4 -497q55 4 66 4q27 2 45 -15.5t20 -43t-15.5 -44t-41.5 -20.5q-12 0 -72 -4q2 -74 4 -137q2 -25 -15 -43.5 t-43 -20.5t-44.5 15.5t-20.5 43.5q-2 61 -4 134q-53 -4 -98 -7q-106 -4 -170 3q-41 2 -65 10q-53 14 -68 55zM995 313q55 -4 154 0q45 2 100 6q0 25 1 171.5t-1 173.5l-121 -162q-84 -113 -120 -166z" />
<glyph unicode="&#xbd;" horiz-adv-x="1501" d="M155 -5q-3 26 13 46q526 664 1012 1384q14 20 38.5 25.5t46 -9t26.5 -39t-9 -46.5q-489 -725 -1020 -1393q-14 -18 -39.5 -21t-45 12t-22.5 41zM199 635q25 367 16 756q0 27 17.5 45t43 18t44 -17t18.5 -42q8 -397 -16 -768q-2 -25 -21.5 -42.5t-44.5 -15.5t-42 21.5 t-15 44.5zM725 49q-6 25 8 49q6 6 12 15q8 8 23 20q18 14 66 47l190 142q121 94 184 161q72 78 72 113q0 31 -16 43q-47 31 -138 -33q-70 -49 -145 -141q-16 -20 -42 -22.5t-45.5 14t-21 42.5t14.5 44q86 104 170 164q158 111 272 34q37 -23 55.5 -63.5t18.5 -81.5 q0 -84 -105 -197q-72 -76 -200 -176l-148 -108h219q94 0 197 6q27 2 45.5 -15.5t20.5 -43t-15.5 -44t-42.5 -20.5q-106 -6 -205 -6h-262h-63q-29 0 -47 2q-14 2 -23 4q-10 4 -18 8q-25 14 -31 43z" />
<glyph unicode="&#xbe;" horiz-adv-x="1572" d="M8.5 1307q0.5 25 18.5 43q94 94 233 133q193 53 281 -78q45 -68 28 -137q-12 -55 -63 -105q-31 -31 -74 -55q63 -31 111 -72q133 -119 84 -262q-51 -156 -260 -170q-129 -10 -281 35q-25 8 -36 30.5t-4 47t29.5 36t47.5 5.5q129 -39 235 -33q125 10 154 90q20 63 -51 129 q-72 63 -162 80h-4q-2 0 -10.5 -1t-12.5 -3q-25 -2 -43 2q-51 16 -51 70q0 45 39 65q16 10 41 12q23 2 27 2q90 35 135 80q25 23 31 43q4 18 -13 41q-39 59 -145 29q-109 -29 -180 -100q-18 -18 -43 -18.5t-43.5 18t-18 43.5zM153 -5q-3 26 13 46q526 664 1012 1384 q14 20 38.5 25.5t46 -9t26.5 -39t-9 -46.5q-489 -725 -1020 -1393q-14 -18 -39.5 -21t-45 12t-22.5 41zM848 258q-6 23 2 51q4 12 14 29q12 25 39 65q41 59 125 172l90 117l86 115q33 45 45 63q14 20 40 25.5t46.5 -9t24.5 -38.5q6 -11 6 -23q4 -84 4 -497q55 4 66 4 q27 2 45 -15.5t20 -43t-15.5 -44t-41.5 -20.5q-12 0 -72 -4q2 -74 4 -137q2 -25 -15.5 -43.5t-43 -20.5t-44 15.5t-20.5 43.5q-2 61 -4 134q-53 -4 -98 -7q-106 -4 -170 3q-41 2 -66 10q-53 14 -67 55zM993 313q55 -4 154 0q45 2 100 6q0 25 1 171.5t-1 173.5l-121 -162 q-84 -113 -120 -166z" />
<glyph unicode="&#xbf;" horiz-adv-x="827" d="M-24 166.5q-11 62.5 4 109.5q14 61 47.5 130t56 103t81 110.5t66.5 89.5q78 106 114 203.5t20 220.5q-2 27 13 46t40.5 22t45 -12t23.5 -40q18 -154 -25.5 -272.5t-131.5 -241.5l-68 -92q-55 -74 -74.5 -102.5t-48 -85t-41.5 -107.5q-6 -27 -1 -58.5t22 -50.5 q37 -47 100 -35q72 14 168 89q86 63 162 149t104 137q12 23 36 30t46.5 -5t29.5 -35.5t-5 -46.5q-33 -63 -118 -159.5t-179 -168.5q-119 -90 -219 -110q-139 -27 -224 77q-33 43 -44 105.5zM346 1382.5q0 24.5 18.5 43t43 18.5t43 -18.5t18.5 -43t-18.5 -43t-43 -18.5 t-43 18.5t-18.5 43z" />
<glyph unicode="&#xc0;" horiz-adv-x="1280" d="M80 33q33 158 92 348q-27 -6 -47.5 8t-25.5 40t9.5 46.5t38.5 24.5l68 14l164 473l104 322l21 65q8 29 14 45q4 12 6 19.5t6 11.5q4 10 13 16q14 10 30 15q29 4 52 -17q12 -10 18 -28q4 -6 8 -19q6 -16 15 -49l39 -141l22 -97l21 -81q8 -29 10 -33q94 -305 143 -438 q66 0 129 -7q25 -2 41 -21.5t14 -45t-21.5 -42t-45.5 -13.5q-33 4 -68 4q104 -246 252 -437q14 -18 11 -43.5t-22.5 -41t-45 -12.5t-41.5 24q-166 213 -287 514q-221 -2 -508 -51q-72 -221 -110 -398q-4 -25 -25.5 -39t-46.5 -9t-39 26.5t-8 46.5zM352 537q229 37 418 41 q-43 121 -131 401q0 4 -8 34.5t-23 84.5l-22 98l-4 12l-88 -262zM402.5 1656.5q-5.5 24.5 9 46t39 26.5t47.5 -9q168 -113 250 -149q23 -8 31.5 -33t-0.5 -47.5t-33.5 -31.5t-47.5 1q-92 39 -270 158q-20 14 -25.5 38.5z" />
<glyph unicode="&#xc1;" horiz-adv-x="1280" d="M80 33q33 158 92 348q-27 -6 -47.5 8t-25.5 40t9.5 46.5t38.5 24.5l68 14l164 473l104 322l21 65q8 29 14 45q4 12 6 19.5t6 11.5q4 10 13 16q14 10 30 15q29 4 52 -17q12 -10 18 -28q4 -6 8 -19q6 -16 15 -49l39 -141l22 -97l21 -81q8 -29 10 -33q94 -305 143 -438 q66 0 129 -7q25 -2 41 -21.5t14 -45t-21.5 -42t-45.5 -13.5q-33 4 -68 4q104 -246 252 -437q14 -18 11 -43.5t-22.5 -41t-45 -12.5t-41.5 24q-166 213 -287 514q-221 -2 -508 -51q-72 -221 -110 -398q-4 -25 -25.5 -39t-46.5 -9t-39 26.5t-8 46.5zM352 537q229 37 418 41 q-43 121 -131 401q0 4 -8 34.5t-23 84.5l-22 98l-4 12l-88 -262z" />
<glyph unicode="&#xc2;" horiz-adv-x="1280" d="M80 33q33 158 92 348q-27 -6 -47.5 8t-25.5 40t9.5 46.5t38.5 24.5l68 14l164 473l104 322l21 65q8 29 14 45q4 12 6 19.5t6 11.5q4 10 13 16q14 10 30 15q29 4 52 -17q12 -10 18 -28q4 -6 8 -19q6 -16 15 -49l39 -141l22 -97l21 -81q8 -29 10 -33q94 -305 143 -438 q66 0 129 -7q25 -2 41 -21.5t14 -45t-21.5 -42t-45.5 -13.5q-33 4 -68 4q104 -246 252 -437q14 -18 11 -43.5t-22.5 -41t-45 -12.5t-41.5 24q-166 213 -287 514q-221 -2 -508 -51q-72 -221 -110 -398q-4 -25 -25.5 -39t-46.5 -9t-39 26.5t-8 46.5zM316.5 1539 q5.5 26 25.5 40q63 43 158 117q33 27 49 37q33 20 63 18q35 -2 66 -27q16 -12 43 -43q106 -123 133 -149q16 -18 16 -44t-18 -43.5t-44 -17.5t-44 19q-10 12 -135 153q-14 16 -23 25q-10 -6 -31 -22q-102 -82 -163 -125q-20 -14 -46 -9t-40.5 25t-9 46zM352 537 q229 37 418 41q-43 121 -131 401q0 4 -8 34.5t-23 84.5l-22 98l-4 12l-88 -262z" />
<glyph unicode="&#xc3;" horiz-adv-x="1280" d="M80 33q33 158 92 348q-27 -6 -47.5 8t-25.5 40t9.5 46.5t38.5 24.5l68 14l164 473l104 322l21 65q8 29 14 45q4 12 6 19.5t6 11.5q4 10 13 16q14 10 30 15q29 4 52 -17q12 -10 18 -28q4 -6 8 -19q6 -16 15 -49l39 -141l22 -97l21 -81q8 -29 10 -33q94 -305 143 -438 q66 0 129 -7q25 -2 41 -21.5t14 -45t-21.5 -42t-45.5 -13.5q-33 4 -68 4q104 -246 252 -437q14 -18 11 -43.5t-22.5 -41t-45 -12.5t-41.5 24q-166 213 -287 514q-221 -2 -508 -51q-72 -221 -110 -398q-4 -25 -25.5 -39t-46.5 -9t-39 26.5t-8 46.5zM301 1583.5 q0 24.5 18 42.5q109 109 197 100q57 -6 121 -77q33 -33 41 -35q29 0 94 69q16 18 42 19.5t44.5 -15t19.5 -42t-16 -43.5q-104 -115 -190 -111q-59 4 -125 76q-33 35 -45 37q-29 4 -96 -64q-18 -18 -43 -18t-43.5 18.5t-18.5 43zM352 537q229 37 418 41q-43 121 -131 401 q0 4 -8 34.5t-23 84.5l-22 98l-4 12l-88 -262z" />
<glyph unicode="&#xc4;" horiz-adv-x="1280" d="M80 33q33 158 92 348q-27 -6 -47.5 8t-25.5 40t9.5 46.5t38.5 24.5l68 14l164 473l104 322l21 65q8 29 14 45q4 12 6 19.5t6 11.5q4 10 13 16q14 10 30 15q29 4 52 -17q12 -10 18 -28q4 -6 8 -19q6 -16 15 -49l39 -141l22 -97l21 -81q8 -29 10 -33q94 -305 143 -438 q66 0 129 -7q25 -2 41 -21.5t14 -45t-21.5 -42t-45.5 -13.5q-33 4 -68 4q104 -246 252 -437q14 -18 11 -43.5t-22.5 -41t-45 -12.5t-41.5 24q-166 213 -287 514q-221 -2 -508 -51q-72 -221 -110 -398q-4 -25 -25.5 -39t-46.5 -9t-39 26.5t-8 46.5zM352 537q229 37 418 41 q-43 121 -131 401q0 4 -8 34.5t-23 84.5l-22 98l-4 12l-88 -262zM420 1636.5q0 24.5 18.5 43t43 18.5t43 -18.5t18.5 -43t-18.5 -43t-43 -18.5t-43 18.5t-18.5 43zM641 1640.5q0 24.5 18.5 43t43 18.5t43 -18.5t18.5 -43t-18.5 -43t-43 -18.5t-43 18.5t-18.5 43z" />
<glyph unicode="&#xc5;" horiz-adv-x="1280" d="M80 33q33 158 92 348q-27 -6 -47.5 8t-25.5 40t9.5 46.5t38.5 24.5l68 14l164 473q70 207 104 322l13 39q-78 6 -131 43q-86 57 -84 157q2 90 74.5 160t181.5 80q127 12 214 -41t93 -148q4 -76 -45 -134t-135 -87l2 -10l39 -141l22 -97l21 -81q8 -29 10 -33 q94 -305 143 -438q66 0 129 -7q25 -2 41 -21.5t14 -45t-21.5 -42t-45.5 -13.5q-33 4 -68 4q104 -246 252 -437q14 -18 11 -43.5t-22.5 -41t-45 -12.5t-41.5 24q-166 213 -287 514q-221 -2 -508 -51q-72 -221 -110 -398q-4 -25 -25.5 -39t-46.5 -9t-39 26.5t-8 46.5zM352 537 q229 37 418 41q-43 121 -131 401q0 4 -8 34.5t-23 84.5l-22 98l-4 12l-88 -262zM403 1546q0 -35 29 -53q33 -23 90 -25q15 13 33 15q49 4 85 17t52.5 30.5t22.5 32t6 28.5q-2 16 -14.5 33.5t-53.5 32.5q-43 14 -104 8q-68 -6 -105.5 -44t-40.5 -75z" />
<glyph unicode="&#xc6;" horiz-adv-x="1910" d="M80 33q45 209 137 487q-20 8 -32.5 25.5t-10.5 40.5q4 27 23.5 42t44.5 13l16 -2l121 348l104 322l21 65l2 8q-2 6 -2 15q0 31 22 49l4 4q4 10 13 16q14 10 30 15q29 4 52 -17q2 -2 6 -4q74 2 227 21q205 25 309 24q25 0 43.5 -18.5t18.5 -43t-18.5 -43t-43.5 -18.5 q-98 0 -295 -22q-131 -16 -198 -21l31 -112l22 -97l21 -81q8 -29 10 -33q86 -283 131 -404q281 16 534 97q25 6 47.5 -5.5t29.5 -36t-4 -47t-36 -30.5q-252 -78 -526 -96q106 -262 248 -451q403 45 604 41q25 0 42 -18.5t17 -44t-18.5 -43t-44.5 -17.5q-188 4 -611 -43h-12 q-33 -2 -55 25q-174 221 -299 544q-203 -4 -463 21q-98 -291 -143 -500q-4 -25 -25.5 -39t-46.5 -9t-39 26.5t-8 46.5zM383 627q209 -18 377 -19q-39 111 -121 371q0 4 -8 34.5t-23 84.5l-22 98l-4 12l-88 -262z" />
<glyph unicode="&#xc7;" horiz-adv-x="1103" d="M2 541q-12 248 68 497q43 131 124.5 237.5t182.5 149.5q119 49 225 -12q109 -61 176 -235q8 -25 -2 -47.5t-33.5 -31.5t-46 1t-32.5 33q-51 133 -123 174q-53 31 -117 4q-70 -29 -135 -115q-66 -84 -101 -195q-74 -231 -63 -454q14 -264 149 -400q45 -43 129 -65 q176 -45 326 104q131 131 195 342q8 25 30.5 36t47 4t36 -29.5t4.5 -46.5q-74 -240 -227 -394q-160 -158 -352 -149l-10 -17q25 -14 43 -32q74 -68 47 -138q-20 -49 -94 -73q-68 -23 -181 -27q-25 0 -44 17.5t-19 42t17.5 44t41.5 19.5q94 4 146 20q2 0 6 2l-2 3 q-14 12 -33 20q-35 18 -47 35q-31 39 -6 92l8 16q-88 29 -148 88q-170 166 -186 480z" />
<glyph unicode="&#xc8;" horiz-adv-x="1064" d="M31 1356q-2 25 14 44t43 21q46 4 62 -39q39 2 253 27q197 23 324 21q25 0 42 -18.5t17 -44.5t-18 -43t-45 -17q-117 2 -305 -19q-215 -25 -258 -28q10 -170 10 -410q279 49 463 53q27 0 45 -17.5t18 -43t-17 -44t-42 -18.5q-180 -4 -467 -55q-2 -309 -2 -317 q0 -12 -3 -75t-3 -102q-2 -61 0 -98q2 -20 2 -31q2 -2 6 -2q25 -6 74 -6q90 -2 243 15q111 12 275 36l164 25q27 2 46 -13.5t22 -41t-12 -45t-40 -23.5q-2 0 -167 -24.5t-273 -36.5q-164 -16 -260 -15q-61 0 -101 11q-63 14 -84 55q-14 27 -18 90q-2 41 0 106q0 41 3 101.5 t3 73.5q0 72 1 230.5t1 249.5t-4 224t-12 244zM181 1632q-7 25 4.5 47.5t35.5 29.5t47 -5q168 -90 271 -137q23 -10 31 -34t-2.5 -47.5t-34 -31.5t-48.5 2q-104 49 -274 141q-23 10 -30 35z" />
<glyph unicode="&#xc9;" horiz-adv-x="1064" d="M31 1356q-2 25 14 44t43 21q46 4 62 -39q39 2 253 27q197 23 324 21q25 0 42 -18.5t17 -44.5t-18 -43t-45 -17q-117 2 -305 -19q-215 -25 -258 -28q10 -170 10 -410q279 49 463 53q27 0 45 -17.5t18 -43t-17 -44t-42 -18.5q-180 -4 -467 -55q-2 -309 -2 -317 q0 -12 -3 -75t-3 -102q-2 -61 0 -98q2 -20 2 -31q2 -2 6 -2q25 -6 74 -6q90 -2 243 15q111 12 275 36l164 25q27 2 46 -13.5t22 -41t-12 -45t-40 -23.5q-2 0 -167 -24.5t-273 -36.5q-164 -16 -260 -15q-61 0 -101 11q-63 14 -84 55q-14 27 -18 90q-2 41 0 106q0 41 3 101.5 t3 73.5q0 72 1 230.5t1 249.5t-4 224t-12 244zM191 1517.5q7 24.5 30 36.5q106 55 217 144q20 16 46 14t41.5 -22.5t13.5 -46t-23 -39.5q-121 -96 -237 -160q-23 -10 -47.5 -3t-36 29.5t-4.5 47z" />
<glyph unicode="&#xca;" horiz-adv-x="1064" d="M31 1356q-2 25 14 44t43 21q46 4 62 -39q39 2 253 27q197 23 324 21q25 0 42 -18.5t17 -44.5t-18 -43t-45 -17q-117 2 -305 -19q-215 -25 -258 -28q10 -170 10 -410q279 49 463 53q27 0 45 -17.5t18 -43t-17 -44t-42 -18.5q-180 -4 -467 -55q-2 -309 -2 -317 q0 -12 -3 -75t-3 -102q-2 -61 0 -98q2 -20 2 -31q2 -2 6 -2q25 -6 74 -6q90 -2 243 15q111 12 275 36l164 25q27 2 46 -13.5t22 -41t-12 -45t-40 -23.5q-2 0 -167 -24.5t-273 -36.5q-164 -16 -260 -15q-61 0 -101 11q-63 14 -84 55q-14 27 -18 90q-2 41 0 106q0 41 3 101.5 t3 73.5q0 72 1 230.5t1 249.5t-4 224t-12 244zM124 1504.5q-3 25.5 11 45.5q131 164 135 168q63 76 123 74q49 -2 121 -66l150 -135q20 -16 22 -41.5t-14.5 -45t-42 -21.5t-43.5 14q-2 2 -154 137q-27 25 -43 35q-4 -6 -27 -31q-2 -2 -129 -165q-16 -18 -41.5 -21.5t-45 12 t-22.5 41z" />
<glyph unicode="&#xcb;" horiz-adv-x="1064" d="M31 1356q-2 25 14 44t43 21q46 4 62 -39q39 2 253 27q197 23 324 21q25 0 42 -18.5t17 -44.5t-18 -43t-45 -17q-117 2 -305 -19q-215 -25 -258 -28q10 -170 10 -410q279 49 463 53q27 0 45 -17.5t18 -43t-17 -44t-42 -18.5q-180 -4 -467 -55q-2 -309 -2 -317 q0 -12 -3 -75t-3 -102q-2 -61 0 -98q2 -20 2 -31q2 -2 6 -2q25 -6 74 -6q90 -2 243 15q111 12 275 36l164 25q27 2 46 -13.5t22 -41t-12 -45t-40 -23.5q-2 0 -167 -24.5t-273 -36.5q-164 -16 -260 -15q-61 0 -101 11q-63 14 -84 55q-14 27 -18 90q-2 41 0 106q0 41 3 101.5 t3 73.5q0 72 1 230.5t1 249.5t-4 224t-12 244zM199 1572.5q0 24.5 18.5 43t43 18.5t43 -18.5t18.5 -43t-18.5 -43t-43 -18.5t-43 18.5t-18.5 43zM465 1585.5q0 24.5 18.5 43t43 18.5t43 -18.5t18.5 -43t-18.5 -43t-43 -18.5t-43 18.5t-18.5 43z" />
<glyph unicode="&#xcc;" horiz-adv-x="858" d="M-56 -13.5q-3 25.5 12 45t42 23.5q31 4 121 15l143 16q0 125 4 380t3 453.5t-9 378.5q-117 -8 -237 -10q-27 0 -45.5 17.5t-18.5 43t17 44t42 18.5q332 8 633 47q27 2 46.5 -13t22.5 -41t-12.5 -45.5t-39.5 -23.5q-139 -16 -285 -28q8 -180 9 -377t-3 -456t-4 -376 q199 12 352 -6q25 -4 40.5 -23.5t12 -45t-22.5 -41t-46 -13.5q-66 8 -133.5 11.5t-152.5 -3t-129 -10.5t-155.5 -17t-140.5 -18q-25 -2 -44 13.5t-22 41zM54 1631q-7 24 4.5 47.5t34.5 30.5t46 -3l271 -141q23 -10 29.5 -35t-4.5 -47.5t-35.5 -29.5t-47.5 5l-266 137 q-25 12 -32 36z" />
<glyph unicode="&#xcd;" horiz-adv-x="858" d="M-56 -13.5q-3 25.5 12 45t42 23.5q31 4 121 15l143 16q0 125 4 380t3 453.5t-9 378.5q-117 -8 -237 -10q-27 0 -45.5 17.5t-18.5 43t17 44t42 18.5q332 8 633 47q27 2 46.5 -13t22.5 -41t-12.5 -45.5t-39.5 -23.5q-139 -16 -285 -28q8 -180 9 -377t-3 -456t-4 -376 q199 12 352 -6q25 -4 40.5 -23.5t12 -45t-22.5 -41t-46 -13.5q-66 8 -133.5 11.5t-152.5 -3t-129 -10.5t-155.5 -17t-140.5 -18q-25 -2 -44 13.5t-22 41zM131 1485.5q-8 23.5 2 47.5t35 32q92 35 199 116q20 14 44.5 11.5t40 -23t12.5 -45.5t-24 -41q-121 -92 -231 -133 q-23 -8 -46.5 2t-31.5 33.5z" />
<glyph unicode="&#xce;" horiz-adv-x="858" d="M-56 -13.5q-3 25.5 12 45t42 23.5q31 4 121 15l143 16q0 125 4 380t3 453.5t-9 378.5q-117 -8 -237 -10q-27 0 -45.5 17.5t-18.5 43t17 44t42 18.5q332 8 633 47q27 2 46.5 -13t22.5 -41t-12.5 -45.5t-39.5 -23.5q-139 -16 -285 -28q8 -180 9 -377t-3 -456t-4 -376 q199 12 352 -6q25 -4 40.5 -23.5t12 -45t-22.5 -41t-46 -13.5q-66 8 -133.5 11.5t-152.5 -3t-129 -10.5t-155.5 -17t-140.5 -18q-25 -2 -44 13.5t-22 41zM30 1500.5q-3 25.5 11 45.5q131 164 137 170q66 76 127 66q31 -6 62 -33q14 -12 45 -47q82 -92 133 -141 q18 -18 18 -44t-17.5 -44.5t-43 -18.5t-43.5 16q-55 53 -140 150q-23 25 -30 35q-8 -8 -19 -21q-4 -2 -131 -166q-16 -18 -41.5 -21t-45 12.5t-22.5 41z" />
<glyph unicode="&#xcf;" horiz-adv-x="858" d="M-56 -13.5q-3 25.5 12 45t42 23.5q31 4 121 15l143 16q0 125 4 380t3 453.5t-9 378.5q-117 -8 -237 -10q-27 0 -45.5 17.5t-18.5 43t17 44t42 18.5q332 8 633 47q27 2 46.5 -13t22.5 -41t-12.5 -45.5t-39.5 -23.5q-139 -16 -285 -28q8 -180 9 -377t-3 -456t-4 -376 q199 12 352 -6q25 -4 40.5 -23.5t12 -45t-22.5 -41t-46 -13.5q-66 8 -133.5 11.5t-152.5 -3t-129 -10.5t-155.5 -17t-140.5 -18q-25 -2 -44 13.5t-22 41zM98 1585.5q0 24.5 18.5 43t43 18.5t43 -18.5t18.5 -43t-18.5 -43t-43 -18.5t-43 18.5t-18.5 43zM330 1587.5 q0 24.5 18.5 43t43 18.5t43 -18.5t18.5 -43t-18.5 -43t-43 -18.5t-43 18.5t-18.5 43z" />
<glyph unicode="&#xd0;" horiz-adv-x="1112" d="M-172 782.5q0 24.5 18.5 43t42.5 18.5q102 0 199 2q-4 256 -22 510q-2 25 14 44t43 21q16 2 33 -6h10h39q29 0 40 -1t39.5 -1t44 -2t41 -5t44.5 -7l43 -10q23 -4 41 -13q197 -72 332 -234.5t184 -369.5q51 -229 6 -395q-47 -164 -182 -266q-240 -182 -658 -136 q-18 -31 -55 -28q-27 2 -43 21.5t-14 43.5q25 348 22 711q-100 -2 -201 -2q-25 0 -43 18.5t-18 43zM193 1292q14 -221 18 -442q78 2 151 6q27 2 45.5 -15.5t20.5 -43t-15.5 -44t-41.5 -20.5q-78 -4 -158 -6q2 -320 -16 -631q369 -41 565 111q219 170 133 536 q-43 178 -158.5 317.5t-279.5 201.5q-78 29 -264 30z" />
<glyph unicode="&#xd1;" horiz-adv-x="1138" d="M88 1356q-2 27 15.5 45t41.5 20q23 2 39.5 -10t24.5 -33l4 -8l117 -260q86 -190 131 -281.5t127 -230.5t168 -246q41 -49 159 -176l9 -10l-9 51q-39 242 -41 250q-20 201 -26 346t14.5 332.5t79.5 345.5q8 25 31.5 35t47 2t34 -31.5t2.5 -46.5q-53 -147 -72 -320 q-20 -172 -15 -313t27 -338q0 -2 41 -241q16 -98 23 -152q6 -33 8 -53v-21v-10q0 -16 -8 -29q-20 -37 -62 -30q-12 2 -24 8q-8 4 -19 12q-14 10 -36 33l-95 96q-119 127 -163 182q-94 115 -177 256q-86 143 -137 250l-127 275q2 -197 -2 -555.5t-4 -474.5q0 -25 -18.5 -43.5 t-43 -18.5t-43 18.5t-18.5 43.5q0 137 4 416.5t3 498.5t-11 416zM259 1532q7 25 30 35q100 55 162 63q61 6 108 -28q16 -10 24.5 -18.5t16.5 -12.5q18 -10 57 -4q16 2 29 8l37 18q25 10 47 19q25 8 47.5 -2.5t31.5 -34t-1 -46t-33 -32.5q-6 -2 -33.5 -15.5t-55.5 -23.5 t-52 -14q-76 -10 -129 16q-12 6 -27 17l-22 18l-9 8q-8 6 -20 4q-39 -4 -121 -47q-23 -12 -47.5 -5t-35.5 29.5t-4 47.5z" />
<glyph unicode="&#xd2;" d="M41 645q4 260 94 477q100 242 258 305q18 6 42 11.5t49.5 8.5t27.5 3q25 6 45 -8h4q193 -55 299 -305q90 -217 86 -492q-6 -279 -108 -467q-125 -227 -344 -221q-236 6 -359 229q-98 182 -94 459zM164 643q-4 -244 80 -399q88 -160 254 -164q143 -4 231 157.5t94 409.5 q4 250 -75 443q-84 195 -220 233q-6 2 -10 4q-74 -12 -80 -14q-111 -43 -188 -238q-82 -195 -86 -432zM269 1628q-9 25 0.5 47.5t33.5 31.5t47 1l94 -45l86 -41q25 -10 33 -33.5t-2 -47t-33.5 -32t-46.5 1.5q-27 10 -87 39t-93 43q-23 10 -32 35z" />
<glyph unicode="&#xd3;" d="M41 645q4 260 94 477q100 242 258 305q18 6 42 11.5t49.5 8.5t27.5 3q25 6 45 -8h4q193 -55 299 -305q90 -217 86 -492q-6 -279 -108 -467q-125 -227 -344 -221q-236 6 -359 229q-98 182 -94 459zM164 643q-4 -244 80 -399q88 -160 254 -164q143 -4 231 157.5t94 409.5 q4 250 -75 443q-84 195 -220 233q-6 2 -10 4q-74 -12 -80 -14q-111 -43 -188 -238q-82 -195 -86 -432zM275 1526q9 23 34 33q80 31 201 112q23 14 47.5 9t38.5 -26.5t9 -46t-25 -38.5q-133 -88 -226 -125q-25 -8 -47 1t-31.5 33.5t-0.5 47.5z" />
<glyph unicode="&#xd4;" d="M41 645q4 260 94 477q100 242 258 305q18 6 42 11.5t49.5 8.5t27.5 3q25 6 45 -8h4q193 -55 299 -305q90 -217 86 -492q-6 -279 -108 -467q-125 -227 -344 -221q-236 6 -359 229q-98 182 -94 459zM164 643q-4 -244 80 -399q88 -160 254 -164q143 -4 231 157.5t94 409.5 q4 250 -75 443q-84 195 -220 233q-6 2 -10 4q-74 -12 -80 -14q-111 -43 -188 -238q-82 -195 -86 -432zM251 1475q-3 25 11 45q92 121 127 155q68 68 131 54q45 -12 105 -82q115 -133 120 -142q16 -18 15.5 -43.5t-19 -42t-44 -15.5t-42.5 19q-8 8 -123 144q-27 29 -36 39 q-8 -6 -19 -17q-29 -29 -117 -143q-16 -20 -40.5 -23.5t-45 12t-23.5 40.5z" />
<glyph unicode="&#xd5;" d="M41 645q4 260 94 477q100 242 258 305q18 6 42 11.5t49.5 8.5t27.5 3q25 6 45 -8h4q193 -55 299 -305q90 -217 86 -492q-6 -279 -108 -467q-125 -227 -344 -221q-236 6 -359 229q-98 182 -94 459zM164 643q-4 -244 80 -399q88 -160 254 -164q143 -4 231 157.5t94 409.5 q4 250 -75 443q-84 195 -220 233q-6 2 -10 4q-74 -12 -80 -14q-111 -43 -188 -238q-82 -195 -86 -432zM265 1489q-5 25 9 45q74 115 162 125q57 8 137 -39q51 -29 64 -31q14 -2 45 45q12 20 36.5 26.5t46 -7t28 -38t-8.5 -46.5q-66 -104 -151 -103q-43 2 -121 47 q-43 27 -61 23q-31 -2 -74 -68q-14 -23 -39 -27.5t-46.5 9.5t-26.5 39z" />
<glyph unicode="&#xd6;" d="M41 645q4 260 94 477q100 242 258 305q18 6 42 11.5t49.5 8.5t27.5 3q25 6 45 -8h4q193 -55 299 -305q90 -217 86 -492q-6 -279 -108 -467q-125 -227 -344 -221q-236 6 -359 229q-98 182 -94 459zM164 643q-4 -244 80 -399q88 -160 254 -164q143 -4 231 157.5t94 409.5 q4 250 -75 443q-84 195 -220 233q-6 2 -10 4q-74 -12 -80 -14q-111 -43 -188 -238q-82 -195 -86 -432zM319 1568.5q0 24.5 18.5 43t43.5 18.5t43 -18.5t18 -43t-18 -43t-43 -18.5t-43.5 18.5t-18.5 43zM543 1579q0 25 18.5 43t43 18t43 -18t18.5 -43t-18.5 -43t-43 -18 t-43 18t-18.5 43z" />
<glyph unicode="&#xd7;" horiz-adv-x="839" d="M190 1011.5q5 24.5 26.5 39t46 9.5t38.5 -28q70 -106 152 -203l102 160q12 23 37.5 28t47.5 -8.5t27 -39t-10 -45.5l-118 -187q96 -96 209 -182q20 -16 23 -41t-12.5 -45t-40 -23.5t-44.5 11.5q-111 84 -205 178q-86 -119 -170 -195q-18 -18 -44 -16t-43 20.5t-15 44 t20 41.5q80 76 166 195q-102 113 -184 242q-14 20 -9 44.5z" />
<glyph unicode="&#xd8;" horiz-adv-x="1251" d="M-115 136.5q2 25.5 21 41.5l170 156q-39 141 -37 311q4 260 94 477q100 242 258 305q18 6 42 11.5t49.5 8.5t27.5 3q25 6 45 -8h4q193 -55 299 -305q23 -55 41 -117q96 59 195 108q23 10 46 3t34.5 -30.5t4 -47t-31.5 -35.5q-111 -55 -221 -127q20 -121 18 -246 q-6 -279 -108 -467q-125 -227 -344 -221q-236 6 -359 229q-6 11 -12 23l-133 -121q-18 -18 -44 -16t-43.5 20.5t-15.5 44zM162 643q-2 -113 16 -213l201 186l192 166q116 94 220 166q-18 76 -46 142q-84 195 -219 233q-6 2 -10 4q-74 -12 -80 -14q-111 -43 -188 -238 q-82 -195 -86 -432zM217 297q10 -27 25 -53q88 -160 254 -164q143 -4 231 157.5t94 409.5q2 84 -8 166q-98 -70 -215 -170l-176 -156z" />
<glyph unicode="&#xd9;" horiz-adv-x="980" d="M70 1020q4 166 6 350q0 25 18.5 42.5t44 17.5t43 -18.5t17.5 -45.5q-2 -186 -6.5 -348t16.5 -344q20 -180 70 -330q37 -113 81 -180q59 -84 121 -74q86 12 152 152q63 135 102 368q43 262 56 725q0 25 18 42.5t44 17.5t43 -18.5t17 -45.5q-12 -467 -57 -741 q-41 -254 -111 -402q-96 -199 -247 -221q-135 -18 -238 127q-57 82 -100 213q-51 158 -72.5 352.5t-17.5 360.5zM326 1551.5q-9 23.5 0.5 47t33 32.5t48.5 1q123 -53 237 -151q18 -18 20.5 -43t-15 -44.5t-42 -21.5t-45.5 14q-98 88 -205 132q-23 10 -32 33.5z" />
<glyph unicode="&#xda;" horiz-adv-x="980" d="M70 1020q4 166 6 350q0 25 18.5 42.5t44 17.5t43 -18.5t17.5 -45.5q-2 -186 -6.5 -348t16.5 -344q20 -180 70 -330q37 -113 81 -180q59 -84 121 -74q86 12 152 152q63 135 102 368q43 262 56 725q0 25 18 42.5t44 17.5t43 -18.5t17 -45.5q-12 -467 -57 -741 q-41 -254 -111 -402q-96 -199 -247 -221q-135 -18 -238 127q-57 82 -100 213q-51 158 -72.5 352.5t-17.5 360.5zM348.5 1489q4.5 25 24.5 39l229 160q23 14 47.5 9t38.5 -26.5t9 -46.5t-25 -39l-226 -155q-23 -16 -47 -12.5t-39.5 25t-11 46.5z" />
<glyph unicode="&#xdb;" horiz-adv-x="980" d="M70 1020q4 166 6 350q0 25 18.5 42.5t44 17.5t43 -18.5t17.5 -45.5q-2 -186 -6.5 -348t16.5 -344q20 -180 70 -330q37 -113 81 -180q59 -84 121 -74q86 12 152 152q63 135 102 368q43 262 56 725q0 25 18 42.5t44 17.5t43 -18.5t17 -45.5q-12 -467 -57 -741 q-41 -254 -111 -402q-96 -199 -247 -221q-135 -18 -238 127q-57 82 -100 213q-51 158 -72.5 352.5t-17.5 360.5zM234 1459.5q-2 25.5 14 43.5q86 104 108 127q59 61 115 66q63 6 125 -58q39 -41 115 -149q14 -20 9 -46t-25.5 -40t-46 -9t-40.5 25q-66 98 -100 133 q-18 18 -27 21q-12 -2 -37 -29q-20 -18 -102 -119q-16 -20 -42 -22t-45 14.5t-21 42z" />
<glyph unicode="&#xdc;" horiz-adv-x="980" d="M70 1020q4 166 6 350q0 25 18.5 42.5t44 17.5t43 -18.5t17.5 -45.5q-2 -186 -6.5 -348t16.5 -344q20 -180 70 -330q37 -113 81 -180q59 -84 121 -74q86 12 152 152q63 135 102 368q43 262 56 725q0 25 18 42.5t44 17.5t43 -18.5t17 -45.5q-12 -467 -57 -741 q-41 -254 -111 -402q-96 -199 -247 -221q-135 -18 -238 127q-57 82 -100 213q-51 158 -72.5 352.5t-17.5 360.5zM319 1574.5q0 24.5 18.5 43t43.5 18.5t43 -18.5t18 -43t-18 -43t-43 -18.5t-43.5 18.5t-18.5 43zM543 1574.5q0 24.5 18.5 43t43 18.5t43 -18.5t18.5 -43 t-18.5 -43t-43 -18.5t-43 18.5t-18.5 43z" />
<glyph unicode="&#xdd;" horiz-adv-x="1050" d="M123 1415q-6 25 7 46.5t38 27.5t46.5 -7t27.5 -38l10 -47l16 -74l15 -78q35 -164 67 -274q43 -154 90 -240q45 -82 78 -84q31 -2 84 76q55 80 117 238q80 205 145 466q6 25 27.5 38.5t46.5 7t38 -28t7 -45.5q-70 -276 -149 -484q-66 -168 -129 -262q-57 -84 -117 -112 q0 -92 -7.5 -266.5t-9.5 -254.5q0 -27 -18 -44t-44 -17t-43 18.5t-17 42.5q2 82 8 253t8 262q-74 29 -133 137q-53 96 -101 264q-33 117 -67 285q-8 31 -16.5 75.5t-14.5 71.5zM420 1496q2 26 20 42q106 98 230 166q23 12 47 5t36.5 -28.5t5.5 -46t-28 -37.5 q-111 -61 -209 -149q-18 -18 -43.5 -16t-43 20t-15.5 44z" />
<glyph unicode="&#xde;" horiz-adv-x="911" d="M47 1432q0 27 17.5 45t43 18t44 -17.5t18.5 -41.5q2 -133 8 -404q133 113 289 152q135 33 229 -13q115 -55 142 -208q37 -223 -211 -492q-176 -195 -408 -332q-12 -6 -26 -8q2 -156 2 -297q0 -25 -18.5 -43t-43 -18t-43 18.5t-18.5 42.5q0 272 -25 1598zM182 858l11 -592 q197 127 344 287q207 225 178 389q-14 92 -72 119q-55 27 -147 4q-88 -23 -177.5 -81t-128.5 -116q-4 -6 -8 -10z" />
<glyph unicode="&#xdf;" horiz-adv-x="1009" d="M88 635q-31 418 53 600q29 68 95.5 124t146.5 83q55 18 110.5 20t112.5 -20q57 -20 101 -72q74 -86 28 -209q-27 -76 -108 -184q-14 -16 -56 -70l-61 -78q-12 -20 -18 -32q23 -14 51 -23q16 -2 69 -12q47 -10 80 -19q236 -61 273 -276q20 -135 -46.5 -246.5 t-181.5 -171.5q-76 -39 -156.5 -51t-164.5 10.5t-150 81.5q-12 10 -16 23q0 -39 -2 -72q-2 -25 -20.5 -42t-44 -15t-43 20t-15.5 45q4 70 0 157t-17.5 228t-19.5 201zM211 645l20 -211q17 -190 19 -278q4 12 12 20q16 18 42 20.5t44 -16.5q63 -57 156.5 -62t175.5 40 q86 45 131 121.5t31 166.5q-12 80 -57.5 119t-122.5 60q-27 8 -74 16q-55 10 -72 14q-98 23 -135 72q-31 41 -10 98q10 31 39 74l63 80q43 57 55 72q72 94 92.5 151.5t-8.5 89.5q-66 76 -188 33q-59 -20 -106.5 -59t-65.5 -80q-70 -156 -41 -541zM479 801q2 0 6 -2 q-2 6 -6 2z" />
<glyph unicode="&#xe0;" horiz-adv-x="849" d="M-35 280.5q4 75.5 32 147.5t75 127q113 135 260 145q174 10 307 -163l8 -13q-20 170 -72 269q-68 127 -188 114q-109 -12 -192 -131q-16 -20 -41 -25.5t-45.5 10t-25.5 40.5t9 45q117 166 283 184q203 20 309 -180q66 -125 88 -330q10 -96 10 -325v-127q0 -27 -2 -41 q0 -10 -2 -19q-4 -14 -12 -24q-16 -25 -47 -25q-27 -2 -47 21q-14 16 -23 49q-4 18 -10 51l-14 90q-55 -59 -111 -102q-207 -158 -397 -50q-80 45 -118 116t-34 146.5zM90 279q0 -104 88 -154q119 -68 262 41q76 58 156 158q-25 98 -55 139q-92 121 -201 115 q-96 -6 -174 -100.5t-76 -198.5zM237 1358.5q3 25.5 22.5 41t45 12.5t41.5 -23q16 -23 76 -105q45 -63 74 -98q16 -20 14 -45t-22.5 -41.5t-45 -14.5t-41.5 23q-31 37 -79 104l-74 103q-14 18 -11 43.5z" />
<glyph unicode="&#xe1;" horiz-adv-x="849" d="M-35 280.5q4 75.5 32 147.5t75 127q113 135 260 145q174 10 307 -163l8 -13q-20 170 -72 269q-68 127 -188 114q-109 -12 -192 -131q-16 -20 -41 -25.5t-45.5 10t-25.5 40.5t9 45q117 166 283 184q203 20 309 -180q66 -125 88 -330q10 -96 10 -325v-127q0 -27 -2 -41 q0 -10 -2 -19q-4 -14 -12 -24q-16 -25 -47 -25q-27 -2 -47 21q-14 16 -23 49q-4 18 -10 51l-14 90q-55 -59 -111 -102q-207 -158 -397 -50q-80 45 -118 116t-34 146.5zM90 279q0 -104 88 -154q119 -68 262 41q76 58 156 158q-25 98 -55 139q-92 121 -201 115 q-96 -6 -174 -100.5t-76 -198.5zM258 1171.5q0 24.5 18 42.5q195 195 250 244q18 18 44 16.5t43.5 -20t15.5 -44.5t-21 -42l-246 -240q-18 -18 -42.5 -18t-43 18.5t-18.5 43z" />
<glyph unicode="&#xe2;" horiz-adv-x="849" d="M-35 280.5q4 75.5 32 147.5t75 127q113 135 260 145q174 10 307 -163l8 -13q-20 170 -72 269q-68 127 -188 114q-109 -12 -192 -131q-16 -20 -41 -25.5t-45.5 10t-25.5 40.5t9 45q117 166 283 184q203 20 309 -180q66 -125 88 -330q10 -96 10 -325v-127q0 -27 -2 -41 q0 -10 -2 -19q-4 -14 -12 -24q-16 -25 -47 -25q-27 -2 -47 21q-14 16 -23 49q-4 18 -10 51l-14 90q-55 -59 -111 -102q-207 -158 -397 -50q-80 45 -118 116t-34 146.5zM90 279q0 -104 88 -154q119 -68 262 41q76 58 156 158q-25 98 -55 139q-92 121 -201 115 q-96 -6 -174 -100.5t-76 -198.5zM115 1156q-2 26 16 44l119 143q59 72 106 80q59 10 129 -57q29 -27 144 -156q16 -20 14 -44.5t-21.5 -42t-44 -15.5t-42.5 20q-111 127 -134 150q-16 14 -26 20q-12 -10 -31 -34q-121 -143 -123 -146q-16 -18 -41.5 -20t-44 15t-20.5 43z " />
<glyph unicode="&#xe3;" horiz-adv-x="849" d="M-35 280.5q4 75.5 32 147.5t75 127q113 135 260 145q174 10 307 -163l8 -13q-20 170 -72 269q-68 127 -188 114q-109 -12 -192 -131q-16 -20 -41 -25.5t-45.5 10t-25.5 40.5t9 45q117 166 283 184q203 20 309 -180q66 -125 88 -330q10 -96 10 -325v-127q0 -27 -2 -41 q0 -10 -2 -19q-4 -14 -12 -24q-16 -25 -47 -25q-27 -2 -47 21q-14 16 -23 49q-4 18 -10 51l-14 90q-55 -59 -111 -102q-207 -158 -397 -50q-80 45 -118 116t-34 146.5zM90 279q0 -104 88 -154q119 -68 262 41q76 58 156 158q-25 98 -55 139q-92 121 -201 115 q-96 -6 -174 -100.5t-76 -198.5zM115 1198q27 74 63.5 116t89.5 40q39 0 82 -29l58 -45q57 -45 90 -45q55 0 129 98q16 20 40.5 23.5t45 -12t23.5 -40t-11 -44.5q-111 -145 -225 -148q-78 -2 -168 72q-43 35 -51 39q-8 6 -13 8q-16 -16 -39 -74q-8 -25 -31.5 -35t-47 -2 t-33.5 31.5t-2 46.5z" />
<glyph unicode="&#xe4;" horiz-adv-x="849" d="M-35 280.5q4 75.5 32 147.5t75 127q113 135 260 145q174 10 307 -163l8 -13q-20 170 -72 269q-68 127 -188 114q-109 -12 -192 -131q-16 -20 -41 -25.5t-45.5 10t-25.5 40.5t9 45q117 166 283 184q203 20 309 -180q66 -125 88 -330q10 -96 10 -325v-127q0 -27 -2 -41 q0 -10 -2 -19q-4 -14 -12 -24q-16 -25 -47 -25q-27 -2 -47 21q-14 16 -23 49q-4 18 -10 51l-14 90q-55 -59 -111 -102q-207 -158 -397 -50q-80 45 -118 116t-34 146.5zM90 279q0 -104 88 -154q119 -68 262 41q76 58 156 158q-25 98 -55 139q-92 121 -201 115 q-96 -6 -174 -100.5t-76 -198.5zM223 1245.5q0 24.5 18.5 43t43 18.5t43 -18.5t18.5 -43t-18.5 -43t-43 -18.5t-43 18.5t-18.5 43zM432 1255.5q0 24.5 18.5 43t43 18.5t43 -18.5t18.5 -43t-18.5 -43t-43 -18.5t-43 18.5t-18.5 43z" />
<glyph unicode="&#xe5;" horiz-adv-x="849" d="M-35 280.5q4 75.5 32 147.5t75 127q113 135 260 145q174 10 307 -163l8 -13q-20 170 -72 269q-68 127 -188 114q-109 -12 -192 -131q-16 -20 -41 -25.5t-45.5 10t-25.5 40.5t9 45q117 166 283 184q203 20 309 -180q66 -125 88 -330q10 -96 10 -325v-127q0 -27 -2 -41 q0 -10 -2 -19q-4 -14 -12 -24q-16 -25 -47 -25q-27 -2 -47 21q-14 16 -23 49q-4 18 -10 51l-14 90q-55 -59 -111 -102q-207 -158 -397 -50q-80 45 -118 116t-34 146.5zM90 279q0 -104 88 -154q119 -68 262 41q76 58 156 158q-25 98 -55 139q-92 121 -201 115 q-96 -6 -174 -100.5t-76 -198.5zM215 1307q25 68 86 120t141 60q14 12 35 12q127 0 185 -78q53 -72 26 -168q-25 -86 -103.5 -146t-185.5 -50q-121 12 -170 88q-47 72 -14 162zM330 1266q-12 -33 2 -54q16 -27 80 -32q57 -6 101 26.5t56 79.5q12 39 -6 62q-14 20 -53 26 q-17 -8 -35 -8q-47 2 -88 -27.5t-57 -72.5z" />
<glyph unicode="&#xe6;" horiz-adv-x="1339" d="M49 166q-55 133 6 285q63 152 195 213q154 74 315 -21q78 -47 133 -135q-16 168 -65 278q-57 125 -178 117q-57 -4 -113.5 -36.5t-95.5 -90.5q-16 -20 -41 -25.5t-45.5 10t-25.5 40.5t9 45q55 78 136 126t167 54q82 4 155 -33t120 -114q133 180 280 178q82 0 142.5 -52.5 t89.5 -132.5q29 -70 20.5 -160.5t-55.5 -166.5q-109 -172 -367 -199q2 -37 3 -55v-96v-2q2 -4 3 -12.5t3 -18.5q2 -8 2 -12q63 -45 143 -21q111 33 229 172q16 18 42 20.5t45.5 -14t21.5 -42t-14 -46.5q-143 -166 -289 -209q-205 -61 -342 135l-8 17q-51 -53 -105 -94 q-143 -109 -258 -91q-193 35 -258 189zM162 213q39 -92 166 -113q61 -12 164 66q77 60 157 158q-55 160 -145 213q-106 61 -201 16q-90 -43 -133 -150q-43 -104 -8 -190zM778 743q37 -115 47 -274q193 23 269 141q66 104 24 221q-18 49 -50 76t-69 27q-104 2 -219 -189z" />
<glyph unicode="&#xe7;" horiz-adv-x="798" d="M41 322q-35 186 29 393q33 98 99.5 182t143.5 117q102 41 185 -17q82 -55 118 -202q6 -25 -6 -46.5t-37.5 -27.5t-47 6t-27.5 39q-27 100 -70 131q-29 18 -68 2q-49 -20 -98 -81.5t-74 -139.5q-39 -123 -35.5 -232.5t35 -190.5t80.5 -126q72 -63 158 -29q115 45 221 238 q12 20 37 27.5t46.5 -5t28.5 -37t-5 -47.5q-127 -229 -283 -290q-12 -6 -25 -9q27 -47 35 -63q29 -59 21 -100q-10 -55 -74 -88q-43 -20 -133 -45q-25 -6 -47.5 6t-28.5 36.5t6.5 47t36.5 28.5q80 20 109 37q6 2 8 4q-2 8 -8 21l-13 24l-20 33l-19 33q-6 10 -8 20 q-68 16 -123 66q-113 100 -147 285z" />
<glyph unicode="&#xe8;" horiz-adv-x="796" d="M32.5 475q22.5 121 82.5 240q61 127 151 215q90 86 199 88q76 2 122 -39t62 -102q27 -100 -14 -207q-57 -158 -185 -266.5t-290 -137.5q33 -90 90 -133t125 -43q72 0 143 45q68 47 113 135q12 25 35.5 32t47 -4t31 -34.5t-3.5 -46.5q-59 -119 -158.5 -185.5t-209.5 -64.5 q-115 2 -207 78t-133 213q-23 96 -0.5 217zM145 389q125 23 226.5 111t148.5 211q27 72 10 133q-12 51 -65 51q-57 0 -123 -63.5t-117 -172.5q-70 -141 -80 -270zM207 1441.5q2 24.5 21.5 42t44 15.5t42.5 -20q35 -41 88 -123q51 -76 80 -111q18 -18 16.5 -43.5t-20 -43 t-44 -15.5t-42.5 20q-37 41 -92 125q-51 78 -80 109q-16 20 -14 44.5z" />
<glyph unicode="&#xe9;" horiz-adv-x="796" d="M32.5 475q22.5 121 82.5 240q61 127 151 215q90 86 199 88q76 2 122 -39t62 -102q27 -100 -14 -207q-57 -158 -185 -266.5t-290 -137.5q33 -90 90 -133t125 -43q72 0 143 45q68 47 113 135q12 25 35.5 32t47 -4t31 -34.5t-3.5 -46.5q-59 -119 -158.5 -185.5t-209.5 -64.5 q-115 2 -207 78t-133 213q-23 96 -0.5 217zM145 389q125 23 226.5 111t148.5 211q27 72 10 133q-12 51 -65 51q-57 0 -123 -63.5t-117 -172.5q-70 -141 -80 -270zM328 1140q2 26 22 42q39 35 99 94l102 100q18 16 44 16.5t43 -18t17 -44t-18 -44.5l-100 -98 q-63 -63 -109 -101q-18 -16 -44 -14t-42 21.5t-14 45.5z" />
<glyph unicode="&#xea;" horiz-adv-x="796" d="M32.5 475q22.5 121 82.5 240q61 127 151 215q90 86 199 88q76 2 122 -39t62 -102q27 -100 -14 -207q-57 -158 -185 -266.5t-290 -137.5q33 -90 90 -133t125 -43q72 0 143 45q68 47 113 135q12 25 35.5 32t47 -4t31 -34.5t-3.5 -46.5q-59 -119 -158.5 -185.5t-209.5 -64.5 q-115 2 -207 78t-133 213q-23 96 -0.5 217zM145 389q125 23 226.5 111t148.5 211q27 72 10 133q-12 51 -65 51q-57 0 -123 -63.5t-117 -172.5q-70 -141 -80 -270zM166 1136q2 26 20 42q45 37 142 145l61 70l21 22l6 6q2 4 4 4l4 5q4 4 8 6q2 2 5 4t15.5 5t30.5 -5l23 -15 l4 -4l8 -8l19 -22l55 -66q88 -104 94 -111q18 -18 18.5 -43.5t-17 -44t-43.5 -18.5t-44 17.5t-102 119.5l-37 43l-41 -47q-102 -115 -152 -158q-20 -16 -45.5 -14t-42 21.5t-14.5 45.5z" />
<glyph unicode="&#xeb;" horiz-adv-x="796" d="M32.5 475q22.5 121 82.5 240q61 127 151 215q90 86 199 88q76 2 122 -39t62 -102q27 -100 -14 -207q-57 -158 -185 -266.5t-290 -137.5q33 -90 90 -133t125 -43q72 0 143 45q68 47 113 135q12 25 35.5 32t47 -4t31 -34.5t-3.5 -46.5q-59 -119 -158.5 -185.5t-209.5 -64.5 q-115 2 -207 78t-133 213q-23 96 -0.5 217zM145 389q125 23 226.5 111t148.5 211q27 72 10 133q-12 51 -65 51q-57 0 -123 -63.5t-117 -172.5q-70 -141 -80 -270zM270 1226.5q0 24.5 18.5 43t43 18.5t43 -18.5t18.5 -43t-18.5 -43t-43 -18.5t-43 18.5t-18.5 43zM498 1216.5 q0 24.5 18.5 43t43 18.5t43 -18.5t18.5 -43t-18.5 -43t-43 -18.5t-43 18.5t-18.5 43z" />
<glyph unicode="&#xec;" horiz-adv-x="356" d="M-71.5 1346.5q1.5 25.5 21 42t45.5 14t42 -20.5l55 -69l53 -68q20 -23 51 -52.5t64 -49.5q20 -14 25.5 -40t-9 -46.5t-40 -25.5t-46.5 9q-37 27 -74.5 63t-60.5 64l-61 70l-51 66q-16 18 -14.5 43.5zM27 674.5q2 113.5 14 226.5q4 25 23.5 40t45 12t41 -22t13.5 -46 q-12 -104 -14.5 -212t7 -221.5t21.5 -204.5t33 -224q4 -27 -11.5 -47.5t-41 -24.5t-46 11t-24.5 40q-20 137 -31.5 228.5t-21.5 211t-8 233z" />
<glyph unicode="&#xed;" horiz-adv-x="425" d="M-20 1075.5q0 24.5 18 42.5l254 236q20 16 45 14t42 -21.5t15 -44t-20 -42.5q-53 -45 -250 -232q-20 -16 -45 -16t-42 19.5t-17 44zM25 674.5q2 113.5 14 226.5q4 25 23.5 40t45 12t41 -22t13.5 -46q-12 -104 -14.5 -212t7 -221.5t21.5 -204.5t33 -224q4 -27 -11.5 -47.5 t-41 -24.5t-46 11t-24.5 40q-20 137 -31.5 228.5t-21.5 211t-8 233z" />
<glyph unicode="&#xee;" horiz-adv-x="417" d="M-139 1107q2 26 22 42q63 55 129 127q27 31 37 39q31 29 64 31q37 0 69 -31q12 -14 35 -49l119 -168q14 -20 11 -46t-23.5 -40.5t-46 -11t-39.5 23.5l-121 172l-4 8l-11 -10q-70 -78 -141 -139q-18 -16 -44 -14.5t-42 21t-14 45.5zM27 674.5q2 113.5 14 226.5 q4 25 23.5 40t45 12t41 -22t13.5 -46q-12 -104 -14.5 -212t7 -221.5t21.5 -204.5t33 -224q4 -27 -11.5 -47.5t-41 -24.5t-46 11t-24.5 40q-20 137 -31.5 228.5t-21.5 211t-8 233z" />
<glyph unicode="&#xef;" horiz-adv-x="321" d="M-37 1200.5q0 24.5 18.5 43t43 18.5t43 -18.5t18.5 -43t-18.5 -43t-43 -18.5t-43 18.5t-18.5 43zM25 674.5q2 113.5 14 226.5q4 25 23.5 40t45 12t41 -22t13.5 -46q-12 -104 -14.5 -212t7 -221.5t21.5 -204.5t33 -224q4 -27 -11.5 -47.5t-41 -24.5t-46 11t-24.5 40 q-20 137 -31.5 228.5t-21.5 211t-8 233zM127 1187.5q0 24.5 18.5 43t43 18.5t43 -18.5t18.5 -43t-18.5 -43t-43 -18.5t-43 18.5t-18.5 43z" />
<glyph unicode="&#xf0;" horiz-adv-x="854" d="M-12 1176.5q4 25.5 24.5 41t46.5 11.5q127 -20 275 -144l145 136q18 16 44 16t43.5 -18.5t17.5 -44t-19 -44.5l-139 -129q90 -94 160 -204q63 10 135 16q25 2 44 -14.5t21 -42t-14 -45t-43 -21.5q-41 -2 -80 -8q49 -102 69.5 -197.5t2.5 -193.5q-20 -100 -92 -172 q-115 -115 -228 -123q-109 -6 -192.5 43t-123.5 127t-38 176t51 182q102 174 359 246q-57 80 -125 150q-96 -82 -180 -134q-23 -12 -47.5 -6t-38 27.5t-7 46.5t26.5 39q72 43 154 111q-113 90 -201 102q-25 4 -40 24.5t-11 46zM168 337q-2 -65 25.5 -114t81 -78.5 t118.5 -25.5q68 4 150 86q70 76 63.5 194.5t-82.5 259.5q-238 -55 -319 -196q-35 -61 -37 -126z" />
<glyph unicode="&#xf1;" horiz-adv-x="874" d="M10 952q-2 25 12.5 45.5t40 23.5t46 -11.5t24.5 -40.5q20 -154 25 -424q53 111 127 219q68 96 149 154q61 43 119 49q80 8 135 -54q47 -51 74 -182q20 -96 31 -250q12 -172 12 -444q0 -25 -18.5 -43.5t-43 -18.5t-43 18.5t-18.5 43.5q0 279 -10 436q-10 143 -29 234 q-20 98 -45 124q-14 14 -33 13q-25 -2 -59 -27q-66 -45 -119 -123q-207 -299 -225 -598q0 -57 -2 -78v-8v-2v-2q0 -6 -4 -14q-4 -14 -15 -25q-20 -18 -47 -16q-25 2 -41 20q-10 10 -14 23q0 4 -1 7t-1 7v27q0 32 2 67q2 139 0 201q-2 63 -3 205.5t-6 245t-20 198.5z M161 1120q-7 24 5 47q63 115 156 129q55 8 145 -28q66 -27 90 -27q41 4 82 62q14 20 38.5 24t46 -11.5t26 -40t-12.5 -46.5q-74 -102 -172 -109q-53 -4 -145 33q-59 25 -80 21q-33 -4 -68 -68q-12 -20 -36.5 -27.5t-46 5t-28.5 36.5z" />
<glyph unicode="&#xf2;" horiz-adv-x="792" d="M2 451q10 168 74 317q72 162 174 217q4 2 8 2q8 23 27.5 33t40.5 8q129 -25 221 -118t133 -210q43 -119 45 -245q4 -205 -94 -340q-115 -160 -316 -146q-92 8 -157.5 53.5t-99 117t-47 149.5t-9.5 162zM115 1322q-2 26 15 44t43 20t44 -16l57 -51l62 -55q18 -16 52 -42 t65 -46q23 -12 27.5 -37t-8.5 -47.5t-37.5 -27.5t-47.5 9q-35 20 -73 50t-58 48l-66 58q-45 41 -55 51q-18 16 -20 42zM125 444q-8 -156 43 -250t156 -102q133 -10 208 94q72 102 70 267q-2 145 -63.5 265t-165.5 167q-12 -2 -23 -2q-2 0 -10 -1t-12 -1q-14 -2 -21 -7 q-66 -33 -119 -155q-55 -129 -63 -275z" />
<glyph unicode="&#xf3;" horiz-adv-x="792" d="M2 451q10 168 74 317q72 162 174 217q4 2 8 2q8 23 27.5 33t40.5 8q129 -25 221 -118t133 -210q43 -119 45 -245q4 -205 -94 -340q-115 -160 -316 -146q-92 8 -157.5 53.5t-99 117t-47 149.5t-9.5 162zM125 444q-8 -156 43 -250t156 -102q133 -10 208 94q72 102 70 267 q-2 145 -63.5 265t-165.5 167q-12 -2 -23 -2q-2 0 -10 -1t-12 -1q-14 -2 -21 -7q-66 -33 -119 -155q-55 -129 -63 -275zM167 1105q-3 26 11 44q72 90 246 260q18 16 44 16t43 -18t17 -44t-18 -44q-170 -162 -234 -244q-16 -20 -41.5 -23t-45 12t-22.5 41z" />
<glyph unicode="&#xf4;" horiz-adv-x="792" d="M2 451q10 168 74 317q72 162 174 217q4 2 8 2q8 23 27.5 33t40.5 8q129 -25 221 -118t133 -210q43 -119 45 -245q4 -205 -94 -340q-115 -160 -316 -146q-92 8 -157.5 53.5t-99 117t-47 149.5t-9.5 162zM98.5 1093q0.5 26 18.5 44q63 59 127 149q35 49 43 60q27 33 51 47 q43 23 88 2q29 -14 59 -54q39 -49 136 -215q12 -23 6 -47t-29 -36.5t-47.5 -6.5t-36.5 29q-92 160 -125 201l-4 6l-2 -2l-39 -53q-70 -100 -141 -170q-18 -16 -44 -16.5t-43.5 18t-17 44.5zM125 444q-8 -156 43 -250t156 -102q133 -10 208 94q72 102 70 267 q-2 145 -63.5 265t-165.5 167q-12 -2 -23 -2q-2 0 -10 -1t-12 -1q-14 -2 -21 -7q-66 -33 -119 -155q-55 -129 -63 -275z" />
<glyph unicode="&#xf5;" horiz-adv-x="792" d="M2 451q10 168 74 317q72 162 174 217q4 2 8 2q8 23 27.5 33t40.5 8q129 -25 221 -118t133 -210q43 -119 45 -245q4 -205 -94 -340q-115 -160 -316 -146q-92 8 -157.5 53.5t-99 117t-47 149.5t-9.5 162zM35 1141.5q-8 23.5 2 46.5q70 156 168 151q41 -2 84 -34 q16 -12 55 -48q53 -49 74 -49q33 -2 86 86q14 20 38.5 26.5t46 -7t28 -38t-6.5 -46.5q-92 -147 -198 -144q-66 2 -152 82q-35 31 -45 39t-16 11q-20 -12 -52 -78q-10 -25 -33.5 -33t-47 2t-31.5 33.5zM125 444q-8 -156 43 -250t156 -102q133 -10 208 94q72 102 70 267 q-2 145 -63.5 265t-165.5 167q-12 -2 -23 -2q-2 0 -10 -1t-12 -1q-14 -2 -21 -7q-66 -33 -119 -155q-55 -129 -63 -275z" />
<glyph unicode="&#xf6;" horiz-adv-x="792" d="M2 451q10 168 74 317q72 162 174 217q4 2 8 2q8 23 27.5 33t40.5 8q129 -25 221 -118t133 -210q43 -119 45 -245q4 -205 -94 -340q-115 -160 -316 -146q-92 8 -157.5 53.5t-99 117t-47 149.5t-9.5 162zM125 444q-8 -156 43 -250t156 -102q133 -10 208 94q72 102 70 267 q-2 145 -63.5 265t-165.5 167q-12 -2 -23 -2q-2 0 -10 -1t-12 -1q-14 -2 -21 -7q-66 -33 -119 -155q-55 -129 -63 -275zM184 1185.5q0 24.5 18.5 43t43 18.5t43 -18.5t18.5 -43t-18.5 -43t-43 -18.5t-43 18.5t-18.5 43zM389 1171.5q0 24.5 18.5 43t43 18.5t43 -18.5 t18.5 -43t-18.5 -43t-43 -18.5t-43 18.5t-18.5 43z" />
<glyph unicode="&#xf7;" horiz-adv-x="897" d="M-51 620.5q-2 24.5 15 44t42 21.5q55 4 184 12.5t202 13.5t179.5 9t194.5 4q25 0 43 -18.5t18 -43t-18 -43t-43 -18.5q-88 0 -193.5 -4t-177 -9t-197.5 -13.5t-184 -12.5q-25 -2 -44 15.5t-21 42zM299 903.5q0 24.5 18.5 43t43 18.5t43 -18.5t18.5 -43t-18.5 -43 t-43 -18.5t-43 18.5t-18.5 43zM324 395.5q0 24.5 18 43t43 18.5t43 -18.5t18 -43t-18 -43t-43 -18.5t-43 18.5t-18 43z" />
<glyph unicode="&#xf8;" horiz-adv-x="940" d="M-78 21.5q-2 25.5 15 44.5q47 57 102 114q-47 117 -39 271q10 168 74 317q72 162 174 217q4 2 8 2q8 23 27.5 33t40.5 8q223 -41 333 -278l111 104q18 18 43 18t43 -18t18 -43t-18 -43q-66 -68 -154 -145q20 -84 23 -168q4 -205 -94 -340q-115 -160 -316 -146 q-131 11 -211 101l-71 -82q-16 -20 -42 -22.5t-45.5 14t-21.5 42zM123 444q-4 -94 12 -165q68 66 213 194l213 189q-61 164 -190 223q-12 -2 -23 -2l-10 -2h-12q-14 -2 -21 -7q-66 -33 -119 -155q-55 -129 -63 -275zM190 160q49 -61 132 -68q133 -10 208 94q72 102 70 267 q0 36 -6 73l-164 -145q-164 -145 -240 -221z" />
<glyph unicode="&#xf9;" horiz-adv-x="854" d="M39 432q-18 260 22 539q4 27 24.5 41t46.5 11t40 -23.5t12 -45.5q-39 -266 -22 -514q12 -168 51 -262q39 -92 102 -98q37 -4 76 51q45 61 80 186q49 176 70 404q4 33 7 85t3 54q4 33 6 47.5t4 22.5q2 10 8 16q16 27 45 31q31 4 54 -21q6 -6 10 -14q2 -4 4 -10q0 -2 2 -6 v-2v-4q0 -4 2 -13q0 -18 4 -47l17 -217q23 -303 92 -598q6 -25 -7.5 -46.5t-38 -27.5t-46 7.5t-27.5 37.5q-43 180 -68 357q-10 -47 -22 -88q-41 -145 -96 -226q-82 -115 -195 -102q-131 16 -199 174q-47 113 -61 301zM205 1270.5q4 25.5 24.5 41t46 11t39.5 -24.5l117 -155 q14 -18 11 -44t-22.5 -41.5t-45 -12t-41.5 23.5l-117 156q-16 20 -12 45.5z" />
<glyph unicode="&#xfa;" horiz-adv-x="854" d="M39 432q-18 260 22 539q4 27 24.5 41t46.5 11t40 -23.5t12 -45.5q-39 -266 -22 -514q12 -168 51 -262q39 -92 102 -98q37 -4 76 51q45 61 80 186q49 176 70 404q4 33 7 85t3 54q4 33 6 47.5t4 22.5q2 10 8 16q16 27 45 31q31 4 54 -21q6 -6 10 -14q2 -4 4 -10q0 -2 2 -6 v-2v-4q0 -4 2 -13q0 -18 4 -47l17 -217q23 -303 92 -598q6 -25 -7.5 -46.5t-38 -27.5t-46 7.5t-27.5 37.5q-43 180 -68 357q-10 -47 -22 -88q-41 -145 -96 -226q-82 -115 -195 -102q-131 16 -199 174q-47 113 -61 301zM299 1084.5q0 25.5 18 43.5q37 33 97 103 q74 86 100 115q18 18 44 18t44.5 -17.5t18.5 -43t-17 -43.5q-27 -27 -96 -109q-63 -72 -105 -113q-18 -16 -43.5 -16t-43 18.5t-17.5 44z" />
<glyph unicode="&#xfb;" horiz-adv-x="854" d="M39 432q-18 260 22 539q4 27 24.5 41t46.5 11t40 -23.5t12 -45.5q-39 -266 -22 -514q12 -168 51 -262q39 -92 102 -98q37 -4 76 51q45 61 80 186q49 176 70 404q4 33 7 85t3 54q4 33 6 47.5t4 22.5q2 10 8 16q16 27 45 31q31 4 54 -21q6 -6 10 -14q2 -4 4 -10q0 -2 2 -6 v-2v-4q0 -4 2 -13q0 -18 4 -47l17 -217q23 -303 92 -598q6 -25 -7.5 -46.5t-38 -27.5t-46 7.5t-27.5 37.5q-43 180 -68 357q-10 -47 -22 -88q-41 -145 -96 -226q-82 -115 -195 -102q-131 16 -199 174q-47 113 -61 301zM164 1144q-2 26 14 46l66 74l57 67q63 68 115 70 q61 4 119 -72q25 -31 106 -160q14 -20 9 -45.5t-26.5 -39t-47 -8.5t-37.5 28q-80 125 -101 151q-10 12 -18 21q-12 -10 -28.5 -27.5t-57.5 -65.5t-62 -75q-16 -18 -41.5 -20.5t-45 14t-21.5 42.5z" />
<glyph unicode="&#xfc;" horiz-adv-x="854" d="M39 432q-18 260 22 539q4 27 24.5 41t46.5 11t40 -23.5t12 -45.5q-39 -266 -22 -514q12 -168 51 -262q39 -92 102 -98q37 -4 76 51q45 61 80 186q49 176 70 404q4 33 7 85t3 54q4 33 6 47.5t4 22.5q2 10 8 16q16 27 45 31q31 4 54 -21q6 -6 10 -14q2 -4 4 -10q0 -2 2 -6 v-2v-4q0 -4 2 -13q0 -18 4 -47l17 -217q23 -303 92 -598q6 -25 -7.5 -46.5t-38 -27.5t-46 7.5t-27.5 37.5q-43 180 -68 357q-10 -47 -22 -88q-41 -145 -96 -226q-82 -115 -195 -102q-131 16 -199 174q-47 113 -61 301zM190 1175.5q0 24.5 18.5 43t43 18.5t43 -18.5t18.5 -43 t-18.5 -43t-43 -18.5t-43 18.5t-18.5 43zM418 1169.5q0 24.5 18.5 43t43 18.5t43 -18.5t18.5 -43t-18.5 -43t-43 -18.5t-43 18.5t-18.5 43z" />
<glyph unicode="&#xfd;" horiz-adv-x="847" d="M16 930q-8 25 2.5 48t34 31.5t47 -2t31.5 -32.5q49 -129 136 -382t134 -376l35 84q162 397 228 688q4 25 25.5 38t47 8t38.5 -26t7 -48q-68 -301 -233 -705q-197 -483 -359 -631q-18 -18 -43.5 -16t-43 20.5t-15.5 44t21 41.5q96 88 221 346q-61 156 -164 450t-150 419z M290 1104q3 25 23 41q37 27 103 86l110 90q20 14 45 11t40.5 -23.5t12.5 -45t-24 -40.5l-102 -86l-111 -90q-20 -14 -45 -11.5t-40 23t-12 45.5z" />
<glyph unicode="&#xfe;" horiz-adv-x="862" d="M45 -326q20 213 30.5 472.5t12.5 410t0 491.5t-2 431q0 25 18.5 43t43 18t43 -18.5t18.5 -42.5q0 -111 1 -314.5t1 -275.5q150 186 315 147q76 -16 133.5 -76.5t92.5 -146.5q33 -82 40 -178t-14.5 -195.5t-84 -194.5t-161.5 -163q-49 -33 -101 -54.5t-116.5 -30 t-119.5 14.5q-10 -182 -27 -350q-2 -25 -22.5 -41t-45 -14t-41 22.5t-14.5 44.5zM201 147q51 -35 121 -24q68 10 141 61q78 53 129 129q49 76 65.5 155t12.5 155q-6 78 -33 145q-25 63 -61.5 101t-77.5 49q-94 20 -197 -113q-57 -73 -90 -182q-2 -262 -10 -476z" />
<glyph unicode="&#xff;" horiz-adv-x="847" d="M16 930q-8 25 2.5 48t34 31.5t47 -2t31.5 -32.5q49 -129 136 -382t134 -376l35 84q162 397 228 688q4 25 25.5 38t47 8t38.5 -26t7 -48q-68 -301 -233 -705q-197 -483 -359 -631q-18 -18 -43.5 -16t-43 20.5t-15.5 44t21 41.5q96 88 221 346q-61 156 -164 450t-150 419z M227 1163.5q0 24.5 18.5 43t43 18.5t43 -18.5t18.5 -43t-18.5 -43t-43 -18.5t-43 18.5t-18.5 43zM442 1175.5q0 24.5 18.5 43t43 18.5t43 -18.5t18.5 -43t-18.5 -43t-43 -18.5t-43 18.5t-18.5 43z" />
<glyph unicode="&#x152;" horiz-adv-x="1388" d="M41 645q4 260 94 477q100 242 258 305q18 6 42 11.5t49.5 8.5t27.5 3q25 6 45 -8h4q53 -14 101 -45q10 4 20 4q92 2 231 20q27 4 76 11l88 10l76 10q25 2 44.5 -13.5t22.5 -41t-12.5 -45t-42.5 -23.5q-35 -4 -73 -10l-88 -10q-47 -6 -74 -11q-88 -10 -152 -16 q47 -61 82 -145q84 -201 86 -451q68 2 213 16q25 2 45.5 -14t22.5 -40.5t-14.5 -45t-41.5 -22.5q-166 -14 -229 -17q-18 -229 -104 -385q-16 -29 -33 -53q258 4 446 31q25 2 45.5 -13.5t23.5 -40t-12.5 -45t-39.5 -24.5q-229 -31 -566 -31q-12 0 -22 4q-84 -51 -186 -49 q-236 6 -359 229q-98 182 -94 459zM164 643q-4 -244 80 -399q88 -160 254 -164q143 -4 231 157.5t94 409.5q4 250 -75 443q-84 195 -220 233q-6 2 -10 4q-74 -12 -80 -14q-111 -43 -188 -238q-82 -195 -86 -432z" />
<glyph unicode="&#x153;" horiz-adv-x="1290" d="M2 451q10 168 74 317q72 162 174 217q4 2 8 2q8 23 27.5 33t40.5 8q182 -35 292 -203q72 127 183.5 169t210.5 -13q123 -63 143.5 -204.5t-92.5 -307.5q-129 -182 -356 -221h-11q-12 -39 -28 -74q39 -80 92 -102q49 -20 114.5 2t129 80.5t104.5 128.5q12 23 36.5 28.5 t47 -6.5t29 -36.5t-6.5 -47.5q-49 -86 -129.5 -158.5t-171.5 -105.5q-109 -37 -200 2q-72 30 -125 104q-109 -106 -273 -94q-92 8 -157.5 53.5t-99 117t-47 149.5t-9.5 162zM125 444q-8 -156 43 -250t156 -102q133 -10 208 94q72 102 70 267q-2 145 -63.5 265t-165.5 167 q-12 -2 -23 -2q-2 0 -10 -1t-12 -1q-14 -2 -21 -7q-66 -33 -119 -155q-55 -129 -63 -275zM688 678q35 -109 37 -223q0 -39 -2 -78q150 35 242 162q57 82 66 155.5t-14.5 115.5t-62.5 62q-27 14 -60.5 13.5t-71.5 -17t-73.5 -65.5t-60.5 -125z" />
<glyph unicode="&#x2000;" horiz-adv-x="896" />
<glyph unicode="&#x2001;" horiz-adv-x="1792" />
<glyph unicode="&#x2002;" horiz-adv-x="896" />
<glyph unicode="&#x2003;" horiz-adv-x="1792" />
<glyph unicode="&#x2004;" horiz-adv-x="597" />
<glyph unicode="&#x2005;" horiz-adv-x="448" />
<glyph unicode="&#x2006;" horiz-adv-x="298" />
<glyph unicode="&#x2007;" horiz-adv-x="298" />
<glyph unicode="&#x2008;" horiz-adv-x="224" />
<glyph unicode="&#x2009;" horiz-adv-x="358" />
<glyph unicode="&#x200a;" horiz-adv-x="99" />
<glyph unicode="&#x2010;" horiz-adv-x="647" d="M-4 618.5q0 24.5 18 43t43 18.5q166 0 445 53q25 6 46 -8t26.5 -38.5t-9 -46.5t-39.5 -26q-291 -57 -469 -57q-25 0 -43 18.5t-18 43z" />
<glyph unicode="&#x2011;" horiz-adv-x="647" d="M-4 618.5q0 24.5 18 43t43 18.5q166 0 445 53q25 6 46 -8t26.5 -38.5t-9 -46.5t-39.5 -26q-291 -57 -469 -57q-25 0 -43 18.5t-18 43z" />
<glyph unicode="&#x2012;" horiz-adv-x="647" d="M-4 618.5q0 24.5 18 43t43 18.5q166 0 445 53q25 6 46 -8t26.5 -38.5t-9 -46.5t-39.5 -26q-291 -57 -469 -57q-25 0 -43 18.5t-18 43z" />
<glyph unicode="&#x2013;" horiz-adv-x="1090" d="M-4 618.5q0 24.5 32 43t76 18.5q293 0 785 53q44 6 81.5 -8t47 -38.5t-16 -46.5t-69.5 -26q-514 -57 -828 -57q-44 0 -76 18.5t-32 43z" />
<glyph unicode="&#x2014;" horiz-adv-x="2114" d="M-4 618.5q0 24.5 63.5 43t151.5 18.5q587 0 1572 53q88 6 162 -8t93.5 -38.5t-31.5 -46.5t-140 -26q-1027 -57 -1656 -57q-88 0 -151.5 18.5t-63.5 43z" />
<glyph unicode="&#x2018;" horiz-adv-x="401" d="M-25 1196q31 221 258 387q20 16 46 12t41.5 -24.5t11 -46t-24.5 -39.5q-186 -135 -209 -305q-4 -25 -24.5 -40.5t-45 -12.5t-40 23.5t-13.5 45.5z" />
<glyph unicode="&#x2019;" horiz-adv-x="413" d="M-25 1162.5q2 25.5 23 41.5q104 88 157.5 159t65.5 169q4 25 24.5 40t45 12t40 -23t13.5 -45q-10 -70 -34.5 -128.5t-64.5 -109.5t-76 -86t-93 -82q-18 -16 -44 -14t-42.5 21.5t-14.5 45z" />
<glyph unicode="&#x201c;" horiz-adv-x="595" d="M10 1159q0 131 55.5 238.5t170.5 167.5q23 12 46 5t35.5 -29.5t5.5 -46.5t-30 -36q-160 -88 -160 -299q0 -25 -18.5 -43t-43 -18t-43 18.5t-18.5 42.5zM180 1118q0 139 65.5 249t194.5 163q23 8 46.5 -1t32.5 -32.5t0 -47.5t-34 -34q-88 -35 -135 -112.5t-47 -184.5 q0 -25 -18.5 -43t-43 -18t-43 18.5t-18.5 42.5z" />
<glyph unicode="&#x201d;" horiz-adv-x="598" d="M-8 1133.5q2 25.5 22 40.5q100 82 144.5 157.5t40.5 181.5q0 25 16 43.5t42 19.5t44.5 -15t20.5 -43q6 -141 -53.5 -242.5t-176.5 -196.5q-20 -16 -46 -14t-41 22.5t-13 46zM182 1070q4 26 25 40q115 86 164 176q49 86 30 203q-4 27 11.5 47t41 24.5t46 -11t24.5 -40.5 q25 -160 -41.5 -278.5t-201.5 -218.5q-20 -16 -46 -12t-41.5 24t-11.5 46z" />
<glyph unicode="&#x202f;" horiz-adv-x="358" />
<glyph unicode="&#x205f;" horiz-adv-x="448" />
<glyph unicode="&#x20ac;" horiz-adv-x="1390" d="M6 451.5q-2 25.5 15.5 44t42 20.5t100.5 6l117 6q0 14 -2 33q-4 92 6 191q-121 -2 -217 6q-25 2 -41.5 21.5t-14.5 45t21.5 42t46.5 14.5q92 -8 221 -4q18 94 45 182q43 131 125 237.5t182 149.5q119 49 226 -12q109 -61 176 -236q8 -25 -2.5 -47.5t-34 -31.5t-46 1 t-32.5 33q-51 133 -123 174q-53 31 -117 4q-70 -29 -135 -113.5t-100 -195.5q-23 -68 -37 -141q141 8 213 8q25 0 43 -18.5t18 -43t-18 -43t-43 -18.5q-68 0 -233 -8q-10 -100 -7 -191q2 -18 2 -35q135 6 242 7q25 0 43.5 -18.5t18.5 -43t-18.5 -43t-43.5 -18.5 q-100 0 -221 -4q37 -154 127 -244q45 -43 129 -66q176 -45 326 105q131 131 194 342q8 25 30.5 36t47.5 4t36 -29.5t5 -47.5q-74 -240 -227 -393q-199 -197 -441 -135q-117 31 -186 98q-123 121 -166 324l-123 -7q-80 -4 -105.5 -6t-44 15.5t-20.5 43z" />
<glyph unicode="&#x2122;" horiz-adv-x="1476" d="M-30 1217.5q-5 25.5 8 47t40 25.5q78 18 224 64q162 51 231 67q25 6 46.5 -7t27.5 -37.5t-7.5 -46t-37.5 -27.5q-70 -16 -189 -56q14 -109 25 -315q14 -240 29 -352q2 -27 -13.5 -46.5t-41 -22.5t-45 12.5t-23.5 39.5q-14 119 -29 361q-12 217 -20 286q-86 -25 -152 -39 q-25 -6 -46.5 7.5t-26.5 39zM649 1233v61q0 14 2 23q2 10 6 18q18 37 58 37q33 0 55 -29q10 -10 18 -26q10 -23 27 -66l25 -65q25 -66 39 -101q39 -90 67 -124l2 4q6 23 17 63q8 27 41 176q25 119 41 172q14 41 26 64q12 20 29 30q33 23 67 9q20 -8 33 -27q4 -6 8 -16 l11 -31q10 -31 22 -88q20 -78 60 -258q86 -401 104 -451q8 -23 -2 -46t-33.5 -31.5t-47.5 2t-32 34.5q-16 43 -110 465l-45 203l-13 -55q-39 -174 -41 -183q-10 -45 -20 -71q-14 -41 -31 -60q-43 -47 -98 -39q-43 8 -78 50q-37 43 -78 131q12 -301 13 -410q0 -25 -18.5 -43 t-43 -18t-43 18t-18.5 43q0 100 -13 446q-6 133 -6 189z" />
<glyph unicode="&#x25fc;" horiz-adv-x="1013" d="M0 0v1014h1014v-1014h-1014z" />
</font>
</defs>
</svg>
